<svg width="125" height="110" viewBox="0 0 125 110" fill="none" xmlns="http://www.w3.org/2000/svg">
<path d="M71.9541 71.4795C71.4572 71.6368 71.2399 72.0144 70.9293 72.2977C67.7617 75.4761 64.1904 78.0566 60.2154 80.0392C55.0914 82.5882 49.6879 84.0988 43.9739 84.382C29.0987 85.1373 15.8073 78.214 7.91941 67.2311C4.2239 62.1015 1.8948 56.3741 0.714726 50.1746C-1.83176 37.0517 2.39168 20.9079 14.6272 10.2082C18.7264 6.62067 23.4467 4.1031 28.5708 2.40375C32.7631 1.01908 37.0487 0.106466 41.4584 0.0120576C50.7438 -0.208229 59.0975 2.59256 66.5195 8.19415C71.1467 11.6873 74.8422 16.0615 77.7613 21.0967C81.4879 27.485 83.258 34.4083 83.3201 41.7722C83.3822 49.5452 81.4258 56.7832 77.6061 63.5177C77.4197 63.8638 77.2334 64.21 77.0471 64.5562C77.2334 64.7764 77.3576 64.9653 77.5129 65.1226C78.724 66.1611 79.9662 67.1681 81.1773 68.1752C81.7053 68.6157 82.2643 68.9934 82.7922 69.4339C83.258 69.8116 83.7238 69.9375 84.3139 69.8116C86.5187 69.3081 88.6305 69.6542 90.618 70.7242C91.0527 70.9445 91.4564 71.1962 91.8601 71.4795C92.4502 71.8886 93.0092 72.3291 93.5682 72.7697C101.829 79.3783 110.089 86.0184 118.35 92.627C119.375 93.4767 120.43 94.3264 121.362 95.2705C123.039 96.9698 123.94 99.0153 124.002 101.438C124.126 106.411 119.903 110.407 114.996 109.967C113.785 109.841 112.636 109.558 111.58 108.96C110.679 108.456 109.779 107.89 108.971 107.26C104.903 104.05 100.866 100.778 96.8289 97.5677C92.326 93.9487 87.823 90.3612 83.3201 86.7422C82.6059 86.1758 81.8916 85.5778 81.2395 84.9799C80.2457 84.0673 79.4072 83.0288 78.8172 81.8015C78.165 80.4798 77.8856 79.0636 77.9477 77.616C77.9477 77.3013 77.9477 76.9552 77.9787 76.5775C77.7303 76.3258 77.5129 76.0426 77.2334 75.8537C75.4012 74.4691 73.8484 72.7068 71.9231 71.4795H71.9541ZM67.6996 71.2277C68.7555 70.0948 69.8424 69.0248 70.8361 67.8605C73.9416 64.2415 76.3018 60.1189 77.9477 55.6188C79.7799 50.6781 80.432 45.4856 80.0283 40.2302C79.3451 30.8837 75.8981 22.7016 69.8734 15.621C68.1965 13.6384 66.3643 11.8761 64.2526 10.397C56.3647 4.92131 47.6073 2.62403 38.1356 3.44224C27.3907 4.35486 18.6954 9.42146 11.9565 17.8553C6.27351 24.936 3.5407 33.181 3.41648 42.2757C3.23015 55.6817 9.87585 68.1122 20.9934 75.2873C35.8065 84.854 54.9051 83.1861 67.6996 71.2277Z" fill="white"/>
<path d="M119.437 98.4488C119.53 99.802 118.816 100.62 117.667 100.652C117.139 100.652 116.642 100.526 116.207 100.243C115.617 99.8649 115.058 99.4873 114.53 99.0467C112.729 97.5361 110.99 95.9627 109.375 94.2633C109.002 93.8857 108.661 93.4766 108.35 93.0675C108.133 92.7528 107.916 92.4066 107.822 92.029C107.45 90.8646 108.381 89.8261 109.592 90.0779C109.934 90.1408 110.276 90.2981 110.586 90.4555C111.083 90.7387 111.611 91.0534 112.077 91.3996C113.94 92.8787 115.803 94.3577 117.636 95.8683C118.07 96.2459 118.474 96.6865 118.847 97.127C119.219 97.5676 119.437 98.0711 119.468 98.4488H119.437Z" fill="#FAD940"/>
</svg>
