<svg width="150" height="120" viewBox="0 0 150 120" fill="none" xmlns="http://www.w3.org/2000/svg">
<path d="M89.9275 6.53314C90.3032 6.53314 90.6788 6.53314 91.0545 6.53314C98.8685 6.56933 106.72 6.64172 114.534 6.67791C115.586 6.67791 116.6 6.71411 117.652 6.7503C117.69 6.7503 117.727 6.7503 117.802 6.7503C118.892 6.78649 119.568 7.36559 119.681 8.27043C119.756 9.24766 119.042 10.1525 118.065 10.3335C117.765 10.4059 117.427 10.3697 117.089 10.4059C116.863 10.4059 116.638 10.4059 116.412 10.4059C116.074 10.4059 115.736 10.4059 115.36 10.4059C115.36 10.623 115.36 10.8402 115.36 11.0573C115.36 17.2102 115.436 23.3993 115.473 29.5523C115.473 31.0362 115.473 32.4839 115.511 33.9679C115.511 34.1126 115.511 34.2936 115.511 34.4746C115.774 34.547 115.999 34.6194 116.224 34.6917C126.33 37.732 134.407 43.4868 140.23 51.9923C144.7 58.5071 147.067 65.7096 147.368 73.4913C147.781 82.8654 145.114 91.4071 139.591 99.1525C134.445 106.391 127.645 111.675 119.117 114.752C113.895 116.634 108.711 117.539 103.564 117.539C97.2531 117.539 90.9794 116.127 84.7808 113.377C77.7557 110.228 72.0079 105.595 67.4999 99.5144C63.7807 94.4835 61.4516 88.8735 60.3621 82.8292C58.1457 70.7405 61.4891 58.1814 69.5285 48.6987C75.0133 42.22 81.9257 37.7682 90.1153 35.0899C90.3032 35.0175 90.4534 34.9813 90.6413 34.9089C90.6788 34.9089 90.7164 34.8727 90.7915 34.8003C90.7915 26.6206 90.7164 18.4408 90.6788 10.2249C90.491 10.2249 90.3407 10.2249 90.1529 10.2249C89.5142 10.2249 88.838 10.2249 88.1994 10.2249C87.1851 10.1887 86.584 9.71817 86.321 8.88572C86.0205 7.94469 86.4713 7.03985 87.4856 6.7503C87.7862 6.64172 88.1618 6.64172 88.4999 6.60553C88.9507 6.60553 89.4391 6.60553 89.8899 6.60553M89.8899 4.10817C89.4015 4.10817 88.9132 4.10817 88.4624 4.10817C88.0491 4.10817 87.4105 4.14436 86.7718 4.36152C85.6448 4.68727 84.7056 5.41114 84.1797 6.35217C83.6538 7.3294 83.5411 8.48759 83.8792 9.5734C84.4802 11.4193 86.0205 12.5413 88.0867 12.6499L88.1618 33.0992C79.8595 35.9947 72.9096 40.6999 67.4999 47.1423C58.9721 57.2403 55.4033 70.4148 57.8076 83.2635C59.0097 89.8507 61.5643 95.7865 65.3961 100.962C70.1672 107.405 76.3282 112.327 83.6913 115.621C90.228 118.516 96.915 120 103.564 120C109.012 120 114.534 119.023 120.019 117.032C128.885 113.847 136.173 108.309 141.733 100.528C147.593 92.2757 150.373 83.1549 149.96 73.3827C149.622 65.0943 147.067 57.4575 142.371 50.6169C136.473 41.9667 128.284 35.9223 118.028 32.6287C118.028 31.5791 118.028 30.5657 118.028 29.5161C117.99 23.9784 117.953 18.4046 117.915 12.867C118.103 12.867 118.291 12.867 118.516 12.7946C120.808 12.3965 122.423 10.3335 122.235 8.08946C122.047 5.95404 120.282 4.39772 117.915 4.28914H117.727H116.75C116.037 4.28914 115.285 4.28914 114.572 4.25294C106.758 4.18056 98.906 4.14436 91.0921 4.10817C90.7164 4.10817 90.3407 4.10817 89.9275 4.10817H89.8899Z" fill="white"/>
<path d="M133.956 48.192C133.956 48.192 134.256 48.5177 134.406 48.6987C139.253 54.1639 142.371 60.4616 143.685 67.5555C146.127 80.7662 141.469 94.4474 131.1 103.749C124.714 109.468 117.163 112.834 108.56 113.992C96.2382 115.621 83.2775 111.567 74.1111 102.627C68.739 97.4152 65.1701 91.2261 63.3669 84.096C63.3669 83.9874 63.3293 83.8788 63.2918 83.8065C63.1791 83.4807 63.2918 83.2274 63.5172 83.0102C63.8928 82.6845 64.2685 82.3587 64.6442 82.0692C67.5744 79.6804 70.993 78.305 74.7498 77.6536C76.553 77.364 78.3562 77.183 80.1594 77.183C83.1272 77.1468 86.1326 77.3278 89.1004 77.5088C92.4063 77.7259 95.7122 78.0155 99.0557 77.9793C103.075 77.9069 107.058 77.545 110.965 76.6039C114.233 75.8077 117.351 74.6133 120.206 72.876C124 70.5958 127.043 67.5917 129.448 63.9724C131.401 61.0045 132.791 57.7833 133.505 54.3449C133.88 52.4628 133.993 50.5808 133.88 48.6625C133.88 48.5177 133.88 48.4091 133.88 48.2644C133.918 48.2644 133.993 48.192 134.031 48.192H133.956Z" fill="white"/>
<path d="M126.029 54.0191C126.029 56.7699 123.699 59.05 120.844 59.0862C117.914 59.0862 115.585 56.8784 115.585 54.0553C115.585 51.2322 117.914 48.9882 120.844 48.9882C123.775 48.9882 126.029 51.196 126.029 54.0191Z" fill="white"/>
<path d="M113.368 63.9C115.434 63.9 117.05 65.4925 117.012 67.5193C117.012 69.5462 115.359 71.1387 113.293 71.1025C111.227 71.1025 109.574 69.4376 109.574 67.4469C109.574 65.4563 111.227 63.9 113.368 63.9Z" fill="white"/>
<path d="M136.998 80.8024C136.998 83.8064 136.397 86.7019 135.307 89.4888C135.007 90.2127 134.631 90.9004 134.256 91.588C133.917 92.2033 133.429 92.71 132.828 93.1082C132.265 93.5063 131.663 93.7597 130.95 93.832C129.485 94.013 128.245 93.4339 127.531 92.1671C127.005 91.2623 126.817 90.3213 127.005 89.3078C127.155 88.5478 127.343 87.7877 127.606 87.0638C127.907 86.1952 128.32 85.3266 128.696 84.4941C129.748 82.0691 130.649 79.5718 131.138 76.9658C131.288 76.0972 131.438 75.1924 131.626 74.3237C131.739 73.8532 131.814 73.3827 132.039 72.9483C132.603 71.6816 134.03 71.4644 135.007 72.4778C135.42 72.9122 135.683 73.4189 135.871 73.9618C136.472 75.5181 136.81 77.1106 136.96 78.7755C137.036 79.4632 137.036 80.1509 137.073 80.8386L136.998 80.8024Z" fill="#FAD940"/>
<path d="M124.451 85.037C124.376 85.5437 124.339 86.1952 124.151 86.8467C123.813 88.0049 123.061 88.8373 121.822 89.1631C120.732 89.4526 119.68 89.0545 119.079 88.1496C118.666 87.5343 118.478 86.8467 118.591 86.0866C118.628 85.6885 118.704 85.2903 118.891 84.9646C119.492 83.8788 120.169 82.8292 120.807 81.8158C120.958 81.5986 121.183 81.4176 121.371 81.2367C122.423 80.4404 123.587 80.7661 124.038 81.9605C124.113 82.1777 124.188 82.431 124.226 82.6482C124.301 83.3721 124.376 84.1321 124.451 85.037Z" fill="#FAD940"/>
<path d="M123.7 95.6056C125.09 95.6056 126.405 96.5466 126.819 97.7772C127.119 98.682 126.969 99.5145 126.293 100.166C125.616 100.817 124.79 100.962 123.888 100.709C122.536 100.347 121.409 98.7906 121.484 97.4152C121.559 96.2932 122.423 95.5694 123.7 95.5694V95.6056Z" fill="white"/>
<path d="M5.81392 7.7637C6.18959 7.69132 6.60283 7.61893 6.9785 7.54654C14.6422 6.0988 22.3059 4.61486 29.9696 3.16712C30.9839 2.98615 31.9982 2.80518 33.0501 2.62421C33.1253 2.62421 33.1628 2.62421 33.238 2.62421C34.2898 2.47944 35.0787 2.91376 35.3417 3.74622C35.6423 4.61486 35.1539 5.66448 34.2898 6.0626C33.9517 6.20738 33.5385 6.27977 33.1628 6.35215C32.9374 6.38835 32.7496 6.42454 32.5242 6.49693C32.1861 6.56931 31.8855 6.60551 31.5099 6.6779C31.5474 6.89506 31.585 7.07603 31.6226 7.25699C32.1485 9.71816 32.712 12.1431 33.238 14.6043C35.229 24.1232 37.1825 33.6783 39.136 43.2334C40.6011 50.3274 42.0287 57.4575 43.4938 64.5514C44.6584 70.3786 45.823 76.1696 47.0251 81.9967C48.0394 87.0276 49.1289 92.0223 50.1807 97.0533C50.4813 98.4648 50.7443 99.9125 50.8194 101.36C50.9697 105.957 48.1145 110.228 43.6816 111.929C42.9678 112.218 42.2541 112.399 41.5027 112.544C38.6101 113.123 35.8301 112.544 33.1252 110.988C30.9839 109.721 29.4061 108.02 28.5045 105.74C28.1664 104.907 27.9034 104.002 27.678 103.134C27.3399 101.795 27.0769 100.492 26.7764 99.1525C25.161 92.0223 23.5081 84.8922 21.9302 77.7621C20.127 69.6547 18.3614 61.5112 16.5957 53.4038C14.3041 42.8353 11.9749 32.3029 9.68334 21.7344C8.932 18.3684 8.21822 15.0024 7.50444 11.6364C7.50444 11.5278 7.46688 11.4554 7.39174 11.2383C7.16634 11.2745 6.9785 11.3107 6.7531 11.3831C6.6404 11.3831 6.5277 11.4193 6.37743 11.4554C5.77635 11.564 5.13771 11.6726 4.53664 11.745C3.74773 11.8174 3.18422 11.4193 2.80855 10.7678C2.32017 9.89912 2.58314 8.95809 3.48476 8.48757C3.78529 8.3428 4.16097 8.23422 4.49907 8.16183C4.94988 8.05325 5.36311 7.98086 5.81392 7.90848M5.28798 5.48351C4.83717 5.55589 4.38637 5.66448 3.93556 5.77306C3.52232 5.88164 2.88368 6.02641 2.28261 6.35215C0.103712 7.32938 -0.610064 9.75435 0.554518 11.8174C1.41856 13.3737 2.99638 14.2424 4.76204 14.0976C4.98744 14.0976 5.17528 14.0614 5.40068 14.0252L5.73879 15.5091C6.22716 17.7169 6.67797 19.9247 7.16634 22.1326C9.45794 32.7011 11.7871 43.2334 14.0787 53.8019L15.3935 59.7739C16.746 65.9268 18.0608 72.0435 19.4508 78.1964C20.5402 83.1549 21.6673 88.1134 22.8318 93.072C23.3202 95.2436 23.8086 97.4152 24.297 99.5868C24.3721 99.9849 24.4848 100.347 24.5599 100.745C24.7478 101.686 24.9732 102.663 25.2361 103.64C25.5367 104.835 25.8372 105.74 26.1378 106.572C27.2272 109.287 29.1431 111.494 31.8104 113.051C35.1163 114.969 38.5349 115.584 42.0287 114.897C42.8927 114.716 43.7568 114.462 44.6208 114.137C50.0305 112.037 53.5618 106.862 53.374 101.179C53.3364 99.5144 52.9983 97.9219 52.6977 96.438L52.1342 93.7234C51.2702 89.6698 50.4061 85.5075 49.5421 81.4176C48.8659 78.0878 48.1897 74.758 47.5135 71.4282C47.0251 68.9308 46.5367 66.4697 46.0108 63.9723C44.5832 56.8784 43.1181 49.7483 41.653 42.6543C39.6995 33.0992 37.746 23.5803 35.755 14.0252C35.4169 12.3241 35.0036 10.623 34.6655 8.95809C34.6655 8.81332 34.5904 8.66854 34.5528 8.48757C34.7782 8.41519 35.0412 8.3428 35.3041 8.23422C37.3703 7.36557 38.4222 5.01299 37.7836 2.91376C37.1449 0.886923 35.0787 -0.271271 32.8247 0.0544709C32.7496 0.0544709 32.6369 0.0544709 32.5617 0.0906645L31.585 0.271632C30.8712 0.380213 30.1574 0.524987 29.4437 0.669762C21.78 2.18989 14.1163 3.67383 6.45256 5.12157C6.03932 5.19396 5.66365 5.26635 5.25041 5.33873L5.28798 5.48351Z" fill="white"/>
<path d="M38.4961 52.4628C38.5337 52.6799 38.5712 52.8247 38.6088 53.0057C40.8253 63.8638 43.0042 74.758 45.2206 85.6523C46.0095 89.5612 46.8736 93.4339 47.6625 97.3428C47.8879 98.4286 48.0757 99.5144 48.1133 100.6C48.3011 104.763 45.3333 108.418 41.1258 109.287C38.7591 109.793 36.505 109.359 34.4013 108.165C32.3351 106.97 31.0202 105.233 30.4192 103.025C30.1562 102.12 29.9308 101.216 29.743 100.274C28.5408 94.954 27.3011 89.5974 26.1365 84.2769C25.4227 81.1281 24.7841 77.9793 24.0703 74.8304C22.4925 67.7003 20.9522 60.5701 19.3744 53.44C19.3744 53.2952 19.2993 53.1505 19.2617 52.9695C19.4496 52.8971 19.5623 52.8247 19.7501 52.7523C23.8449 51.2322 28.09 50.7979 32.4102 51.5941C33.8002 51.8475 35.1902 52.0647 36.5802 52.2818C37.1813 52.3904 37.7823 52.3904 38.4585 52.4628H38.4961Z" fill="white"/>
<path d="M39.662 97.6324C39.4742 96.4018 39.2864 95.135 39.1361 93.9044C39.0985 93.5063 39.0985 93.1444 39.1361 92.7462C39.1361 92.4929 39.2112 92.2033 39.2864 91.95C39.5118 91.2623 39.9626 90.828 40.7139 90.6832C41.4652 90.5384 42.0663 90.828 42.5171 91.4071C42.8177 91.8052 43.0431 92.2395 43.2309 92.6738C44.0574 94.7007 44.7336 96.7999 45.2595 98.8991C45.3722 99.2611 45.4098 99.6592 45.4098 100.057C45.4098 100.347 45.4098 100.673 45.3347 100.962C45.1093 101.939 44.4706 102.627 43.4187 102.808C42.4044 103.025 41.5779 102.663 40.9393 101.903C40.5261 101.396 40.3007 100.817 40.1504 100.202C40.0001 99.3335 39.8499 98.501 39.6996 97.6324H39.662Z" fill="#FAD940"/>
<path d="M37.145 85.6885C36.9948 84.8922 37.0323 84.2407 37.2953 83.6255C37.8212 82.4673 39.0985 82.2139 40.0001 83.1549C40.5261 83.6978 40.9017 84.3493 40.9769 85.1456C41.052 86.0142 40.6012 86.8105 39.8499 87.1362C38.8731 87.5344 37.8212 87.1362 37.3329 86.2314C37.2202 86.0142 37.145 85.7971 37.145 85.6885Z" fill="white"/>
</svg>
