<svg width="10.6rem" height="4.3rem" viewBox="0 0 106 43" fill="none" xmlns="http://www.w3.org/2000/svg">
<path d="M20 35.4336V15.1836H22.41V35.4336H20Z" fill="#00557D"></path>
<path d="M38.75 26.9038V35.4338H36.29V33.9238C35.6849 34.524 34.9619 34.992 34.1667 35.2984C33.3715 35.6048 32.5213 35.7429 31.67 35.7038C28.05 35.7038 25.51 33.5738 25.51 30.5438C25.51 27.5138 28.05 25.3838 31.67 25.3838C32.5222 25.3443 33.3734 25.483 34.1689 25.7913C34.9645 26.0995 35.6869 26.5704 36.29 27.1738V26.9038C36.29 23.7638 34.64 22.2238 31.81 22.2238C30.0657 22.237 28.3643 22.7658 26.92 23.7438L26.11 22.0938C27.9095 20.9029 30.0221 20.273 32.18 20.2838C36.24 20.2838 38.75 22.3338 38.75 26.9038ZM36.4 30.5238C36.4 28.5238 34.67 27.0638 32.16 27.0638C29.65 27.0638 27.92 28.4938 27.92 30.5238C27.92 32.5538 29.64 33.9738 32.16 33.9738C34.68 33.9738 36.4 32.5438 36.4 30.5238Z" fill="#00557D"></path>
<path d="M71.35 28.9838H59.07C59.174 30.2498 59.7559 31.4287 60.6975 32.2812C61.6392 33.1337 62.8699 33.5959 64.14 33.5738C64.9484 33.5904 65.7482 33.4041 66.4661 33.032C67.1841 32.66 67.7974 32.1139 68.25 31.4438L70.08 32.7038C69.4166 33.6575 68.5263 34.4311 67.4893 34.9548C66.4523 35.4785 65.3013 35.7359 64.14 35.7038C63.146 35.7088 62.1614 35.5119 61.2458 35.125C60.3303 34.7381 59.5028 34.1692 58.8137 33.453C58.1245 32.7367 57.5881 31.8879 57.2367 30.9581C56.8854 30.0283 56.7266 29.0368 56.77 28.0438C56.7238 27.0496 56.8806 26.0564 57.2307 25.1248C57.5809 24.1932 58.1171 23.3426 58.8067 22.625C59.4962 21.9073 60.3248 21.3376 61.2417 20.9506C62.1586 20.5636 63.1447 20.3673 64.14 20.3738C69.14 20.3338 71.87 24.6638 71.35 28.9838ZM59.04 27.1738H69.14C69.0879 25.8917 68.535 24.6813 67.6001 23.8024C66.6652 22.9236 65.4228 22.4466 64.14 22.4738C62.8512 22.4604 61.6059 22.9392 60.6581 23.8126C59.7103 24.6861 59.1316 25.8882 59.04 27.1738V27.1738Z" fill="#00557D"></path>
<path d="M87.99 27.1136V35.4336H85.59V27.2536C85.59 24.3036 83.89 22.3636 81.32 22.3636C78.75 22.3636 76.95 24.3036 76.95 27.2536V35.4336H74.57V20.5836H76.98V23.2836C77.4858 22.354 78.2421 21.5848 79.163 21.0633C80.0839 20.5419 81.1326 20.2891 82.19 20.3336C85.87 20.3336 88.02 22.8536 87.99 27.1136Z" fill="#00557D"></path>
<path d="M105.39 28.9838H93.1C93.2041 30.2515 93.7874 31.4319 94.7312 32.2847C95.675 33.1374 96.9083 33.5984 98.18 33.5738C98.988 33.5877 99.7868 33.4002 100.504 33.0284C101.222 32.6565 101.835 32.112 102.29 31.4438L104.12 32.7038C103.457 33.6575 102.566 34.4311 101.529 34.9548C100.492 35.4785 99.3413 35.7359 98.18 35.7038C97.1857 35.7102 96.2004 35.5143 95.2842 35.1279C94.3679 34.7415 93.5399 34.1727 92.8505 33.4561C92.161 32.7395 91.6246 31.8902 91.2738 30.9597C90.923 30.0293 90.7652 29.0372 90.81 28.0438C90.7624 27.0493 90.9181 26.0555 91.2678 25.1232C91.6174 24.1909 92.1535 23.3398 92.8434 22.6218C93.5333 21.9039 94.3624 21.3342 95.28 20.9477C96.1976 20.5611 97.1844 20.3659 98.18 20.3738C103.18 20.3338 105.87 24.6638 105.39 28.9838ZM93.08 27.1738H103.18C103.128 25.8917 102.575 24.6813 101.64 23.8024C100.705 22.9236 99.4629 22.4466 98.18 22.4738C96.8871 22.4456 95.6336 22.9195 94.6827 23.7958C93.7317 24.6722 93.1573 25.8829 93.08 27.1738V27.1738Z" fill="#00557D"></path>
<path d="M10.05 16.5439L18.2 35.2839V35.4539H15.59L13.78 31.1339H4.42999L2.62 35.4539H0V35.2839L8.16 16.5439H10.05ZM5.29999 29.1039H12.87L9.10001 20.0439L5.29999 29.1039Z" fill="#00557D"></path>
<path d="M50.18 33.7339H46.69C44.88 33.7339 44.07 33.2739 44.07 32.3039C44.0872 31.9976 44.1746 31.6995 44.3255 31.4325C44.4764 31.1654 44.6866 30.9367 44.94 30.7639C45.882 31.1895 46.9065 31.4012 47.94 31.3839C51.37 31.3839 53.86 29.0939 53.86 25.9039C53.8585 24.9415 53.6058 23.9962 53.127 23.1614C52.6483 22.3266 51.9599 21.6311 51.13 21.1439C50.1236 20.5874 48.99 20.3014 47.84 20.3139C44.33 20.3139 41.78 22.6639 41.78 25.9039C41.7702 26.6205 41.9101 27.3314 42.1908 27.9909C42.4715 28.6504 42.8867 29.244 43.41 29.7339C42.8783 30.0514 42.4342 30.4967 42.1181 31.0293C41.8021 31.5619 41.624 32.165 41.6 32.7839C41.6 34.7039 43.22 35.7839 46.24 35.7839H49.81C51.91 35.7839 53.05 36.1939 53.05 37.7839C53.05 39.3739 51.51 40.0839 48.73 40.0839C46.3066 40.1797 43.8984 39.6602 41.73 38.5739L40.73 40.4539C43.1718 41.7422 45.9116 42.3598 48.67 42.2439C52.99 42.2439 55.37 40.6539 55.37 37.7339C55.37 34.8139 53.47 33.7339 50.18 33.7339ZM47.87 22.3639C48.3492 22.3379 48.8287 22.4104 49.2787 22.577C49.7288 22.7436 50.1399 23.0008 50.4867 23.3325C50.8334 23.6643 51.1085 24.0637 51.2948 24.5059C51.4812 24.9482 51.5748 25.424 51.57 25.9039C51.5749 26.3702 51.4838 26.8326 51.3024 27.2622C51.121 27.6919 50.8532 28.0796 50.5155 28.4013C50.1779 28.7231 49.7776 28.9719 49.3397 29.1323C48.9018 29.2927 48.4356 29.3613 47.97 29.3339C45.73 29.3339 44.14 27.9039 44.14 25.9039C44.1364 25.4217 44.2319 24.944 44.4206 24.5003C44.6092 24.0565 44.887 23.6563 45.2368 23.3244C45.5865 22.9925 46.0007 22.736 46.4536 22.5707C46.9066 22.4055 47.3887 22.3351 47.87 22.3639V22.3639Z" fill="#04BF9B"></path>
<path d="M83.68 9.10369C83.984 9.99916 84.015 10.9648 83.7691 11.8779C83.5231 12.791 83.0113 13.6105 82.2986 14.232C81.5859 14.8536 80.7045 15.2494 79.7664 15.3689C78.8283 15.4885 77.8759 15.3266 77.03 14.9036C76.1842 14.4807 75.4832 13.8159 75.016 12.9937C74.5488 12.1715 74.3365 11.229 74.4062 10.2859C74.4759 9.34276 74.8243 8.44164 75.4072 7.69699C75.9901 6.95234 76.7812 6.39775 77.68 6.10369C78.8736 5.71044 80.1742 5.80515 81.2983 6.36716C82.4223 6.92917 83.2785 7.91288 83.68 9.10369V9.10369ZM66.58 4.10369C65.8976 4.33242 65.2984 4.75829 64.858 5.32747C64.4176 5.89666 64.1558 6.58362 64.1057 7.30155C64.0556 8.01948 64.2195 8.73615 64.5765 9.36099C64.9336 9.98583 65.4679 10.4908 66.1118 10.8121C66.7558 11.1334 67.4806 11.2566 68.1945 11.1661C68.9085 11.0756 69.5796 10.7755 70.1231 10.3037C70.6666 9.83193 71.0579 9.20964 71.2479 8.51547C71.4378 7.8213 71.4176 7.08642 71.19 6.4037C71.0437 5.94512 70.808 5.52003 70.4967 5.15288C70.1854 4.78574 69.8046 4.4838 69.3761 4.26445C68.9476 4.0451 68.48 3.91267 68.0001 3.87478C67.5202 3.8369 67.0376 3.8943 66.58 4.04369V4.10369ZM54.12 17.5937C53.7696 17.7116 53.462 17.9307 53.2361 18.2233C53.0102 18.5159 52.8761 18.8689 52.8507 19.2377C52.8253 19.6065 52.9098 19.9745 53.0936 20.2953C53.2773 20.6161 53.5519 20.8753 53.8829 21.0401C54.2138 21.2048 54.5861 21.2678 54.9528 21.2211C55.3195 21.1743 55.6642 21.0199 55.9432 20.7774C56.2222 20.5349 56.423 20.2151 56.5203 19.8584C56.6177 19.5018 56.6071 19.1243 56.49 18.7737C56.4121 18.5404 56.289 18.3248 56.1276 18.1392C55.9663 17.9536 55.7699 17.8017 55.5498 17.6921C55.3296 17.5825 55.09 17.5174 54.8447 17.5005C54.5993 17.4836 54.3531 17.5153 54.12 17.5937V17.5937ZM57.52 9.16369C56.9175 9.35875 56.3867 9.72871 55.9952 10.2265C55.6037 10.7242 55.3692 11.3272 55.3216 11.9587C55.274 12.5902 55.4154 13.2216 55.7278 13.7724C56.0402 14.3232 56.5095 14.7686 57.0759 15.0518C57.6424 15.335 58.2802 15.4433 58.9084 15.3627C59.5365 15.2821 60.1264 15.0164 60.603 14.5994C61.0797 14.1825 61.4214 13.633 61.5847 13.0212C61.748 12.4093 61.7255 11.7627 61.52 11.1637C61.2486 10.3725 60.6773 9.71947 59.9292 9.34539C59.181 8.9713 58.3158 8.90605 57.52 9.16369V9.16369ZM89.66 10.2737C88.9788 10.504 88.381 10.931 87.9422 11.5007C87.5033 12.0704 87.2431 12.7574 87.1943 13.4748C87.1454 14.1923 87.3102 14.9082 87.6679 15.5321C88.0255 16.156 88.5599 16.66 89.2037 16.9805C89.8474 17.301 90.5717 17.4236 91.2851 17.3329C91.9985 17.2421 92.669 16.9421 93.2121 16.4707C93.7551 15.9993 94.1464 15.3776 94.3364 14.684C94.5265 13.9904 94.5069 13.2561 94.28 12.5737C93.9722 11.6562 93.3126 10.8984 92.4462 10.4671C91.5799 10.0358 90.5777 9.96624 89.66 10.2737V10.2737ZM105.48 1.27369C105.362 0.923319 105.143 0.615743 104.85 0.389827C104.558 0.163911 104.205 0.0297914 103.836 0.0044128C103.467 -0.0209658 103.099 0.0635355 102.778 0.247241C102.458 0.430946 102.198 0.705612 102.034 1.03654C101.869 1.36746 101.806 1.7398 101.853 2.10651C101.899 2.47321 102.054 2.81783 102.296 3.09683C102.539 3.37583 102.859 3.57668 103.215 3.67402C103.572 3.77135 103.949 3.7608 104.3 3.64369C104.76 3.48602 105.14 3.15571 105.36 2.72269C105.58 2.28966 105.623 1.78792 105.48 1.32369V1.27369ZM98.87 5.97369C98.2708 6.16973 97.7434 6.53945 97.3548 7.03589C96.9662 7.53233 96.7339 8.13307 96.6875 8.76181C96.641 9.39055 96.7825 10.0189 97.094 10.567C97.4054 11.1152 97.8728 11.5584 98.4367 11.8403C99.0006 12.1223 99.6356 12.2302 100.261 12.1505C100.886 12.0708 101.474 11.807 101.949 11.3926C102.424 10.9782 102.765 10.4319 102.929 9.82318C103.093 9.21443 103.073 8.57067 102.87 7.97369C102.601 7.18088 102.03 6.52621 101.281 6.15177C100.532 5.77733 99.6658 5.71335 98.87 5.97369V5.97369Z" fill="url(#paint0_linear_149_47)"></path>
<defs>
<linearGradient id="paint0_linear_149_47" x1="52.84" y1="10.6437" x2="105.58" y2="10.6437" gradientUnits="userSpaceOnUse">
<stop stop-color="#04BF9B"></stop>
<stop offset="0.38" stop-color="#04BF9B"></stop>
<stop offset="0.95" stop-color="#00557D"></stop>
</linearGradient>
</defs>
</svg>