<svg width="390" height="5072" viewBox="0 0 390 5072" fill="none" xmlns="http://www.w3.org/2000/svg">
<path d="M301.283 31.0975C299.587 26.889 297.89 22.6914 296.194 18.4612C296.281 18.4177 296.357 18.3851 296.444 18.3416C296.759 18.2111 297.085 18.0806 297.401 17.9284C297.89 17.7 298.108 17.3411 298.053 16.8627C298.01 16.3189 297.597 15.9601 297.042 16.0036C296.868 16.0144 296.683 16.0797 296.509 16.1341C296.096 16.2972 295.683 16.4603 295.259 16.6343C291.398 18.2328 287.548 19.8423 283.688 21.4408C283.177 21.6583 282.666 21.8758 282.155 22.1042C282.133 22.1151 282.111 22.1259 282.089 22.1368C281.567 22.3761 281.339 22.8219 281.491 23.3004C281.654 23.8115 282.198 24.1377 282.731 24.029C282.894 23.9964 283.057 23.9202 283.22 23.8659C283.503 23.7571 283.775 23.6484 284.08 23.5179C284.134 23.6375 284.188 23.7354 284.232 23.8441C285.504 27.0086 286.776 30.184 288.038 33.3594C288.342 34.1097 288.636 34.8709 288.94 35.6213C288.973 35.7083 288.995 35.7953 289.038 35.8932C288.93 35.991 288.832 36.0671 288.734 36.1541C284.34 39.7645 281.567 44.3318 280.458 49.8778C279.61 54.1189 279.947 58.2839 281.404 62.3401C283.166 67.2337 286.265 71.0833 290.604 73.9433C294.66 76.6184 299.13 77.9669 303.98 77.8255C310.592 77.6297 316.159 75.0525 320.672 70.2133C323.489 67.1902 325.359 63.6451 326.316 59.6215C327.11 56.2938 327.078 52.9553 326.36 49.606C324.935 42.9616 320.651 37.1981 314.702 33.9357C310.646 31.7173 306.296 30.8039 301.685 31.0866C301.588 31.0866 301.49 31.1083 301.392 31.1083C301.37 31.1083 301.337 31.1083 301.283 31.0866V31.0975Z" fill="white"/>
<path d="M282.764 46.6807C282.721 46.8003 282.688 46.9199 282.655 47.0286C281.394 50.8239 281.176 54.6735 282.003 58.5883C283.558 65.8525 288.723 71.9532 295.792 74.6283C300.142 76.2704 304.579 76.4879 309.091 75.346C315.518 73.704 321.086 69.0062 323.75 62.5793C325.316 58.8276 325.784 54.9236 325.197 50.9C325.197 50.8456 325.175 50.7913 325.175 50.7369C325.164 50.552 325.066 50.4324 324.892 50.378C324.631 50.291 324.392 50.1932 324.142 50.117C322.195 49.4863 320.216 49.4537 318.226 49.8887C317.269 50.0953 316.345 50.378 315.442 50.726C313.952 51.3024 312.528 51.9983 311.092 52.6943C309.505 53.4881 307.928 54.2929 306.275 54.9345C304.274 55.7066 302.23 56.3264 300.098 56.62C298.315 56.8701 296.531 56.881 294.748 56.5765C292.399 56.1742 290.268 55.2498 288.321 53.8579C286.733 52.716 285.374 51.3676 284.308 49.7364C283.732 48.8447 283.275 47.8986 282.949 46.8982C282.927 46.8329 282.895 46.7677 282.862 46.7024C282.829 46.7024 282.808 46.6915 282.764 46.6915V46.6807Z" fill="#FAD940"/>
<path d="M287.896 48.0835C288.473 49.5081 290.104 50.2041 291.518 49.6386C292.964 49.0622 293.66 47.4419 293.073 45.9956C292.496 44.5493 290.854 43.8642 289.408 44.4623C287.962 45.0495 287.309 46.6372 287.885 48.0835H287.896Z" fill="#FAD940"/>
<path d="M296.216 50.6063C295.193 51.0305 294.737 52.1614 295.161 53.1945C295.585 54.2276 296.738 54.7169 297.749 54.2928C298.771 53.8687 299.25 52.6943 298.826 51.6612C298.401 50.639 297.26 50.1822 296.216 50.6063Z" fill="#FAD940"/>
<path d="M288.07 64.0365C288.701 65.5698 289.604 66.9292 290.724 68.1471C291.007 68.4625 291.355 68.7452 291.681 69.0062C291.974 69.2454 292.333 69.3977 292.703 69.4956C293.062 69.5826 293.421 69.5934 293.78 69.4956C294.541 69.2889 295.03 68.7343 295.139 67.9622C295.204 67.3968 295.095 66.8639 294.802 66.3854C294.573 66.0266 294.323 65.6786 294.041 65.3524C293.703 64.9609 293.334 64.6129 292.964 64.2431C291.931 63.2101 290.974 62.1117 290.191 60.872C289.919 60.4479 289.669 60.0238 289.397 59.6106C289.245 59.3931 289.093 59.1647 288.908 58.9799C288.364 58.447 287.625 58.6319 287.353 59.3278C287.244 59.6323 287.222 59.9477 287.222 60.2631C287.233 61.1765 287.418 62.0682 287.69 62.9491C287.799 63.3079 287.94 63.6668 288.07 64.0257V64.0365Z" fill="white"/>
<path d="M295.16 63.6777C295.301 63.9278 295.454 64.254 295.671 64.5477C296.084 65.0805 296.628 65.3524 297.313 65.2654C297.911 65.1893 298.346 64.776 298.466 64.1888C298.553 63.7864 298.488 63.3949 298.292 63.047C298.183 62.8621 298.064 62.6663 297.9 62.5359C297.379 62.1117 296.835 61.7094 296.291 61.307C296.182 61.22 296.03 61.1657 295.889 61.1222C295.204 60.9155 294.692 61.3179 294.725 62.0248C294.725 62.1552 294.747 62.2857 294.779 62.4162C294.899 62.8186 295.019 63.2101 295.16 63.6777Z" fill="white"/>
<path d="M297.727 68.9519C297.042 69.2455 296.574 69.9849 296.629 70.6918C296.672 71.2138 296.912 71.6052 297.39 71.8227C297.858 72.0185 298.303 71.9206 298.695 71.627C299.293 71.1703 299.532 70.1263 299.195 69.463C298.923 68.8975 298.336 68.7017 297.727 68.9627V68.9519Z" fill="white"/>
<path d="M340.406 239.263L319.7 229.264L318 206.328L337.028 193.393L357.734 203.392L359.434 226.328L340.428 239.263H340.406ZM321.09 228.314L340.295 237.586L357.911 225.599L356.343 204.342L337.139 195.07L319.523 207.057L321.09 228.314Z" fill="#9DD3EB"/>
<path d="M379.963 202.443L369.831 196.549V184.828L380.029 179L390.161 184.894V196.615L379.963 202.443ZM371.287 195.71L379.963 200.743L388.66 195.755V185.733L380.007 180.7L371.31 185.689V195.71H371.287Z" fill="white"/>
<path d="M357.402 204.496L356.63 203.238L369.963 195.07L370.735 196.329L357.402 204.496Z" fill="white"/>
<path d="M36.1638 206.54L16.0005 194.905V171.635L36.1638 160L56.3272 171.635V194.905L36.1638 206.54ZM18.2316 193.613L36.1638 203.955L54.0752 193.613V172.928L36.1638 162.586L18.2316 172.928V193.613Z" fill="white"/>
<path d="M74.301 206.54L54.1377 194.905V171.635L74.301 160L94.4644 171.635V194.905L74.301 206.54ZM56.3897 193.613L74.301 203.955L92.2124 193.613V172.928L74.301 162.586L56.3897 172.928V193.613Z" fill="#4091CC"/>
<path d="M93.2558 239.506L73.1133 227.871V204.601L93.2558 192.966L113.419 204.601V227.871L93.2558 239.506ZM75.3444 226.579L93.2558 236.921L111.167 226.579V205.894L93.2558 195.552L75.3444 205.894V226.579Z" fill="white"/>
<path d="M319.807 662.354C319.788 662.012 319.963 661.681 320.275 661.514L351.253 644.975C351.69 644.737 352.235 644.921 352.473 645.337C352.711 645.774 352.527 646.32 352.111 646.557L321.134 663.095C320.697 663.334 320.151 663.15 319.912 662.713C319.841 662.588 319.813 662.461 319.806 662.333L319.807 662.354Z" fill="white"/>
<path d="M324.292 669.457C324.273 669.115 324.448 668.784 324.781 668.615L355.76 652.098C356.197 651.86 356.742 652.023 356.98 652.459C357.219 652.896 357.034 653.442 356.597 653.681L325.62 670.219C325.183 670.458 324.637 670.274 324.4 669.858C324.35 669.732 324.3 669.606 324.293 669.478L324.292 669.457Z" fill="white"/>
<path d="M332.213 674.742C332.194 674.4 332.368 674.069 332.681 673.902L355.769 661.592C356.206 661.353 356.752 661.538 356.989 661.953C357.228 662.39 357.043 662.936 356.606 663.174L333.539 675.483C333.103 675.722 332.557 675.538 332.319 675.122C332.248 674.997 332.22 674.87 332.213 674.742Z" fill="white"/>
<path d="M374.252 764.344C374.233 764.002 374.407 763.671 374.72 763.504L405.697 746.965C406.134 746.727 406.68 746.911 406.919 747.348C407.157 747.785 406.973 748.331 406.557 748.568L375.58 765.106C375.143 765.345 374.597 765.161 374.358 764.724C374.287 764.599 374.259 764.472 374.252 764.344Z" fill="white"/>
<path d="M370.849 756.666C370.83 756.324 371.005 755.993 371.317 755.826L402.295 739.287C402.732 739.049 403.277 739.233 403.515 739.649C403.753 740.085 403.569 740.631 403.153 740.869L372.176 757.407C371.739 757.646 371.193 757.462 370.956 757.046C370.884 756.921 370.856 756.794 370.849 756.666Z" fill="white"/>
<path d="M351.776 720.92C351.757 720.578 351.931 720.247 352.265 720.078L383.221 703.541C383.658 703.302 384.204 703.486 384.443 703.923C384.681 704.36 384.497 704.906 384.081 705.143L353.104 721.682C352.667 721.921 352.121 721.736 351.882 721.299C351.811 721.175 351.783 721.048 351.776 720.92Z" fill="white"/>
<path d="M347.053 713.401C347.035 713.059 347.209 712.728 347.521 712.561L378.499 696.022C378.936 695.784 379.482 695.968 379.72 696.405C379.959 696.842 379.775 697.388 379.359 697.625L348.381 714.164C347.944 714.402 347.398 714.218 347.16 713.781C347.089 713.656 347.082 713.528 347.075 713.4L347.053 713.401Z" fill="white"/>
<path d="M343.435 705.306C343.416 704.964 343.591 704.633 343.903 704.466L374.881 687.927C375.318 687.689 375.864 687.873 376.102 688.31C376.341 688.747 376.156 689.293 375.741 689.53L344.783 706.046C344.325 706.286 343.801 706.1 343.563 705.685C343.492 705.56 343.464 705.433 343.457 705.305L343.435 705.306Z" fill="white"/>
<path d="M341.586 696.257C341.567 695.915 341.742 695.584 342.054 695.416L368.889 681.099C369.326 680.861 369.872 681.045 370.109 681.461C370.348 681.897 370.164 682.443 369.748 682.681L342.934 696.997C342.497 697.235 341.951 697.051 341.714 696.635C341.643 696.511 341.614 696.384 341.607 696.255L341.586 696.257Z" fill="white"/>
<path d="M358.268 727.506C358.249 727.164 358.402 726.834 358.736 726.666L385.571 712.348C386.008 712.11 386.554 712.294 386.792 712.71C387.03 713.147 386.846 713.693 386.43 713.93L359.595 728.247C359.158 728.485 358.591 728.302 358.375 727.886C358.304 727.761 358.296 727.633 358.289 727.505L358.268 727.506Z" fill="white"/>
<path d="M370.86 747.15C370.841 746.808 371.016 746.477 371.35 746.308L394.417 733.999C394.853 733.761 395.399 733.945 395.637 734.361C395.875 734.797 395.691 735.343 395.254 735.582L372.187 747.891C371.75 748.129 371.204 747.945 370.967 747.53C370.896 747.405 370.867 747.278 370.86 747.15Z" fill="white"/>
<path d="M356.562 639.82L349.649 643.502C355.888 655.202 351.555 664.871 346.535 676.056C341.42 687.461 335.618 700.405 343.672 715.498C351.725 730.57 365.7 732.949 378.033 735.076C390.127 737.13 400.555 738.912 406.793 750.612L413.705 746.93C405.651 731.837 391.676 729.458 379.344 727.352C367.251 725.298 356.823 723.516 350.584 711.816C344.346 700.116 348.68 690.468 353.698 679.261C358.814 667.856 364.616 654.913 356.562 639.82Z" fill="#FAD940"/>
<path d="M378.037 735.053C376.414 734.778 374.749 734.505 373.101 734.167C368.948 743.955 365.603 754.812 371.319 767.141C371.804 768.165 373.029 768.611 374.049 768.062L377.505 766.222C378.4 765.744 378.81 764.628 378.396 763.729C373.794 753.717 376.855 745.105 381.043 735.551C380.047 735.37 379.053 735.211 378.057 735.03L378.037 735.053Z" fill="#4091CC"/>
<path d="M380.894 735.559C378.362 735.12 375.745 734.686 373.103 734.189C368.719 744.46 365.259 755.945 372.26 769.039L379.172 765.358C373.463 754.7 376.589 745.719 380.989 735.725C380.943 735.664 380.94 735.621 380.894 735.559Z" fill="#4091CC"/>
<path d="M349.452 681.507C361.546 683.562 371.974 685.345 378.213 697.045C383.947 707.766 380.779 716.77 376.361 726.808C377.357 726.989 378.351 727.148 379.347 727.329C380.97 727.604 382.613 727.878 384.282 728.214C388.666 717.943 392.105 706.459 385.125 693.363C377.071 678.291 363.094 675.89 350.762 673.784C338.689 671.707 328.24 669.926 322.002 658.247L315.09 661.928C323.145 677.022 337.099 679.403 349.452 681.507Z" fill="#4091CC"/>
<path d="M24.2392 44.5521C24.0681 44.5521 23.9076 44.4558 23.8327 44.2953L16.4287 28.3747C16.3217 28.15 16.4287 27.8825 16.6427 27.7755C16.8674 27.6685 17.1349 27.7755 17.2418 27.9895L24.6458 43.9102C24.7528 44.1348 24.6458 44.4023 24.4211 44.5093C24.3569 44.5414 24.2927 44.5521 24.2285 44.5521H24.2392Z" fill="white"/>
<path d="M27.9085 42.5087C27.7373 42.5087 27.5768 42.4124 27.5019 42.2412L20.1087 26.3205C20.0017 26.0958 20.098 25.8283 20.3226 25.7213C20.5473 25.6143 20.8148 25.7213 20.9218 25.946L28.3258 41.8667C28.4328 42.0914 28.3258 42.3589 28.1118 42.4659C28.0476 42.4873 27.9834 42.5087 27.9192 42.5087H27.9085Z" fill="white"/>
<path d="M30.7654 38.6996C30.5942 38.6996 30.4337 38.6033 30.3588 38.4428L24.8486 26.5772C24.7416 26.3525 24.8486 26.085 25.0626 25.9781C25.2873 25.8711 25.5548 25.978 25.6618 26.2027L31.172 38.0576C31.2789 38.2823 31.172 38.5498 30.958 38.6568C30.8938 38.6889 30.8296 38.6996 30.7654 38.6996Z" fill="white"/>
<path d="M76.6556 20.179C76.4844 20.179 76.3239 20.0827 76.249 19.9222L68.845 4.00149C68.738 3.7768 68.845 3.50932 69.0697 3.40233C69.2944 3.29533 69.5619 3.40233 69.6688 3.61631L77.0728 19.537C77.1798 19.7617 77.0728 20.0292 76.8481 20.1362C76.7839 20.1683 76.7197 20.179 76.6556 20.179Z" fill="white"/>
<path d="M72.7285 21.6661C72.5573 21.6661 72.3968 21.5698 72.3219 21.4094L64.918 5.48867C64.811 5.26399 64.918 4.9965 65.1319 4.88951C65.3566 4.78251 65.6241 4.88951 65.7311 5.1035L73.1351 21.0242C73.2421 21.2489 73.1351 21.5163 72.9211 21.6233C72.8569 21.6554 72.7927 21.6661 72.7285 21.6661Z" fill="white"/>
<path d="M54.3577 30.2042C54.1865 30.2042 54.026 30.1079 53.9511 29.9367L46.5471 14.0268C46.4401 13.8021 46.5471 13.5346 46.7718 13.4276C46.9965 13.3206 47.264 13.4276 47.371 13.6416L54.775 29.5623C54.882 29.7869 54.775 30.0544 54.5503 30.1614C54.4861 30.1935 54.4219 30.2042 54.3577 30.2042Z" fill="white"/>
<path d="M50.4739 32.3549C50.3027 32.3549 50.1422 32.2586 50.0673 32.0981L42.6634 16.1774C42.5564 15.9527 42.6634 15.6852 42.888 15.5782C43.1127 15.4712 43.3802 15.5782 43.4872 15.7922L50.8912 31.7129C50.9982 31.9376 50.8912 32.2051 50.6665 32.3121C50.6023 32.3442 50.5381 32.3442 50.4739 32.3442V32.3549Z" fill="white"/>
<path d="M46.3328 33.9384C46.1616 33.9384 46.0011 33.8421 45.9262 33.6816L38.5222 17.7609C38.4152 17.5362 38.5222 17.2687 38.7469 17.1617C38.9716 17.0547 39.2391 17.1617 39.3461 17.3757L46.7394 33.2857C46.8464 33.5211 46.7394 33.7779 46.5254 33.8849C46.4612 33.917 46.397 33.9277 46.3328 33.9277V33.9384Z" fill="white"/>
<path d="M41.7642 34.6124C41.593 34.6124 41.4325 34.5161 41.3576 34.3556L34.9487 20.5641C34.8417 20.3394 34.9487 20.0719 35.1627 19.9649C35.3874 19.858 35.6549 19.9649 35.7619 20.1789L42.1708 33.9597C42.2778 34.1844 42.1708 34.4519 41.9568 34.5589C41.8926 34.591 41.8284 34.6017 41.7642 34.6017V34.6124Z" fill="white"/>
<path d="M57.8243 27.1443C57.6531 27.1443 57.4926 27.0587 57.4177 26.8875L51.0088 13.096C50.9018 12.8713 51.0088 12.6038 51.2228 12.4968C51.4474 12.3898 51.7149 12.4968 51.8219 12.7108L58.2309 26.5023C58.3379 26.727 58.2309 27.0052 58.0169 27.1015C57.9527 27.1336 57.8885 27.1336 57.8243 27.1336V27.1443Z" fill="white"/>
<path d="M67.9783 21.3987C67.8071 21.3987 67.6466 21.3024 67.5717 21.1312L62.0615 9.27631C61.9545 9.05163 62.0615 8.78414 62.2755 8.67715C62.5002 8.57015 62.7677 8.67715 62.8747 8.90183L68.3848 20.7567C68.4918 20.9814 68.3848 21.2489 68.1709 21.3559C68.1067 21.388 68.0425 21.3987 67.9783 21.3987Z" fill="white"/>
<path d="M13.9995 25.5822L15.6472 29.1344C21.6603 26.3419 26.368 28.7706 31.814 31.5846C37.367 34.452 43.6689 37.7046 51.426 34.0989C59.1723 30.4932 60.7452 23.5814 62.1468 17.4828C63.5056 11.5018 64.6825 6.34473 70.6956 3.55219L69.0479 0C61.2908 3.60569 59.718 10.5175 58.3271 16.6161C56.9683 22.5971 55.7913 27.7542 49.7783 30.5467C43.7652 33.3393 39.0682 30.9105 33.6115 28.0966C28.0585 25.2291 21.7566 21.9765 13.9995 25.5822Z" fill="#FAD940"/>
<path d="M62.1364 17.4827C61.9545 18.2852 61.7726 19.109 61.5586 19.9222C66.3305 22.2653 71.6588 24.234 77.9715 21.7197C78.4957 21.5057 78.7525 20.9065 78.5064 20.3822L77.6826 18.6061C77.4686 18.1461 76.9229 17.9107 76.4628 18.0926C71.3378 20.1147 67.1223 18.3493 62.468 15.9955C62.3503 16.4877 62.2434 16.9798 62.1257 17.472L62.1364 17.4827Z" fill="#4091CC"/>
<path d="M62.4676 16.0704C62.1787 17.3222 61.8898 18.6168 61.5688 19.9222C66.5762 22.3937 72.2147 24.4373 78.9447 21.3024L77.297 17.7502C71.8189 20.3073 67.4214 18.4991 62.5532 16.0276C62.5211 16.049 62.4997 16.049 62.4676 16.0704Z" fill="#4091CC"/>
<path d="M34.617 30.2791C35.9759 24.2982 37.1528 19.1411 43.1658 16.3486C48.676 13.7807 53.0842 15.6103 57.9738 18.0926C58.0915 17.6004 58.1985 17.1082 58.3162 16.616C58.4981 15.8136 58.68 15.0004 58.894 14.1766C53.8866 11.705 48.2481 9.67214 41.5181 12.7964C33.7718 16.4021 32.1883 23.3139 30.7973 29.4125C29.4278 35.3828 28.2509 40.5506 22.2485 43.3431L23.8962 46.8953C31.6533 43.2896 33.2261 36.3885 34.617 30.2791Z" fill="#4091CC"/>
<path d="M39.2606 617.306L13.518 614.588L3 590.966L18.2025 570.041L43.9451 572.737L54.4632 596.38L39.2606 617.306ZM14.7112 612.975L38.4431 615.472L52.4744 596.159L42.774 574.35L19.0422 571.853L4.9887 591.165L14.6891 612.975H14.7112Z" fill="white"/>
<path d="M64.3188 673.851L51.1712 672.481L45.8018 660.416L53.5577 649.721L66.7052 651.091L72.0747 663.178L64.3188 673.873V673.851ZM52.3424 670.846L63.4791 672.017L70.0639 662.957L65.512 652.726L54.3753 651.555L47.7905 660.615L52.3424 670.846Z" fill="#9DD3EB"/>
<path d="M68.3178 568.185L56.0983 563.169L54.3306 550.065L64.7823 542L77.0018 547.016L78.7695 560.119L68.3178 568.207V568.185ZM57.6893 561.931L68.0526 566.174L76.9134 559.324L75.4108 548.231L65.0475 543.989L56.1867 550.839L57.6893 561.953V561.931Z" fill="white"/>
<path d="M53.4027 651.069L38.1118 616.709L39.7028 616.002L55.0158 650.362L53.4027 651.069Z" fill="#9DD3EB"/>
<path d="M43.9011 574.217L42.8184 572.847L56.4962 562.042L57.5789 563.412L43.9011 574.217Z" fill="white"/>
<path d="M355.26 1084.31L329.518 1081.59L319 1057.97L334.202 1037.04L359.945 1039.74L370.463 1063.38L355.26 1084.31ZM330.711 1079.97L354.443 1082.47L368.474 1063.16L358.774 1041.35L335.042 1038.85L320.988 1058.17L330.689 1079.97H330.711Z" fill="white"/>
<path d="M380.318 1140.85L367.171 1139.48L361.801 1127.42L369.557 1116.72L382.705 1118.09L388.074 1130.18L380.318 1140.87V1140.85ZM368.342 1137.85L379.479 1139.02L386.063 1129.96L381.512 1119.73L370.375 1118.56L363.79 1127.61L368.342 1137.85Z" fill="#9DD3EB"/>
<path d="M384.317 1035.18L372.098 1030.17L370.33 1017.07L380.782 1009L393.001 1014.02L394.769 1027.12L384.317 1035.21V1035.18ZM373.689 1028.93L384.052 1033.17L392.913 1026.32L391.41 1015.23L381.047 1010.99L372.186 1017.84L373.689 1028.95V1028.93Z" fill="white"/>
<path d="M369.402 1118.07L354.111 1083.71L355.702 1083L371.015 1117.36L369.402 1118.07Z" fill="#9DD3EB"/>
<path d="M359.901 1041.22L358.818 1039.85L372.496 1029.04L373.578 1030.41L359.901 1041.22Z" fill="white"/>
<path d="M43.2602 876.305L17.5175 873.588L6.99951 849.966L22.202 829.041L47.9446 831.736L58.4627 855.38L43.2602 876.305ZM18.7107 871.974L42.4426 874.471L56.474 855.159L46.7735 833.35L23.0417 830.853L8.98821 850.165L18.6887 871.974H18.7107Z" fill="white"/>
<path d="M68.3183 932.851L55.1708 931.481L49.8013 919.416L57.5572 908.721L70.7047 910.091L76.0742 922.178L68.3183 932.873V932.851ZM56.3419 929.846L67.4786 931.017L74.0634 921.957L69.5115 911.726L58.3748 910.555L51.79 919.615L56.3419 929.846Z" fill="#9DD3EB"/>
<path d="M72.3173 827.185L60.0978 822.169L58.3301 809.065L68.7818 801L81.0013 806.016L82.769 819.119L72.3173 827.207V827.185ZM61.6888 820.931L72.0521 825.174L80.9129 818.324L79.4103 807.231L69.047 802.989L60.1862 809.839L61.6888 820.953V820.931Z" fill="white"/>
<path d="M57.4022 910.069L42.1113 875.709L43.7023 875.002L59.0153 909.362L57.4022 910.069Z" fill="#9DD3EB"/>
<path d="M47.9006 833.217L46.8179 831.847L60.4957 821.042L61.5784 822.412L47.9006 833.217Z" fill="white"/>
<path d="M69.0474 2729.55L53.034 2749.89L27.4402 2746.21L17.8294 2722.2L33.8242 2701.85L59.4366 2705.54L69.0474 2729.55ZM52.3045 2748.02L67.0598 2729.27L58.1902 2707.1L34.5654 2703.7L19.8102 2722.45L28.6679 2744.63L52.2927 2748.04L52.3045 2748.02Z" fill="white"/>
<path d="M130.25 2738.47L122.087 2748.86L109.016 2746.98L104.097 2734.72L112.26 2724.32L125.35 2726.22L130.269 2738.48L130.25 2738.47ZM121.327 2747L128.251 2738.2L124.091 2727.8L113.008 2726.2L106.085 2735.01L110.244 2745.4L121.327 2747Z" fill="#9DD3EB"/>
<path d="M42.9553 2678.79L32.2009 2686.46L20.1699 2680.98L18.9119 2667.84L29.6663 2660.17L41.6974 2665.65L42.974 2678.81L42.9553 2678.79ZM32.0012 2684.46L41.1123 2677.95L40.0354 2666.8L29.8473 2662.16L20.7362 2668.67L21.8132 2679.82L32.0199 2684.47L32.0012 2684.46Z" fill="white"/>
<path d="M105.155 2735.57L67.9304 2730.21L68.1795 2728.48L105.416 2733.83L105.155 2735.57Z" fill="#9DD3EB"/>
<path d="M35.0536 2702.67L33.3174 2702.86L31.4591 2685.53L33.1953 2685.34L35.0536 2702.67Z" fill="white"/>
<path d="M313.943 1020.7L315.974 1003.11L317.849 986.815L327.692 970.297L321.242 966.458L314.813 962.619L304.969 979.137L291.51 988.534L277.001 998.668C274.211 1000.61 274.367 1004.78 277.291 1006.5L292.112 1015.34L306.934 1024.18C309.858 1025.92 313.585 1024.07 313.965 1020.7H313.943Z" fill="white"/>
<mask id="mask0_222_44379" style="mask-type:luminance" maskUnits="userSpaceOnUse" x="275" y="962" width="53" height="63">
<path d="M313.943 1020.7L315.974 1003.11L317.849 986.815L327.692 970.297L321.242 966.458L314.813 962.619L304.969 979.137L291.51 988.534L277.001 998.668C274.211 1000.61 274.367 1004.78 277.291 1006.5L292.112 1015.34L306.934 1024.18C309.858 1025.92 313.585 1024.07 313.965 1020.7H313.943Z" fill="white"/>
</mask>
<g mask="url(#mask0_222_44379)">
<path d="M271.488 986.458C276.354 986.458 281.287 986.436 286.042 987.529C290.796 988.623 295.416 990.944 298.385 994.828C300.528 997.618 301.733 1001.12 304.233 1003.6C309.791 1009.14 319.122 1007.64 326.287 1010.83L311.555 1035.05L258.988 1005.77L271.488 986.458Z" fill="#9DD3EB"/>
</g>
<path d="M310.974 983.735C310.439 984.65 309.256 984.962 308.341 984.404C307.425 983.869 307.113 982.686 307.671 981.748C308.229 980.833 309.39 980.543 310.327 981.078C311.242 981.636 311.532 982.82 310.997 983.735H310.974Z" fill="#9DD3EB"/>
<path d="M311.979 991.458C311.666 991.949 311.019 992.127 310.506 991.815C309.992 991.525 309.836 990.855 310.126 990.342C310.439 989.828 311.086 989.672 311.599 989.962C312.113 990.252 312.269 990.922 311.979 991.435V991.458Z" fill="#9DD3EB"/>
<path d="M306.421 993.958C305.974 994.694 305.037 994.918 304.322 994.493C303.586 994.069 303.362 993.11 303.787 992.395C304.233 991.659 305.171 991.435 305.885 991.86C306.621 992.284 306.867 993.243 306.421 993.958Z" fill="#9DD3EB"/>
<path d="M327.045 971.012L314.567 963.579C313.92 963.199 313.697 962.329 314.076 961.681C314.478 961.012 315.326 960.811 315.974 961.19L328.451 968.623C329.098 969.003 329.322 969.873 328.92 970.52C328.518 971.168 327.692 971.391 327.023 970.989L327.045 971.012Z" fill="#9DD3EB"/>
<path d="M315.684 981.034C315.148 980.342 315.059 979.337 315.55 978.534C316.175 977.485 317.559 977.128 318.608 977.775C319.68 978.4 320.014 979.784 319.389 980.833C318.764 981.882 317.38 982.239 316.331 981.614C316.086 981.458 315.863 981.257 315.706 981.034H315.684ZM318.764 978.712C318.653 978.556 318.497 978.4 318.296 978.288C317.537 977.819 316.532 978.087 316.064 978.846C315.595 979.627 315.863 980.61 316.622 981.078C317.403 981.547 318.407 981.279 318.854 980.498C319.188 979.918 319.144 979.203 318.742 978.69L318.764 978.712Z" fill="#9DD3EB"/>
<path d="M327.967 572.501C320.026 570.293 315.352 562.071 317.538 554.109L345.515 452.823L374.315 460.786L346.337 562.05C344.13 570.012 335.908 574.664 327.945 572.479L327.967 572.501Z" fill="white"/>
<mask id="mask1_222_44379" style="mask-type:luminance" maskUnits="userSpaceOnUse" x="317" y="452" width="58" height="122">
<path d="M327.967 572.501C320.026 570.293 315.352 562.071 317.538 554.109L345.515 452.823L374.315 460.786L346.337 562.05C344.13 570.012 335.908 574.664 327.945 572.479L327.967 572.501Z" fill="white"/>
</mask>
<g mask="url(#mask1_222_44379)">
<path d="M327.924 483.981C330.824 482.488 333.831 481.125 337.055 480.541C340.279 479.978 343.741 480.238 346.532 481.926C349.042 483.419 350.817 485.864 353.218 487.551C359.039 491.706 366.937 490.537 373.969 489.196L347.138 586.305L307.195 575.249L327.924 483.981Z" fill="#4091CC"/>
</g>
<path d="M374.574 462.127L344.627 453.84C343.048 453.407 342.117 451.763 342.55 450.183C342.983 448.604 344.627 447.673 346.207 448.106L376.153 456.372C377.733 456.804 378.663 458.449 378.23 460.028C377.798 461.608 376.153 462.538 374.574 462.084V462.127Z" fill="#4091CC"/>
<path d="M354.668 506.917C354.171 508.67 352.353 509.708 350.579 509.232C348.804 508.756 347.766 506.917 348.242 505.143C348.74 503.369 350.579 502.33 352.331 502.828C354.106 503.304 355.144 505.143 354.647 506.917H354.668Z" fill="white"/>
<path d="M342.184 512.11C341.902 513.149 340.82 513.733 339.803 513.452C338.786 513.17 338.181 512.11 338.483 511.093C338.765 510.076 339.803 509.47 340.842 509.752C341.881 510.033 342.486 511.093 342.205 512.11H342.184Z" fill="white"/>
<path d="M343.979 533.488C343.503 533.488 343.027 533.423 342.572 533.293C341.209 532.925 340.084 532.038 339.392 530.827C338.699 529.593 338.504 528.165 338.894 526.802C339.673 523.989 342.572 522.345 345.385 523.124C348.198 523.902 349.842 526.802 349.064 529.615C348.696 530.978 347.809 532.125 346.575 532.796C345.775 533.25 344.887 533.488 343.979 533.488ZM343.979 524.227C342.248 524.227 340.625 525.395 340.149 527.17C339.868 528.187 339.997 529.269 340.517 530.177C341.058 531.108 341.901 531.757 342.918 532.06C343.957 532.341 345.017 532.211 345.948 531.692C346.878 531.173 347.549 530.307 347.83 529.29C348.414 527.17 347.159 524.984 345.039 524.4C344.693 524.292 344.325 524.249 343.979 524.249V524.227Z" fill="white"/>
<path d="M316.478 2047.1C316.136 2047.1 315.815 2046.91 315.665 2046.59L300.857 2014.75C300.643 2014.3 300.857 2013.77 301.285 2013.55C301.735 2013.34 302.27 2013.55 302.484 2013.98L317.292 2045.82C317.506 2046.27 317.292 2046.8 316.842 2047.02C316.714 2047.08 316.585 2047.1 316.457 2047.1H316.478Z" fill="white"/>
<path d="M323.817 2043.02C323.475 2043.02 323.154 2042.82 323.004 2042.48L308.218 2010.64C308.004 2010.19 308.196 2009.66 308.646 2009.44C309.095 2009.23 309.63 2009.44 309.844 2009.89L324.652 2041.73C324.866 2042.18 324.652 2042.72 324.224 2042.93C324.096 2042.97 323.967 2043.02 323.839 2043.02H323.817Z" fill="white"/>
<path d="M329.531 2035.4C329.189 2035.4 328.868 2035.21 328.718 2034.89L317.698 2011.15C317.484 2010.71 317.698 2010.17 318.126 2009.96C318.575 2009.74 319.11 2009.96 319.324 2010.41L330.344 2034.12C330.558 2034.56 330.344 2035.1 329.916 2035.31C329.788 2035.38 329.66 2035.4 329.531 2035.4Z" fill="white"/>
<path d="M376.716 2018.41C376.374 2018.41 376.053 2018.22 375.903 2017.87L361.095 1986.05C360.881 1985.6 361.095 1985.07 361.544 1984.86C361.994 1984.64 362.528 1984.86 362.742 1985.28L377.55 2017.12C377.764 2017.57 377.55 2018.11 377.101 2018.32C376.973 2018.39 376.844 2018.41 376.716 2018.41Z" fill="white"/>
<path d="M368.949 2022.71C368.606 2022.71 368.285 2022.52 368.136 2022.2L353.328 1990.35C353.114 1989.91 353.328 1989.37 353.777 1989.16C354.226 1988.94 354.761 1989.16 354.975 1989.58L369.783 2021.43C369.997 2021.88 369.783 2022.41 369.334 2022.62C369.206 2022.69 369.077 2022.69 368.949 2022.69V2022.71Z" fill="white"/>
<path d="M360.667 2025.88C360.325 2025.88 360.004 2025.68 359.854 2025.36L345.046 1993.52C344.832 1993.07 345.046 1992.54 345.495 1992.32C345.945 1992.11 346.48 1992.32 346.694 1992.75L361.48 2024.57C361.694 2025.04 361.48 2025.56 361.052 2025.77C360.924 2025.83 360.795 2025.86 360.667 2025.86V2025.88Z" fill="white"/>
<path d="M351.529 2027.23C351.187 2027.23 350.866 2027.03 350.716 2026.71L337.898 1999.13C337.684 1998.68 337.898 1998.14 338.326 1997.93C338.775 1997.72 339.31 1997.93 339.524 1998.36L352.342 2025.92C352.556 2026.37 352.342 2026.9 351.914 2027.12C351.786 2027.18 351.657 2027.2 351.529 2027.2V2027.23Z" fill="white"/>
<path d="M383.649 2012.29C383.307 2012.29 382.986 2012.12 382.836 2011.78L370.018 1984.19C369.804 1983.74 370.018 1983.21 370.446 1982.99C370.895 1982.78 371.43 1982.99 371.644 1983.42L384.462 2011C384.676 2011.45 384.462 2012.01 384.034 2012.2C383.906 2012.27 383.777 2012.27 383.649 2012.27V2012.29Z" fill="white"/>
<path d="M296 2009.16L299.295 2016.27C311.322 2010.68 320.737 2015.54 331.629 2021.17C342.735 2026.9 355.339 2033.41 370.853 2026.2C386.346 2018.99 389.491 2005.16 392.294 1992.97C395.012 1981 397.366 1970.69 409.392 1965.1L406.097 1958C390.583 1965.21 387.437 1979.03 384.655 1991.23C381.937 2003.19 379.584 2013.51 367.557 2019.09C355.531 2024.68 346.137 2019.82 335.224 2014.19C324.118 2008.46 311.514 2001.95 296 2009.16Z" fill="#FAD940"/>
<path d="M337.235 2018.56C339.953 2006.6 342.307 1996.28 354.333 1990.7C365.353 1985.56 374.169 1989.22 383.949 1994.19C384.184 1993.2 384.398 1992.22 384.633 1991.23C384.997 1989.63 385.361 1988 385.789 1986.35C375.774 1981.41 364.497 1977.34 351.037 1983.59C335.545 1990.8 332.378 2004.63 329.596 2016.83C326.857 2028.77 324.503 2039.1 312.498 2044.69L315.793 2051.79C331.308 2044.58 334.453 2030.78 337.235 2018.56Z" fill="#94D2EB"/>
<path d="M40.5474 1670.04C32.5628 1672.09 24.4135 1667.29 22.3404 1659.29L-3.874 1557.54L25.0632 1550.09L51.2668 1651.83C53.3211 1659.83 48.5105 1667.96 40.5178 1670.03L40.5474 1670.04Z" fill="white"/>
<mask id="mask2_222_44379" style="mask-type:luminance" maskUnits="userSpaceOnUse" x="-4" y="1550" width="56" height="121">
<path d="M40.5759 1670.03C32.5898 1672.07 24.438 1667.27 22.3634 1659.28L-3.87043 1557.54L25.0721 1550.1L51.2952 1651.82C53.351 1659.82 48.5405 1667.95 40.5464 1670.02L40.5759 1670.03Z" fill="white"/>
</mask>
<g mask="url(#mask2_222_44379)">
<path d="M-3.59838 1593.32C-1.82852 1590.58 0.0998434 1587.9 2.604 1585.78C5.11893 1583.69 8.24999 1582.19 11.5112 1582.26C14.4314 1582.31 17.1882 1583.54 20.1117 1583.81C27.2286 1584.51 33.4939 1579.56 38.9224 1574.9L64.0539 1672.46L23.9121 1682.77L-3.59838 1593.32Z" fill="#94D2EB"/>
</g>
<path d="M25.9562 1551.12L-4.13691 1558.86C-5.72202 1559.27 -7.34813 1558.31 -7.76002 1556.73C-8.17192 1555.14 -7.2098 1553.51 -5.62469 1553.1L24.4577 1545.35C26.0428 1544.93 27.6689 1545.9 28.0808 1547.48C28.4927 1549.07 27.5306 1550.69 25.9347 1551.09L25.9562 1551.12Z" fill="#94D2EB"/>
<path d="M31.0167 1599.88C31.4586 1601.64 30.4003 1603.45 28.6248 1603.92C26.8493 1604.39 25.0324 1603.31 24.5609 1601.54C24.1083 1599.75 25.1853 1597.94 26.9529 1597.49C28.7284 1597.02 30.5453 1598.1 30.998 1599.89L31.0167 1599.88Z" fill="white"/>
<path d="M22.7803 1610.6C23.0539 1611.64 22.407 1612.69 21.3852 1612.95C20.3633 1613.21 19.3097 1612.59 19.0656 1611.56C18.8027 1610.54 19.4013 1609.5 20.4419 1609.22C21.4825 1608.95 22.5361 1609.57 22.799 1610.59L22.7803 1610.6Z" fill="white"/>
<path d="M34.9892 1628.24C34.5765 1628.48 34.1314 1628.66 33.6728 1628.77C32.3076 1629.13 30.89 1628.92 29.6859 1628.22C28.471 1627.49 27.5906 1626.35 27.249 1624.98C26.5227 1622.15 28.217 1619.28 31.044 1618.55C33.8709 1617.83 36.7415 1619.52 37.4678 1622.35C37.8281 1623.71 37.6304 1625.15 36.8954 1626.34C36.4277 1627.14 35.7771 1627.79 34.9892 1628.24ZM30.3745 1620.21C28.8737 1621.07 28.0489 1622.89 28.5203 1624.67C28.7832 1625.69 29.4349 1626.56 30.338 1627.09C31.2706 1627.63 32.3257 1627.77 33.3583 1627.53C34.399 1627.26 35.2535 1626.61 35.8014 1625.7C36.3493 1624.79 36.4996 1623.7 36.2367 1622.68C35.6866 1620.55 33.5095 1619.28 31.38 1619.83C31.0259 1619.91 30.6854 1620.06 30.3853 1620.23L30.3745 1620.21Z" fill="white"/>
<path d="M342.836 1529.06L320.013 1526.26L311.018 1505.1L324.868 1486.72L347.691 1489.52L356.685 1510.69L342.856 1529.05L342.836 1529.06ZM321.024 1524.92L342.191 1527.51L355.008 1510.49L346.68 1490.87L325.512 1488.27L312.695 1505.29L321.024 1524.92Z" fill="#9DD3EB"/>
<path d="M368.43 1481.47L356.94 1479.15L353.166 1468.05L360.944 1459.25L372.435 1461.57L376.209 1472.66L368.43 1481.47ZM358.049 1477.88L367.883 1479.86L374.511 1472.33L371.284 1462.84L361.471 1460.87L354.843 1468.39L358.07 1477.88L358.049 1477.88Z" fill="white"/>
<path d="M347.733 1490.67L346.596 1489.73L356.589 1477.71L357.726 1478.65L347.733 1490.67Z" fill="white"/>
<path d="M326.617 3074.08L303.794 3071.28L294.8 3050.11L308.649 3031.73L331.472 3034.53L340.466 3055.7L326.638 3074.07L326.617 3074.08ZM304.805 3069.93L325.972 3072.52L338.79 3055.5L330.461 3035.88L309.294 3033.29L296.476 3050.31L304.805 3069.93Z" fill="#9DD3EB"/>
<path d="M352.211 3026.48L340.721 3024.16L336.947 3013.06L344.726 3004.26L356.216 3006.58L359.99 3017.68L352.211 3026.48ZM341.83 3022.9L351.664 3024.87L358.292 3017.35L355.065 3007.86L345.252 3005.88L338.624 3013.4L341.851 3022.89L341.83 3022.9Z" fill="white"/>
<path d="M331.514 3035.69L330.377 3034.74L340.37 3022.72L341.507 3023.66L331.514 3035.69Z" fill="white"/>
<path d="M318.799 3449.24L323.099 3426.65L344.813 3419.07L362.232 3434.1L357.933 3456.69L336.219 3464.27L318.805 3449.26L318.799 3449.24ZM324.376 3427.75L320.391 3448.7L336.528 3462.61L356.656 3455.6L360.641 3434.65L344.503 3420.73L324.376 3427.75Z" fill="#9DD3EB"/>
<path d="M364.603 3477.92L367.673 3466.61L378.995 3463.57L387.264 3471.92L384.193 3483.23L372.871 3486.26L364.603 3477.92ZM368.861 3467.8L366.244 3477.48L373.314 3484.59L382.995 3482L385.617 3472.33L378.547 3465.22L368.866 3467.82L368.861 3467.8Z" fill="white"/>
<path d="M356.781 3456.66L357.796 3455.59L369.136 3466.35L368.121 3467.42L356.781 3456.66Z" fill="white"/>
<path d="M50.5347 1210.05L73.5125 1210.91L84.2607 1231.24L72.0108 1250.72L49.033 1249.85L38.2848 1229.52L50.5145 1210.05L50.5347 1210.05ZM72.6187 1212.34L51.3081 1211.54L39.9722 1229.58L49.9267 1248.43L71.2374 1249.23L82.5732 1231.18L72.6187 1212.34Z" fill="#9DD3EB"/>
<path d="M29.0472 1259.63L40.6921 1260.97L45.3893 1271.71L38.3809 1281.14L26.736 1279.8L22.0388 1269.06L29.0472 1259.63ZM39.6935 1262.32L29.7284 1261.19L23.7591 1269.24L27.7751 1278.43L37.72 1279.57L43.6893 1271.51L39.6732 1262.33L39.6935 1262.32Z" fill="white"/>
<path d="M48.8939 1248.71L50.1059 1249.55L41.1633 1262.38L39.9512 1261.54L48.8939 1248.71Z" fill="white"/>
<path d="M43.1638 2013.54L23.0005 2001.91V1978.64L43.1638 1967L63.3272 1978.64V2001.91L43.1638 2013.54ZM25.2316 2000.61L43.1638 2010.95L61.0752 2000.61V1979.93L43.1638 1969.59L25.2316 1979.93V2000.61Z" fill="white"/>
<path d="M81.301 2013.54L61.1377 2001.91V1978.64L81.301 1967L101.464 1978.64V2001.91L81.301 2013.54ZM63.3897 2000.61L81.301 2010.95L99.2124 2000.61V1979.93L81.301 1969.59L63.3897 1979.93V2000.61Z" fill="#4091CC"/>
<path d="M100.255 2046.51L80.1128 2034.87V2011.6L100.255 1999.97L120.419 2011.6V2034.87L100.255 2046.51ZM82.3439 2033.58L100.255 2043.92L118.167 2033.58V2012.89L100.255 2002.55L82.3439 2012.89V2033.58Z" fill="white"/>
<path d="M327.163 2725.54L307 2713.91V2690.64L327.163 2679L347.327 2690.64V2713.91L327.163 2725.54ZM309.231 2712.61L327.163 2722.95L345.075 2712.61V2691.93L327.163 2681.59L309.231 2691.93V2712.61Z" fill="white"/>
<path d="M365.301 2725.54L345.137 2713.91V2690.64L365.301 2679L385.464 2690.64V2713.91L365.301 2725.54ZM347.389 2712.61L365.301 2722.95L383.212 2712.61V2691.93L365.301 2681.59L347.389 2691.93V2712.61Z" fill="#4091CC"/>
<path d="M384.255 2758.51L364.112 2746.87V2723.6L384.255 2711.97L404.418 2723.6V2746.87L384.255 2758.51ZM366.343 2745.58L384.255 2755.92L402.166 2745.58V2724.89L384.255 2714.55L366.343 2724.89V2745.58Z" fill="white"/>
<path d="M331.682 2283.95L314.991 2303.74L289.536 2299.19L280.741 2274.87L297.414 2255.07L322.887 2259.63L331.682 2283.95ZM314.325 2301.84L329.705 2283.6L321.588 2261.15L298.092 2256.95L282.712 2275.19L290.816 2297.66L314.312 2301.86L314.325 2301.84Z" fill="white"/>
<path d="M392.548 2294.93L384.039 2305.04L371.039 2302.72L366.536 2290.3L375.046 2280.18L388.064 2282.52L392.567 2294.94L392.548 2294.93ZM383.342 2303.16L390.559 2294.59L386.753 2284.06L375.73 2282.09L368.513 2290.65L372.319 2301.19L383.342 2303.16Z" fill="#4091CC"/>
<path d="M307.318 2232.34L296.311 2239.64L284.472 2233.76L283.658 2220.58L294.665 2213.28L306.504 2219.16L307.336 2232.35L307.318 2232.34ZM296.179 2237.63L305.504 2231.43L304.804 2220.25L294.779 2215.28L285.453 2221.48L286.153 2232.65L296.197 2237.64L296.179 2237.63Z" fill="white"/>
<path d="M367.566 2291.18L330.543 2284.57L330.85 2282.85L367.885 2289.45L367.566 2291.18Z" fill="#4091CC"/>
<path d="M298.614 2255.94L296.873 2256.07L295.601 2238.68L297.342 2238.55L298.614 2255.94Z" fill="white"/>
<path d="M362.943 1712.7L364.974 1695.11L366.849 1678.82L376.692 1662.3L370.242 1658.46L363.813 1654.62L353.969 1671.14L340.51 1680.53L326.001 1690.67C323.211 1692.61 323.367 1696.78 326.291 1698.5L341.112 1707.34L355.934 1716.18C358.858 1717.92 362.585 1716.07 362.965 1712.7H362.943Z" fill="white"/>
<mask id="mask3_222_44379" style="mask-type:luminance" maskUnits="userSpaceOnUse" x="324" y="1654" width="53" height="63">
<path d="M362.943 1712.7L364.974 1695.11L366.849 1678.82L376.692 1662.3L370.242 1658.46L363.813 1654.62L353.969 1671.14L340.51 1680.53L326.001 1690.67C323.211 1692.61 323.367 1696.78 326.291 1698.5L341.112 1707.34L355.934 1716.18C358.858 1717.92 362.585 1716.07 362.965 1712.7H362.943Z" fill="white"/>
</mask>
<g mask="url(#mask3_222_44379)">
<path d="M320.488 1678.46C325.354 1678.46 330.287 1678.44 335.042 1679.53C339.796 1680.62 344.416 1682.94 347.385 1686.83C349.528 1689.62 350.733 1693.12 353.233 1695.6C358.791 1701.14 368.122 1699.64 375.287 1702.83L360.555 1727.05L307.988 1697.77L320.488 1678.46Z" fill="#9DD3EB"/>
</g>
<path d="M359.974 1675.73C359.439 1676.65 358.256 1676.96 357.341 1676.4C356.425 1675.87 356.113 1674.69 356.671 1673.75C357.229 1672.83 358.39 1672.54 359.327 1673.08C360.242 1673.64 360.532 1674.82 359.997 1675.73H359.974Z" fill="#9DD3EB"/>
<path d="M360.979 1683.46C360.666 1683.95 360.019 1684.13 359.506 1683.81C358.992 1683.52 358.836 1682.86 359.126 1682.34C359.439 1681.83 360.086 1681.67 360.599 1681.96C361.113 1682.25 361.269 1682.92 360.979 1683.44V1683.46Z" fill="#9DD3EB"/>
<path d="M355.42 1685.96C354.974 1686.69 354.036 1686.92 353.322 1686.49C352.585 1686.07 352.362 1685.11 352.786 1684.4C353.233 1683.66 354.17 1683.44 354.884 1683.86C355.621 1684.28 355.866 1685.24 355.42 1685.96Z" fill="#9DD3EB"/>
<path d="M376.045 1663.01L363.567 1655.58C362.92 1655.2 362.697 1654.33 363.076 1653.68C363.478 1653.01 364.326 1652.81 364.974 1653.19L377.451 1660.62C378.098 1661 378.322 1661.87 377.92 1662.52C377.518 1663.17 376.692 1663.39 376.023 1662.99L376.045 1663.01Z" fill="#9DD3EB"/>
<path d="M364.684 1673.03C364.148 1672.34 364.059 1671.34 364.55 1670.53C365.175 1669.48 366.559 1669.13 367.608 1669.77C368.679 1670.4 369.014 1671.78 368.389 1672.83C367.764 1673.88 366.38 1674.24 365.331 1673.61C365.085 1673.46 364.862 1673.26 364.706 1673.03H364.684ZM367.764 1670.71C367.652 1670.56 367.496 1670.4 367.295 1670.29C366.536 1669.82 365.532 1670.09 365.063 1670.85C364.594 1671.63 364.862 1672.61 365.621 1673.08C366.402 1673.55 367.407 1673.28 367.853 1672.5C368.188 1671.92 368.143 1671.2 367.742 1670.69L367.764 1670.71Z" fill="#9DD3EB"/>
<path d="M40.9426 3292.7L42.9738 3275.11L44.8488 3258.82L54.6924 3242.3L48.2416 3238.46L41.8131 3234.62L31.9695 3251.14L18.5098 3260.53L4.00101 3270.67C1.21087 3272.61 1.36711 3276.78 4.29119 3278.5L19.1125 3287.34L33.9337 3296.18C36.8578 3297.92 40.5854 3296.07 40.9649 3292.7H40.9426Z" fill="white"/>
<mask id="mask4_222_44379" style="mask-type:luminance" maskUnits="userSpaceOnUse" x="2" y="3234" width="53" height="63">
<path d="M40.9426 3292.7L42.9738 3275.11L44.8488 3258.82L54.6924 3242.3L48.2416 3238.46L41.8131 3234.62L31.9695 3251.14L18.5098 3260.53L4.00101 3270.67C1.21087 3272.61 1.36711 3276.78 4.29119 3278.5L19.1125 3287.34L33.9337 3296.18C36.8578 3297.92 40.5854 3296.07 40.9649 3292.7H40.9426Z" fill="white"/>
</mask>
<g mask="url(#mask4_222_44379)">
<path d="M-1.51185 3258.46C3.35417 3258.46 8.28715 3258.44 13.0416 3259.53C17.796 3260.62 22.4165 3262.94 25.3852 3266.83C27.528 3269.62 28.7334 3273.12 31.2333 3275.6C36.7913 3281.14 46.1216 3279.64 53.2867 3282.83L38.5547 3307.05L-14.0117 3277.77L-1.51185 3258.46Z" fill="#9DD3EB"/>
</g>
<path d="M37.9744 3255.73C37.4387 3256.65 36.2557 3256.96 35.3405 3256.4C34.4254 3255.87 34.1129 3254.69 34.6709 3253.75C35.2289 3252.83 36.3896 3252.54 37.3271 3253.08C38.2423 3253.64 38.5325 3254.82 37.9967 3255.73H37.9744Z" fill="#9DD3EB"/>
<path d="M38.9788 3263.46C38.6663 3263.95 38.019 3264.13 37.5056 3263.81C36.9922 3263.52 36.836 3262.86 37.1261 3262.34C37.4386 3261.83 38.0859 3261.67 38.5993 3261.96C39.1127 3262.25 39.269 3262.92 38.9788 3263.44V3263.46Z" fill="#9DD3EB"/>
<path d="M33.42 3265.96C32.9736 3266.69 32.0361 3266.92 31.3218 3266.49C30.5852 3266.07 30.362 3265.11 30.7861 3264.4C31.2325 3263.66 32.17 3263.44 32.8843 3263.86C33.6209 3264.28 33.8664 3265.24 33.42 3265.96Z" fill="#9DD3EB"/>
<path d="M54.0449 3243.01L41.5674 3235.58C40.9201 3235.2 40.6968 3234.33 41.0763 3233.68C41.4781 3233.01 42.3263 3232.81 42.9736 3233.19L55.4512 3240.62C56.0985 3241 56.3217 3241.87 55.9199 3242.52C55.5181 3243.17 54.6922 3243.39 54.0226 3242.99L54.0449 3243.01Z" fill="#9DD3EB"/>
<path d="M42.6836 3253.03C42.1479 3252.34 42.0586 3251.34 42.5497 3250.53C43.1746 3249.48 44.5586 3249.13 45.6077 3249.77C46.6791 3250.4 47.0139 3251.78 46.3889 3252.83C45.7639 3253.88 44.38 3254.24 43.3309 3253.61C43.0854 3253.46 42.8622 3253.26 42.7059 3253.03H42.6836ZM45.7639 3250.71C45.6523 3250.56 45.4961 3250.4 45.2952 3250.29C44.5362 3249.82 43.5318 3250.09 43.063 3250.85C42.5943 3251.63 42.8622 3252.61 43.6211 3253.08C44.4023 3253.55 45.4068 3253.28 45.8532 3252.5C46.188 3251.92 46.1434 3251.2 45.7416 3250.69L45.7639 3250.71Z" fill="#9DD3EB"/>
<path d="M144.283 2106.1C142.587 2101.89 140.89 2097.69 139.194 2093.46C139.281 2093.42 139.357 2093.39 139.444 2093.34C139.759 2093.21 140.085 2093.08 140.401 2092.93C140.89 2092.7 141.108 2092.34 141.053 2091.86C141.01 2091.32 140.597 2090.96 140.042 2091C139.868 2091.01 139.683 2091.08 139.509 2091.13C139.096 2091.3 138.683 2091.46 138.259 2091.63C134.398 2093.23 130.548 2094.84 126.688 2096.44C126.177 2096.66 125.666 2096.88 125.155 2097.1C125.133 2097.12 125.111 2097.13 125.089 2097.14C124.567 2097.38 124.339 2097.82 124.491 2098.3C124.654 2098.81 125.198 2099.14 125.731 2099.03C125.894 2099 126.057 2098.92 126.22 2098.87C126.503 2098.76 126.775 2098.65 127.08 2098.52C127.134 2098.64 127.188 2098.74 127.232 2098.84C128.504 2102.01 129.776 2105.18 131.038 2108.36C131.342 2109.11 131.636 2109.87 131.94 2110.62C131.973 2110.71 131.995 2110.8 132.038 2110.89C131.93 2110.99 131.832 2111.07 131.734 2111.15C127.34 2114.76 124.567 2119.33 123.458 2124.88C122.61 2129.12 122.947 2133.28 124.404 2137.34C126.166 2142.23 129.265 2146.08 133.604 2148.94C137.66 2151.62 142.13 2152.97 146.98 2152.83C153.592 2152.63 159.159 2150.05 163.672 2145.21C166.489 2142.19 168.359 2138.65 169.316 2134.62C170.11 2131.29 170.078 2127.96 169.36 2124.61C167.935 2117.96 163.651 2112.2 157.702 2108.94C153.646 2106.72 149.296 2105.8 144.685 2106.09C144.588 2106.09 144.49 2106.11 144.392 2106.11C144.37 2106.11 144.337 2106.11 144.283 2106.09V2106.1Z" fill="white"/>
<path d="M125.764 2121.68C125.721 2121.8 125.688 2121.92 125.655 2122.03C124.394 2125.82 124.176 2129.67 125.003 2133.59C126.558 2140.85 131.723 2146.95 138.792 2149.63C143.142 2151.27 147.579 2151.49 152.091 2150.35C158.518 2148.7 164.086 2144.01 166.75 2137.58C168.316 2133.83 168.784 2129.92 168.197 2125.9C168.197 2125.85 168.175 2125.79 168.175 2125.74C168.164 2125.55 168.066 2125.43 167.892 2125.38C167.631 2125.29 167.392 2125.19 167.142 2125.12C165.195 2124.49 163.216 2124.45 161.226 2124.89C160.269 2125.1 159.345 2125.38 158.442 2125.73C156.952 2126.3 155.528 2127 154.092 2127.69C152.505 2128.49 150.928 2129.29 149.275 2129.93C147.274 2130.71 145.23 2131.33 143.098 2131.62C141.315 2131.87 139.531 2131.88 137.748 2131.58C135.399 2131.17 133.268 2130.25 131.321 2128.86C129.733 2127.72 128.374 2126.37 127.308 2124.74C126.732 2123.84 126.275 2122.9 125.949 2121.9C125.927 2121.83 125.895 2121.77 125.862 2121.7C125.829 2121.7 125.808 2121.69 125.764 2121.69V2121.68Z" fill="#FAD940"/>
<path d="M130.896 2123.08C131.473 2124.51 133.104 2125.2 134.518 2124.64C135.964 2124.06 136.66 2122.44 136.073 2121C135.496 2119.55 133.854 2118.86 132.408 2119.46C130.962 2120.05 130.309 2121.64 130.885 2123.08H130.896Z" fill="#FAD940"/>
<path d="M139.216 2125.61C138.193 2126.03 137.737 2127.16 138.161 2128.19C138.585 2129.23 139.738 2129.72 140.749 2129.29C141.771 2128.87 142.25 2127.69 141.826 2126.66C141.401 2125.64 140.26 2125.18 139.216 2125.61Z" fill="#FAD940"/>
<path d="M131.071 2139.04C131.702 2140.57 132.604 2141.93 133.724 2143.15C134.007 2143.46 134.355 2143.75 134.681 2144.01C134.975 2144.25 135.334 2144.4 135.703 2144.5C136.062 2144.58 136.421 2144.59 136.78 2144.5C137.541 2144.29 138.031 2143.73 138.139 2142.96C138.205 2142.4 138.096 2141.86 137.802 2141.39C137.574 2141.03 137.324 2140.68 137.041 2140.35C136.704 2139.96 136.334 2139.61 135.964 2139.24C134.931 2138.21 133.974 2137.11 133.191 2135.87C132.92 2135.45 132.669 2135.02 132.398 2134.61C132.245 2134.39 132.093 2134.16 131.908 2133.98C131.364 2133.45 130.625 2133.63 130.353 2134.33C130.244 2134.63 130.223 2134.95 130.223 2135.26C130.234 2136.18 130.418 2137.07 130.69 2137.95C130.799 2138.31 130.94 2138.67 131.071 2139.03V2139.04Z" fill="white"/>
<path d="M138.161 2138.68C138.302 2138.93 138.454 2139.25 138.672 2139.55C139.085 2140.08 139.629 2140.35 140.314 2140.27C140.912 2140.19 141.347 2139.78 141.466 2139.19C141.553 2138.79 141.488 2138.4 141.292 2138.05C141.184 2137.86 141.064 2137.67 140.901 2137.54C140.379 2137.11 139.835 2136.71 139.292 2136.31C139.183 2136.22 139.031 2136.17 138.889 2136.12C138.204 2135.92 137.693 2136.32 137.726 2137.02C137.726 2137.16 137.747 2137.29 137.78 2137.42C137.9 2137.82 138.019 2138.21 138.161 2138.68Z" fill="white"/>
<path d="M140.727 2143.95C140.042 2144.25 139.574 2144.98 139.629 2145.69C139.672 2146.21 139.912 2146.61 140.39 2146.82C140.858 2147.02 141.303 2146.92 141.695 2146.63C142.293 2146.17 142.532 2145.13 142.195 2144.46C141.923 2143.9 141.336 2143.7 140.727 2143.96V2143.95Z" fill="white"/>
<path d="M388.212 3818.74L414.053 3820.26L428.285 3798.68L416.702 3775.55L390.864 3774.01L376.628 3795.62L388.212 3818.74ZM413.139 3818.48L389.318 3817.07L378.626 3795.72L391.756 3775.79L415.577 3777.2L426.29 3798.55L413.16 3818.48L413.139 3818.48Z" fill="white"/>
<path d="M354.261 3870.44L367.456 3871.24L374.722 3860.21L368.816 3848.39L355.621 3847.6L348.351 3858.65L354.257 3870.46L354.261 3870.44ZM366.567 3869.43L355.389 3868.77L350.371 3858.76L356.531 3849.41L367.71 3850.07L372.728 3860.08L366.567 3869.43Z" fill="#4091CC"/>
<path d="M367.561 3765.54L380.435 3762.59L384.318 3749.95L375.323 3740.28L362.448 3743.24L358.566 3755.88L367.557 3765.56L367.561 3765.54ZM379.068 3761.1L368.151 3763.6L360.527 3755.39L363.82 3744.7L374.737 3742.2L382.36 3750.41L379.064 3761.13L379.068 3761.1Z" fill="white"/>
<path d="M368.748 3849.75L389.442 3818.34L387.988 3817.39L367.272 3848.79L368.748 3849.75Z" fill="#4091CC"/>
<path d="M390.666 3775.48L391.958 3774.3L380.227 3761.41L378.935 3762.58L390.666 3775.48Z" fill="white"/>
<path d="M358.212 4502.74L384.053 4504.26L398.285 4482.68L386.702 4459.55L360.864 4458.01L346.628 4479.62L358.212 4502.74ZM383.139 4502.48L359.318 4501.07L348.626 4479.72L361.756 4459.79L385.577 4461.2L396.29 4482.55L383.16 4502.48L383.139 4502.48Z" fill="white"/>
<path d="M324.261 4554.44L337.456 4555.24L344.722 4544.21L338.816 4532.39L325.621 4531.6L318.351 4542.65L324.257 4554.46L324.261 4554.44ZM336.567 4553.43L325.389 4552.77L320.371 4542.76L326.531 4533.41L337.71 4534.07L342.728 4544.08L336.567 4553.43Z" fill="#94D2EB"/>
<path d="M337.561 4449.54L350.435 4446.58L354.318 4433.95L345.323 4424.28L332.448 4427.24L328.566 4439.88L337.557 4449.56L337.561 4449.54ZM349.068 4445.1L338.151 4447.6L330.527 4439.39L333.82 4428.7L344.737 4426.2L352.36 4434.41L349.064 4445.13L349.068 4445.1Z" fill="white"/>
<path d="M338.748 4533.75L359.442 4502.34L357.988 4501.39L337.272 4532.79L338.748 4533.75Z" fill="#94D2EB"/>
<path d="M360.666 4459.48L361.958 4458.3L350.227 4445.41L348.935 4446.58L360.666 4459.48Z" fill="white"/>
<path d="M359.844 3151.62L357.705 3174.52L336.807 3184.12L318.041 3170.81L320.18 3147.91L341.078 3138.31L359.837 3151.6L359.844 3151.62ZM356.33 3173.55L358.311 3152.31L340.928 3139.99L321.556 3148.88L319.574 3170.12L336.958 3182.44L356.33 3173.55Z" fill="#9DD3EB"/>
<path d="M311.529 3127.41L309.544 3138.97L298.56 3143.06L289.538 3135.54L291.523 3123.99L302.507 3119.89L311.529 3127.41ZM308.249 3137.89L309.936 3128.01L302.224 3121.6L292.833 3125.1L291.139 3134.97L298.851 3141.37L308.242 3137.87L308.249 3137.89Z" fill="white"/>
<path d="M321.33 3147.84L320.421 3149L308.112 3139.36L309.021 3138.2L321.33 3147.84Z" fill="white"/>
<path d="M295.406 2656.26L274.7 2646.26L273 2623.33L292.028 2610.39L312.734 2620.39L314.434 2643.33L295.428 2656.26H295.406ZM276.09 2645.31L295.295 2654.59L312.911 2642.6L311.343 2621.34L292.139 2612.07L274.523 2624.06L276.09 2645.31Z" fill="#4091CC"/>
<path d="M334.963 2619.44L324.831 2613.55V2601.83L335.029 2596L345.162 2601.89V2613.62L334.963 2619.44ZM326.288 2612.71L334.963 2617.74L343.661 2612.75V2602.73L335.007 2597.7L326.31 2602.69V2612.71H326.288Z" fill="white"/>
<path d="M312.403 2621.5L311.63 2620.24L324.963 2612.07L325.736 2613.33L312.403 2621.5Z" fill="white"/>
<path d="M25.1307 3491.96L12.5578 3469.33L25.8412 3447.15L51.7028 3447.56L64.2938 3470.17L50.9924 3492.37L25.1307 3491.96ZM14.5636 3469.38L26.1615 3490.23L50.0301 3490.62L62.3007 3470.14L50.7028 3449.29L26.8215 3448.89L14.5509 3469.36L14.5636 3469.38Z" fill="white"/>
<path d="M-6.73616 3544.96L-13.1723 3533.42L-6.38623 3522.09L6.82337 3522.29L13.2595 3533.83L6.45535 3545.18L-6.75424 3544.98L-6.73616 3544.96ZM-11.1611 3533.44L-5.71804 3543.22L5.48035 3543.4L11.2356 3533.8L5.79254 3524.01L-5.40585 3523.83L-11.1611 3533.44Z" fill="#4091CC"/>
<path d="M82.0283 3487.5L79.109 3474.62L88.8153 3465.64L101.423 3469.56L104.342 3482.44L94.6358 3491.42L82.0102 3487.51L82.0283 3487.5ZM81.0361 3475.21L83.5213 3486.13L94.2198 3489.44L102.433 3481.83L99.9478 3470.92L89.2493 3467.6L81.018 3475.22L81.0361 3475.21Z" fill="white"/>
<path d="M5.63098 3522.94L24.9585 3490.67L26.4516 3491.57L7.13678 3523.85L5.63098 3522.94Z" fill="#4091CC"/>
<path d="M63.0569 3470.99L63.5556 3469.31L80.2595 3474.3L79.7608 3475.97L63.0569 3470.99Z" fill="white"/>
<path d="M6.96704 3883.5C-0.973946 3881.29 -5.64766 3873.07 -3.46227 3865.11L24.5151 3763.82L53.3147 3771.79L25.3373 3873.05C23.1303 3881.01 14.908 3885.66 6.94541 3883.48L6.96704 3883.5Z" fill="white"/>
<mask id="mask5_222_44379" style="mask-type:luminance" maskUnits="userSpaceOnUse" x="-4" y="3763" width="58" height="122">
<path d="M6.96753 3883.5C-0.973457 3881.29 -5.64717 3873.07 -3.46178 3865.11L24.5156 3763.82L53.3152 3771.79L25.3378 3873.05C23.1308 3881.01 14.9085 3885.66 6.94589 3883.48L6.96753 3883.5Z" fill="white"/>
</mask>
<g mask="url(#mask5_222_44379)">
<path d="M6.92508 3794.98C9.82452 3793.49 12.8321 3792.13 16.0561 3791.54C19.2801 3790.98 22.7421 3791.24 25.5334 3792.93C28.0434 3794.42 29.8176 3796.86 32.2194 3798.55C38.0399 3802.71 45.9376 3801.54 52.9698 3800.2L26.1392 3897.31L-13.8037 3886.25L6.92508 3794.98Z" fill="#4091CC"/>
</g>
<path d="M53.5735 3773.13L23.6271 3764.84C22.0476 3764.41 21.1172 3762.76 21.5499 3761.18C21.9827 3759.6 23.6271 3758.67 25.2067 3759.11L55.1531 3767.37C56.7326 3767.8 57.663 3769.45 57.2303 3771.03C56.7975 3772.61 55.1531 3773.54 53.5735 3773.08V3773.13Z" fill="#4091CC"/>
<path d="M33.6683 3817.92C33.1706 3819.67 31.353 3820.71 29.5788 3820.23C27.8045 3819.76 26.7659 3817.92 27.2419 3816.14C27.7396 3814.37 29.5788 3813.33 31.3314 3813.83C33.1057 3814.3 34.1443 3816.14 33.6466 3817.92H33.6683Z" fill="white"/>
<path d="M21.1835 3823.11C20.9022 3824.15 19.8203 3824.73 18.8034 3824.45C17.7864 3824.17 17.1806 3823.11 17.4835 3822.09C17.7648 3821.08 18.8034 3820.47 19.842 3820.75C20.8806 3821.03 21.4864 3822.09 21.2051 3823.11H21.1835Z" fill="white"/>
<path d="M22.9787 3844.49C22.5027 3844.49 22.0266 3844.42 21.5723 3844.29C20.2091 3843.93 19.0839 3843.04 18.3915 3841.83C17.6991 3840.59 17.5044 3839.17 17.8939 3837.8C18.6728 3834.99 21.5723 3833.34 24.3851 3834.12C27.198 3834.9 28.8425 3837.8 28.0635 3840.61C27.6957 3841.98 26.8086 3843.12 25.5752 3843.8C24.7746 3844.25 23.8875 3844.49 22.9787 3844.49ZM22.9787 3835.23C21.2477 3835.23 19.6249 3836.4 19.1488 3838.17C18.8676 3839.19 18.9974 3840.27 19.5167 3841.18C20.0576 3842.11 20.9015 3842.76 21.9185 3843.06C22.9571 3843.34 24.0173 3843.21 24.9477 3842.69C25.8781 3842.17 26.5489 3841.31 26.8302 3840.29C27.4144 3838.17 26.1594 3835.98 24.0389 3835.4C23.6927 3835.29 23.3249 3835.25 22.9787 3835.25V3835.23Z" fill="white"/>
<path d="M150.479 2876.1C150.137 2876.1 149.816 2875.91 149.666 2875.59L134.858 2843.75C134.644 2843.3 134.858 2842.77 135.286 2842.55C135.735 2842.34 136.27 2842.55 136.484 2842.98L151.292 2874.82C151.506 2875.27 151.292 2875.8 150.843 2876.02C150.714 2876.08 150.586 2876.1 150.458 2876.1H150.479Z" fill="white"/>
<path d="M157.818 2872.02C157.476 2872.02 157.155 2871.82 157.005 2871.48L142.218 2839.64C142.004 2839.19 142.197 2838.66 142.646 2838.44C143.096 2838.23 143.631 2838.44 143.845 2838.89L158.653 2870.73C158.867 2871.18 158.653 2871.72 158.225 2871.93C158.096 2871.97 157.968 2872.02 157.839 2872.02H157.818Z" fill="white"/>
<path d="M163.531 2864.4C163.189 2864.4 162.868 2864.21 162.718 2863.89L151.698 2840.15C151.484 2839.71 151.698 2839.17 152.126 2838.96C152.575 2838.74 153.11 2838.96 153.324 2839.41L164.344 2863.12C164.558 2863.56 164.344 2864.1 163.916 2864.31C163.788 2864.38 163.66 2864.4 163.531 2864.4Z" fill="white"/>
<path d="M255.312 2827.36C254.97 2827.36 254.649 2827.17 254.499 2826.84L239.691 2795C239.477 2794.55 239.691 2794.02 240.14 2793.8C240.59 2793.59 241.125 2793.8 241.339 2794.23L256.147 2826.07C256.361 2826.52 256.147 2827.06 255.697 2827.27C255.569 2827.34 255.44 2827.36 255.312 2827.36Z" fill="white"/>
<path d="M247.458 2830.33C247.116 2830.33 246.795 2830.14 246.645 2829.82L231.837 2797.98C231.623 2797.53 231.837 2796.99 232.265 2796.78C232.715 2796.57 233.25 2796.78 233.464 2797.21L248.272 2829.05C248.486 2829.5 248.272 2830.03 247.844 2830.25C247.715 2830.31 247.587 2830.33 247.458 2830.33Z" fill="white"/>
<path d="M210.716 2847.41C210.374 2847.41 210.053 2847.22 209.903 2846.87L195.095 2815.05C194.881 2814.6 195.095 2814.07 195.545 2813.86C195.994 2813.64 196.529 2813.86 196.743 2814.28L211.551 2846.12C211.765 2846.57 211.551 2847.11 211.102 2847.32C210.973 2847.39 210.845 2847.41 210.716 2847.41Z" fill="white"/>
<path d="M202.949 2851.71C202.606 2851.71 202.285 2851.52 202.136 2851.2L187.328 2819.35C187.114 2818.91 187.328 2818.37 187.777 2818.16C188.226 2817.94 188.761 2818.16 188.975 2818.58L203.783 2850.43C203.997 2850.88 203.783 2851.41 203.334 2851.62C203.206 2851.69 203.077 2851.69 202.949 2851.69V2851.71Z" fill="white"/>
<path d="M194.668 2854.88C194.325 2854.88 194.004 2854.68 193.854 2854.36L179.046 2822.52C178.832 2822.07 179.046 2821.54 179.496 2821.32C179.945 2821.11 180.48 2821.32 180.694 2821.75L195.481 2853.57C195.695 2854.04 195.481 2854.56 195.053 2854.77C194.924 2854.83 194.796 2854.86 194.668 2854.86V2854.88Z" fill="white"/>
<path d="M185.529 2856.23C185.187 2856.23 184.866 2856.03 184.716 2855.71L171.898 2828.13C171.684 2827.68 171.898 2827.14 172.326 2826.93C172.776 2826.72 173.311 2826.93 173.525 2827.36L186.343 2854.92C186.557 2855.37 186.343 2855.9 185.915 2856.12C185.786 2856.18 185.658 2856.2 185.529 2856.2V2856.23Z" fill="white"/>
<path d="M217.65 2841.29C217.307 2841.29 216.986 2841.12 216.836 2840.77L204.019 2813.19C203.805 2812.74 204.019 2812.21 204.446 2811.99C204.896 2811.78 205.431 2811.99 205.645 2812.42L218.463 2840C218.677 2840.45 218.463 2841.01 218.035 2841.2C217.906 2841.27 217.778 2841.27 217.65 2841.27V2841.29Z" fill="white"/>
<path d="M237.957 2829.8C237.615 2829.8 237.294 2829.6 237.144 2829.26L226.123 2805.55C225.91 2805.1 226.124 2804.57 226.551 2804.35C227.001 2804.14 227.536 2804.35 227.75 2804.8L238.77 2828.51C238.984 2828.96 238.77 2829.5 238.342 2829.71C238.214 2829.78 238.085 2829.8 237.957 2829.8Z" fill="white"/>
<path d="M130 2838.16L133.295 2845.27C145.322 2839.68 154.737 2844.54 165.629 2850.17C176.735 2855.9 189.339 2862.41 204.853 2855.2C220.346 2847.99 223.491 2834.16 226.294 2821.97C229.012 2810 231.366 2799.69 243.392 2794.1L240.097 2787C224.583 2794.21 221.437 2808.03 218.655 2820.23C215.937 2832.19 213.584 2842.51 201.557 2848.09C189.531 2853.68 180.137 2848.82 169.224 2843.19C158.118 2837.46 145.514 2830.95 130 2838.16Z" fill="#FAD940"/>
<path d="M226.273 2821.97C225.909 2823.57 225.546 2825.22 225.118 2826.84C234.662 2831.53 245.318 2835.47 257.943 2830.44C258.992 2830.01 259.506 2828.81 259.013 2827.76L257.366 2824.21C256.938 2823.29 255.846 2822.82 254.926 2823.19C244.676 2827.23 236.245 2823.7 226.937 2818.99C226.701 2819.98 226.487 2820.96 226.252 2821.94L226.273 2821.97Z" fill="#94D2EB"/>
<path d="M226.937 2819.14C226.359 2821.64 225.781 2824.23 225.139 2826.84C235.154 2831.79 246.431 2835.87 259.891 2829.6L256.595 2822.5C245.639 2827.61 236.844 2824 227.108 2819.06C227.044 2819.1 227.001 2819.1 226.937 2819.14Z" fill="#94D2EB"/>
<path d="M171.236 2847.56C173.953 2835.6 176.307 2825.28 188.333 2819.7C199.354 2814.56 208.17 2818.22 217.949 2823.19C218.184 2822.2 218.398 2821.22 218.634 2820.23C218.998 2818.63 219.361 2817 219.789 2815.35C209.775 2810.41 198.498 2806.34 185.038 2812.59C169.545 2819.8 166.378 2833.63 163.596 2845.83C160.857 2857.77 158.503 2868.1 146.499 2873.69L149.794 2880.79C165.308 2873.58 168.454 2859.78 171.236 2847.56Z" fill="#94D2EB"/>
<path d="M54.1633 3959.54L34 3947.91V3924.64L54.1633 3913L74.3267 3924.64V3947.91L54.1633 3959.54ZM36.2311 3946.61L54.1633 3956.95L72.0747 3946.61V3925.93L54.1633 3915.59L36.2311 3925.93V3946.61Z" fill="white"/>
<path d="M92.3005 3959.54L72.1372 3947.91V3924.64L92.3005 3913L112.464 3924.64V3947.91L92.3005 3959.54ZM74.3892 3946.61L92.3005 3956.95L110.212 3946.61V3925.93L92.3005 3915.59L74.3892 3925.93V3946.61Z" fill="#4091CC"/>
<path d="M111.255 3992.51L91.1123 3980.87V3957.6L111.255 3945.97L131.418 3957.6V3980.87L111.255 3992.51ZM93.3434 3979.58L111.255 3989.92L129.166 3979.58V3958.89L111.255 3948.55L93.3434 3958.89V3979.58Z" fill="white"/>
<path d="M96.4056 2443.26L75.6997 2433.26L74 2410.33L93.0282 2397.39L113.734 2407.39L115.434 2430.33L96.4277 2443.26H96.4056ZM77.0904 2432.31L96.2952 2441.59L113.911 2429.6L112.343 2408.34L93.1386 2399.07L75.5231 2411.06L77.0904 2432.31Z" fill="#9DD3EB"/>
<path d="M135.963 2406.44L125.831 2400.55V2388.83L136.029 2383L146.161 2388.89V2400.62L135.963 2406.44ZM127.287 2399.71L135.963 2404.74L144.66 2399.75V2389.73L136.007 2384.7L127.31 2389.69V2399.71H127.287Z" fill="white"/>
<path d="M113.403 2408.5L112.63 2407.24L125.963 2399.07L126.736 2400.33L113.403 2408.5Z" fill="white"/>
<path d="M31.4179 4174.94C31.6911 4174.74 32.0633 4174.7 32.3763 4174.86L63.3902 4191.33C63.8319 4191.56 63.9838 4192.12 63.7715 4192.55C63.542 4192.99 62.9862 4193.14 62.5575 4192.93L31.5435 4176.46C31.1018 4176.23 30.9499 4175.67 31.1794 4175.23C31.2431 4175.1 31.3326 4175.01 31.435 4174.93L31.4179 4174.94Z" fill="white"/>
<path d="M28.0285 4182.63C28.3016 4182.42 28.6738 4182.38 28.9997 4182.57L59.9966 4199.05C60.4383 4199.28 60.6073 4199.82 60.3778 4200.26C60.1484 4200.7 59.5926 4200.86 59.1509 4200.63L28.137 4184.16C27.6953 4183.93 27.5434 4183.37 27.7558 4182.94C27.8324 4182.83 27.909 4182.72 28.0114 4182.64L28.0285 4182.63Z" fill="white"/>
<path d="M28.0642 4192.15C28.3373 4191.94 28.7095 4191.91 29.0225 4192.07L52.1244 4204.36C52.5661 4204.59 52.718 4205.14 52.5056 4205.57C52.2762 4206.01 51.7204 4206.16 51.2787 4205.93L28.1898 4193.67C27.7481 4193.44 27.5962 4192.88 27.8085 4192.45C27.8722 4192.32 27.9618 4192.23 28.0642 4192.15Z" fill="white"/>
<path d="M-22.8132 4277.05C-22.5401 4276.84 -22.1679 4276.8 -21.8548 4276.97L9.15913 4293.44C9.60081 4293.67 9.75271 4294.22 9.52328 4294.66C9.29385 4295.11 8.73806 4295.26 8.30927 4295.05L-22.7047 4278.57C-23.1464 4278.34 -23.2983 4277.79 -23.0688 4277.35C-23.0051 4277.22 -22.9156 4277.12 -22.8132 4277.05Z" fill="white"/>
<path d="M-18.3423 4269.94C-18.0692 4269.73 -17.697 4269.69 -17.3839 4269.86L13.63 4286.33C14.0717 4286.56 14.2236 4287.11 14.0112 4287.54C13.7818 4287.98 13.226 4288.14 12.7972 4287.92L-18.2167 4271.45C-18.6584 4271.22 -18.8103 4270.67 -18.598 4270.24C-18.5342 4270.11 -18.4447 4270.02 -18.3423 4269.94Z" fill="white"/>
<path d="M0.670219 4234.16C0.943342 4233.95 1.31553 4233.91 1.64149 4234.1L32.6425 4250.55C33.0842 4250.78 33.2361 4251.33 33.0067 4251.78C32.7773 4252.22 32.2215 4252.37 31.7927 4252.16L0.778735 4235.69C0.337045 4235.46 0.185139 4234.9 0.414571 4234.46C0.47828 4234.33 0.567799 4234.24 0.670219 4234.16Z" fill="white"/>
<path d="M4.27276 4226.04C4.54589 4225.84 4.91808 4225.8 5.23113 4225.96L36.2451 4242.43C36.6868 4242.66 36.8387 4243.22 36.6092 4243.66C36.3798 4244.1 35.824 4244.25 35.3952 4244.04L4.38128 4227.57C3.93959 4227.34 3.78768 4226.79 4.01711 4226.34C4.08082 4226.22 4.18325 4226.14 4.28567 4226.06L4.27276 4226.04Z" fill="white"/>
<path d="M8.96954 4218.52C9.24267 4218.32 9.61485 4218.28 9.92791 4218.44L40.9418 4234.91C41.3835 4235.14 41.5354 4235.7 41.306 4236.14C41.0766 4236.58 40.5208 4236.73 40.092 4236.52L9.10803 4220.06C8.65343 4219.81 8.51444 4219.27 8.7268 4218.84C8.79051 4218.71 8.88003 4218.62 8.98245 4218.54L8.96954 4218.52Z" fill="white"/>
<path d="M15.446 4211.94C15.7191 4211.73 16.0913 4211.69 16.4043 4211.86L43.2628 4226.13C43.7045 4226.36 43.8564 4226.92 43.644 4227.35C43.4146 4227.79 42.8588 4227.94 42.43 4227.73L15.5844 4213.47C15.1428 4213.24 14.9909 4212.68 15.2032 4212.26C15.2669 4212.13 15.3564 4212.03 15.4589 4211.95L15.446 4211.94Z" fill="white"/>
<path d="M-1.17026 4243.22C-0.897134 4243.02 -0.537851 4242.96 -0.211893 4243.14L26.6466 4257.42C27.0883 4257.64 27.2402 4258.2 27.0278 4258.63C26.7984 4259.07 26.2426 4259.22 25.8138 4259.01L-1.04467 4244.74C-1.48636 4244.51 -1.65117 4243.93 -1.4259 4243.52C-1.36219 4243.39 -1.25977 4243.32 -1.15735 4243.24L-1.17026 4243.22Z" fill="white"/>
<path d="M-10.4402 4264.64C-10.1671 4264.43 -9.79492 4264.39 -9.46896 4264.57L13.62 4276.84C14.0617 4277.07 14.2136 4277.62 14.0012 4278.05C13.7718 4278.5 13.216 4278.65 12.7743 4278.42L-10.3146 4266.15C-10.7563 4265.92 -10.9082 4265.36 -10.6959 4264.94C-10.6322 4264.81 -10.5427 4264.71 -10.4402 4264.64Z" fill="white"/>
<path d="M70.6242 4192.87L63.7094 4189.19C57.4834 4200.89 47.0411 4202.69 34.9561 4204.77C22.6358 4206.89 8.65572 4209.3 0.627753 4224.41C-7.38314 4239.5 -1.55429 4252.42 3.56673 4263.84C8.61404 4275.02 12.9577 4284.66 6.73161 4296.37L13.6463 4300.05C21.6743 4284.94 15.8455 4272.02 10.7074 4260.61C5.66004 4249.44 1.31641 4239.79 7.54248 4228.09C13.7685 4216.38 24.1937 4214.59 36.2958 4212.5C48.6161 4210.38 62.5962 4207.97 70.6242 4192.87Z" fill="#FAD940"/>
<path d="M3.60289 4263.84C2.92527 4262.34 2.22185 4260.8 1.58253 4259.25C-8.85677 4261.27 -19.7321 4264.55 -26.771 4276.18C-27.3493 4277.15 -27.0364 4278.41 -26.0115 4278.95L-22.555 4280.79C-21.6587 4281.27 -20.5042 4280.99 -19.9896 4280.14C-14.2519 4270.74 -5.39703 4268.47 4.8674 4266.61C4.46158 4265.68 4.03869 4264.77 3.63287 4263.84L3.60289 4263.84Z" fill="#94D2EB"/>
<path d="M4.77767 4266.49C3.72878 4264.14 2.62827 4261.73 1.56607 4259.26C-9.40362 4261.36 -20.8643 4264.9 -27.8205 4278.02L-20.9075 4281.7C-15.2517 4271.01 -6.05506 4268.59 4.69273 4266.66C4.71813 4266.59 4.75227 4266.56 4.77767 4266.49Z" fill="#94D2EB"/>
<path d="M32.0742 4210.23C37.1198 4221.41 41.4618 4231.06 35.2364 4242.77C29.5423 4253.51 20.3028 4255.91 9.50793 4257.84C9.91374 4258.77 10.3366 4259.69 10.7425 4260.61C11.4201 4262.11 12.1106 4263.63 12.7628 4265.2C23.7325 4263.11 35.1803 4259.55 42.1494 4246.45C50.1595 4231.35 44.3498 4218.42 39.2135 4207.01C34.198 4195.83 29.843 4186.17 36.0514 4174.47L29.1384 4170.79C21.1112 4185.9 26.9251 4198.81 32.0742 4210.23Z" fill="#94D2EB"/>
<path d="M-11.033 5121.5C-18.9739 5119.29 -23.6477 5111.07 -21.4623 5103.11L6.51511 5001.82L35.3147 5009.79L7.33734 5111.05C5.13031 5119.01 -3.09197 5123.66 -11.0546 5121.48L-11.033 5121.5Z" fill="white"/>
<mask id="mask6_222_44379" style="mask-type:luminance" maskUnits="userSpaceOnUse" x="-22" y="5001" width="58" height="122">
<path d="M-11.033 5121.5C-18.9739 5119.29 -23.6477 5111.07 -21.4623 5103.11L6.51511 5001.82L35.3147 5009.79L7.33734 5111.05C5.13031 5119.01 -3.09197 5123.66 -11.0546 5121.48L-11.033 5121.5Z" fill="white"/>
</mask>
<g mask="url(#mask6_222_44379)">
<path d="M-11.0759 5032.98C-8.17646 5031.49 -5.16884 5030.13 -1.94484 5029.54C1.27916 5028.98 4.74117 5029.24 7.53242 5030.93C10.0424 5032.42 11.8167 5034.86 14.2184 5036.55C20.0389 5040.71 27.9366 5039.54 34.9689 5038.2L8.13827 5135.31L-31.8047 5124.25L-11.0759 5032.98Z" fill="#4091CC"/>
</g>
<path d="M35.5735 5011.13L5.62714 5002.84C4.0476 5002.41 3.11718 5000.76 3.54993 4999.18C3.98269 4997.6 5.62714 4996.67 7.20668 4997.11L37.1531 5005.37C38.7326 5005.8 39.663 5007.45 39.2303 5009.03C38.7975 5010.61 37.1531 5011.54 35.5735 5011.08V5011.13Z" fill="#4091CC"/>
<path d="M15.6683 5055.92C15.1706 5057.67 13.353 5058.71 11.5788 5058.23C9.80447 5057.76 8.76587 5055.92 9.24189 5054.14C9.73956 5052.37 11.5788 5051.33 13.3314 5051.83C15.1057 5052.3 16.1443 5054.14 15.6466 5055.92H15.6683Z" fill="white"/>
<path d="M3.18351 5061.11C2.90222 5062.15 1.82034 5062.73 0.803374 5062.45C-0.213592 5062.17 -0.819443 5061.11 -0.516517 5060.09C-0.235229 5059.08 0.803375 5058.47 1.84198 5058.75C2.88058 5059.03 3.48643 5060.09 3.20515 5061.11H3.18351Z" fill="white"/>
<path d="M4.9787 5082.49C4.50267 5082.49 4.02665 5082.42 3.57226 5082.29C2.20909 5081.93 1.08394 5081.04 0.391534 5079.83C-0.300868 5078.59 -0.495607 5077.17 -0.106131 5075.8C0.672822 5072.99 3.57226 5071.34 6.38514 5072.12C9.19802 5072.9 10.8425 5075.8 10.0635 5078.61C9.69569 5079.98 8.80855 5081.12 7.57521 5081.8C6.77462 5082.25 5.88748 5082.49 4.9787 5082.49ZM4.9787 5073.23C3.24769 5073.23 1.62487 5074.4 1.14885 5076.17C0.86756 5077.19 0.997385 5078.27 1.51669 5079.18C2.05763 5080.11 2.90149 5080.76 3.91846 5081.06C4.95706 5081.34 6.0173 5081.21 6.94772 5080.69C7.87813 5080.17 8.5489 5079.31 8.83019 5078.29C9.4144 5076.17 8.15942 5073.98 6.03894 5073.4C5.69274 5073.29 5.3249 5073.25 4.9787 5073.25V5073.23Z" fill="white"/>
<path d="M350.547 5003.04C342.563 5005.09 334.413 5000.29 332.34 4992.29L306.126 4890.54L335.063 4883.09L361.267 4984.83C363.321 4992.83 358.51 5000.96 350.518 5003.03L350.547 5003.04Z" fill="white"/>
<mask id="mask7_222_44379" style="mask-type:luminance" maskUnits="userSpaceOnUse" x="306" y="4883" width="56" height="121">
<path d="M350.576 5003.03C342.59 5005.07 334.438 5000.27 332.363 4992.28L306.13 4890.54L335.072 4883.1L361.295 4984.82C363.351 4992.82 358.54 5000.95 350.546 5003.02L350.576 5003.03Z" fill="white"/>
</mask>
<g mask="url(#mask7_222_44379)">
<path d="M306.402 4926.32C308.171 4923.58 310.1 4920.9 312.604 4918.79C315.119 4916.69 318.25 4915.19 321.511 4915.26C324.431 4915.31 327.188 4916.54 330.112 4916.81C337.229 4917.51 343.494 4912.56 348.922 4907.9L374.054 5005.46L333.912 5015.77L306.402 4926.32Z" fill="#94D2EB"/>
</g>
<path d="M335.956 4884.12L305.863 4891.86C304.278 4892.27 302.652 4891.31 302.24 4889.73C301.828 4888.14 302.79 4886.51 304.375 4886.1L334.458 4878.35C336.043 4877.93 337.669 4878.9 338.081 4880.48C338.493 4882.07 337.531 4883.69 335.935 4884.09L335.956 4884.12Z" fill="#94D2EB"/>
<path d="M341.017 4932.88C341.459 4934.64 340.4 4936.45 338.625 4936.92C336.849 4937.39 335.032 4936.32 334.561 4934.54C334.108 4932.75 335.185 4930.94 336.953 4930.49C338.728 4930.02 340.545 4931.1 340.998 4932.89L341.017 4932.88Z" fill="white"/>
<path d="M332.78 4943.6C333.054 4944.64 332.407 4945.69 331.385 4945.95C330.363 4946.21 329.31 4945.59 329.066 4944.56C328.803 4943.54 329.401 4942.5 330.442 4942.22C331.483 4941.95 332.536 4942.57 332.799 4943.59L332.78 4943.6Z" fill="white"/>
<path d="M344.989 4961.24C344.576 4961.48 344.131 4961.66 343.673 4961.77C342.308 4962.13 340.89 4961.92 339.686 4961.22C338.471 4960.49 337.591 4959.35 337.249 4957.98C336.523 4955.15 338.217 4952.28 341.044 4951.55C343.871 4950.83 346.741 4952.52 347.468 4955.35C347.828 4956.71 347.63 4958.15 346.895 4959.34C346.428 4960.14 345.777 4960.79 344.989 4961.24ZM340.374 4953.21C338.874 4954.07 338.049 4955.89 338.52 4957.67C338.783 4958.69 339.435 4959.56 340.338 4960.09C341.271 4960.63 342.326 4960.77 343.358 4960.53C344.399 4960.26 345.254 4959.61 345.801 4958.7C346.349 4957.79 346.5 4956.7 346.237 4955.68C345.687 4953.55 343.51 4952.28 341.38 4952.83C341.026 4952.91 340.685 4953.06 340.385 4953.23L340.374 4953.21Z" fill="white"/>
<path d="M35.9426 4562.7L37.9738 4545.11L39.8488 4528.82L49.6924 4512.3L43.2416 4508.46L36.8131 4504.62L26.9695 4521.14L13.5098 4530.53L-0.998985 4540.67C-3.78913 4542.61 -3.63289 4546.78 -0.70881 4548.5L14.1125 4557.34L28.9337 4566.18C31.8578 4567.92 35.5854 4566.07 35.9649 4562.7H35.9426Z" fill="white"/>
<mask id="mask8_222_44379" style="mask-type:luminance" maskUnits="userSpaceOnUse" x="-3" y="4504" width="53" height="63">
<path d="M35.9426 4562.7L37.9738 4545.11L39.8488 4528.82L49.6924 4512.3L43.2416 4508.46L36.8131 4504.62L26.9695 4521.14L13.5098 4530.53L-0.998985 4540.67C-3.78913 4542.61 -3.63289 4546.78 -0.70881 4548.5L14.1125 4557.34L28.9337 4566.18C31.8578 4567.92 35.5854 4566.07 35.9649 4562.7H35.9426Z" fill="white"/>
</mask>
<g mask="url(#mask8_222_44379)">
<path d="M-6.51185 4528.46C-1.64583 4528.46 3.28715 4528.44 8.04156 4529.53C12.796 4530.62 17.4165 4532.94 20.3852 4536.83C22.528 4539.62 23.7334 4543.12 26.2333 4545.6C31.7913 4551.14 41.1216 4549.64 48.2867 4552.83L33.5547 4577.05L-19.0117 4547.77L-6.51185 4528.46Z" fill="#9DD3EB"/>
</g>
<path d="M32.9744 4525.73C32.4387 4526.65 31.2557 4526.96 30.3405 4526.4C29.4254 4525.87 29.1129 4524.69 29.6709 4523.75C30.2289 4522.83 31.3896 4522.54 32.3271 4523.08C33.2423 4523.64 33.5325 4524.82 32.9967 4525.73H32.9744Z" fill="#9DD3EB"/>
<path d="M33.9788 4533.46C33.6663 4533.95 33.019 4534.13 32.5056 4533.81C31.9922 4533.52 31.836 4532.86 32.1261 4532.34C32.4386 4531.83 33.0859 4531.67 33.5993 4531.96C34.1127 4532.25 34.269 4532.92 33.9788 4533.44V4533.46Z" fill="#9DD3EB"/>
<path d="M28.4205 4535.96C27.9741 4536.69 27.0366 4536.92 26.3223 4536.49C25.5857 4536.07 25.3625 4535.11 25.7866 4534.4C26.233 4533.66 27.1705 4533.44 27.8848 4533.86C28.6214 4534.28 28.8669 4535.24 28.4205 4535.96Z" fill="#9DD3EB"/>
<path d="M49.0449 4513.01L36.5674 4505.58C35.9201 4505.2 35.6968 4504.33 36.0763 4503.68C36.4781 4503.01 37.3263 4502.81 37.9736 4503.19L50.4512 4510.62C51.0985 4511 51.3217 4511.87 50.9199 4512.52C50.5181 4513.17 49.6922 4513.39 49.0226 4512.99L49.0449 4513.01Z" fill="#9DD3EB"/>
<path d="M37.6841 4523.03C37.1484 4522.34 37.0591 4521.34 37.5501 4520.53C38.1751 4519.48 39.5591 4519.13 40.6081 4519.77C41.6796 4520.4 42.0144 4521.78 41.3894 4522.83C40.7644 4523.88 39.3805 4524.24 38.3314 4523.61C38.0859 4523.46 37.8626 4523.26 37.7064 4523.03H37.6841ZM40.7644 4520.71C40.6528 4520.56 40.4965 4520.4 40.2957 4520.29C39.5367 4519.82 38.5323 4520.09 38.0635 4520.85C37.5948 4521.63 37.8626 4522.61 38.6216 4523.08C39.4028 4523.55 40.4073 4523.28 40.8537 4522.5C41.1885 4521.92 41.1439 4521.2 40.7421 4520.69L40.7644 4520.71Z" fill="#9DD3EB"/>
<path d="M318.828 4773.31L300.242 4755.29L306.533 4730.21L331.406 4723.12L350.006 4741.12L343.701 4766.22L318.828 4773.31ZM302.176 4754.76L319.315 4771.36L342.272 4764.82L348.089 4741.67L330.95 4725.06L307.976 4731.59L302.159 4754.74L302.176 4754.76Z" fill="white"/>
<path d="M303.673 4833.27L294.169 4824.08L297.385 4811.28L310.086 4807.64L319.59 4816.83L316.361 4829.66L303.659 4833.29L303.673 4833.27ZM296.1 4823.52L304.143 4831.31L314.914 4828.24L317.642 4817.38L309.598 4809.59L298.827 4812.66L296.1 4823.52Z" fill="#9DD3EB"/>
<path d="M371.997 4752.57L365.473 4741.08L372.164 4729.68L385.366 4729.78L391.89 4741.26L385.199 4752.67L371.984 4752.59L371.997 4752.57ZM367.489 4741.09L373.029 4750.82L384.229 4750.9L389.888 4741.24L384.348 4731.51L373.148 4731.43L367.475 4741.11L367.489 4741.09Z" fill="white"/>
<path d="M309.133 4808.61L318.291 4772.13L319.98 4772.56L310.839 4809.05L309.133 4808.61Z" fill="#9DD3EB"/>
<path d="M349.058 4742.26L349.05 4740.51L366.481 4740.44L366.488 4742.19L349.058 4742.26Z" fill="white"/>
<path d="M307.163 4167.54L287 4155.91V4132.64L307.163 4121L327.327 4132.64V4155.91L307.163 4167.54ZM289.231 4154.61L307.163 4164.95L325.075 4154.61V4133.93L307.163 4123.59L289.231 4133.93V4154.61Z" fill="white"/>
<path d="M345.301 4167.54L325.137 4155.91V4132.64L345.301 4121L365.464 4132.64V4155.91L345.301 4167.54ZM327.389 4154.61L345.301 4164.95L363.212 4154.61V4133.93L345.301 4123.59L327.389 4133.93V4154.61Z" fill="#4091CC"/>
<path d="M364.255 4200.51L344.113 4188.87V4165.6L364.255 4153.97L384.419 4165.6V4188.87L364.255 4200.51ZM346.344 4187.58L364.255 4197.92L382.167 4187.58V4166.89L364.255 4156.55L346.344 4166.89V4187.58Z" fill="white"/>
<path d="M48.5944 4899.81L66.8264 4881.43L91.8319 4888.01L98.6366 4912.97L80.4219 4931.35L55.399 4924.76L48.5944 4899.81ZM67.3375 4883.37L50.5364 4900.32L56.8161 4923.35L79.8968 4929.43L96.6979 4912.49L90.4321 4889.44L67.3514 4883.35L67.3375 4883.37Z" fill="white"/>
<path d="M-11.1893 4883.96L-1.8918 4874.56L10.8783 4877.92L14.3648 4890.67L5.06732 4900.06L-7.72005 4896.69L-11.2065 4883.94L-11.1893 4883.96ZM-1.34954 4876.5L-9.23338 4884.45L-6.28916 4895.26L4.53889 4898.11L12.4227 4890.16L9.47851 4879.35L-1.34954 4876.5Z" fill="#9DD3EB"/>
<path d="M68.7171 4953.21L80.2772 4946.82L91.6029 4953.64L91.3513 4966.84L79.7912 4973.23L68.4655 4966.41L68.6998 4953.2L68.7171 4953.21ZM80.2464 4948.84L70.4512 4954.26L70.2476 4965.46L79.8392 4971.23L89.6344 4965.81L89.838 4954.61L80.2292 4948.82L80.2464 4948.84Z" fill="white"/>
<path d="M13.4103 4889.7L49.7786 4899.28L49.3343 4900.97L12.9522 4891.4L13.4103 4889.7Z" fill="#9DD3EB"/>
<path d="M79.295 4930.39L81.0412 4930.41L80.9073 4947.84L79.1612 4947.82L79.295 4930.39Z" fill="white"/>
<path d="M280.617 5112.08L257.794 5109.28L248.8 5088.11L262.649 5069.73L285.472 5072.53L294.466 5093.7L280.638 5112.07L280.617 5112.08ZM258.805 5107.93L279.972 5110.52L292.79 5093.5L284.461 5073.88L263.294 5071.29L250.476 5088.31L258.805 5107.93Z" fill="#9DD3EB"/>
<path d="M306.211 5064.48L294.721 5062.16L290.947 5051.06L298.726 5042.26L310.216 5044.58L313.99 5055.68L306.211 5064.48ZM295.83 5060.9L305.664 5062.87L312.292 5055.35L309.065 5045.86L299.252 5043.88L292.624 5051.4L295.851 5060.89L295.83 5060.9Z" fill="white"/>
<path d="M285.514 5073.69L284.377 5072.74L294.37 5060.72L295.507 5061.66L285.514 5073.69Z" fill="white"/>
<path d="M95.1633 5099.54L75 5087.91V5064.64L95.1633 5053L115.327 5064.64V5087.91L95.1633 5099.54ZM77.2311 5086.61L95.1633 5096.95L113.075 5086.61V5065.93L95.1633 5055.59L77.2311 5065.93V5086.61Z" fill="white"/>
<path d="M133.301 5099.54L113.137 5087.91V5064.64L133.301 5053L153.464 5064.64V5087.91L133.301 5099.54ZM115.389 5086.61L133.301 5096.95L151.212 5086.61V5065.93L133.301 5055.59L115.389 5065.93V5086.61Z" fill="#94D2EB"/>
</svg>
