<svg width="1434" height="4536" viewBox="0 0 1434 4536" fill="none" xmlns="http://www.w3.org/2000/svg">
<path d="M308.966 888.729L311.781 864.354L314.379 841.774L328.02 818.884L319.081 813.564L310.172 808.243L296.531 831.133L277.879 844.156L257.773 858.199C253.906 860.89 254.123 866.674 258.175 869.056L278.714 881.305L299.253 893.555C303.305 895.967 308.471 893.4 308.997 888.729H308.966Z" fill="white"/>
<mask id="mask0_222_33262" style="mask-type:luminance" maskUnits="userSpaceOnUse" x="255" y="808" width="74" height="87">
<path d="M308.966 888.729L311.781 864.354L314.379 841.774L328.02 818.884L319.081 813.564L310.172 808.243L296.531 831.133L277.879 844.156L257.773 858.199C253.906 860.89 254.123 866.674 258.175 869.056L278.714 881.305L299.253 893.555C303.305 895.967 308.471 893.4 308.997 888.729H308.966Z" fill="white"/>
</mask>
<g mask="url(#mask0_222_33262)">
<path d="M250.133 841.279C256.876 841.279 263.712 841.248 270.301 842.764C276.89 844.279 283.293 847.496 287.407 852.879C290.376 856.745 292.046 861.602 295.511 865.035C303.213 872.706 316.143 870.634 326.072 875.057L305.657 908.619L232.811 868.035L250.133 841.279Z" fill="#9DD3EB"/>
</g>
<path d="M304.853 837.505C304.11 838.773 302.471 839.206 301.203 838.433C299.934 837.691 299.501 836.051 300.275 834.752C301.048 833.484 302.656 833.082 303.956 833.824C305.224 834.598 305.626 836.237 304.884 837.505H304.853Z" fill="#9DD3EB"/>
<path d="M306.244 848.208C305.811 848.888 304.914 849.136 304.203 848.703C303.491 848.301 303.275 847.373 303.677 846.661C304.11 845.95 305.007 845.733 305.719 846.135C306.43 846.537 306.647 847.465 306.244 848.177V848.208Z" fill="#9DD3EB"/>
<path d="M298.541 851.672C297.923 852.693 296.624 853.002 295.634 852.415C294.613 851.827 294.304 850.497 294.891 849.507C295.51 848.486 296.809 848.177 297.799 848.765C298.82 849.352 299.16 850.682 298.541 851.672Z" fill="#9DD3EB"/>
<path d="M327.123 819.874L309.832 809.573C308.935 809.047 308.625 807.841 309.151 806.944C309.708 806.016 310.883 805.738 311.78 806.264L329.072 816.564C329.969 817.09 330.278 818.296 329.721 819.193C329.164 820.09 328.02 820.4 327.092 819.843L327.123 819.874Z" fill="#9DD3EB"/>
<path d="M311.379 833.762C310.636 832.803 310.513 831.411 311.193 830.298C312.059 828.844 313.977 828.349 315.431 829.246C316.916 830.112 317.38 832.03 316.514 833.484C315.647 834.938 313.73 835.433 312.276 834.566C311.936 834.35 311.626 834.072 311.41 833.762H311.379ZM315.647 830.545C315.493 830.329 315.276 830.112 314.998 829.958C313.946 829.308 312.554 829.679 311.905 830.731C311.255 831.814 311.626 833.175 312.678 833.824C313.761 834.474 315.152 834.103 315.771 833.02C316.235 832.216 316.173 831.226 315.616 830.514L315.647 830.545Z" fill="#9DD3EB"/>
<path d="M1332.05 319.512L1303.36 305.654L1301 273.871L1327.37 255.945L1356.06 269.802L1358.42 301.586L1332.08 319.512H1332.05ZM1305.28 304.339L1331.9 317.187L1356.31 300.576L1354.14 271.118L1327.52 258.27L1303.11 274.88L1305.28 304.339Z" fill="#9DD3EB"/>
<path d="M1386.87 268.487L1372.83 260.319V244.076L1386.96 236L1401 244.168V260.411L1386.87 268.487ZM1374.85 259.157L1386.87 266.132L1398.92 259.218V245.33L1386.93 238.355L1374.88 245.269V259.157H1374.85Z" fill="white"/>
<path d="M1355.6 271.332L1354.53 269.588L1373.01 258.27L1374.08 260.014L1355.6 271.332Z" fill="white"/>
<path d="M1030.05 1936.51L1001.36 1922.65L999 1890.87L1025.37 1872.94L1054.06 1886.8L1056.42 1918.59L1030.08 1936.51H1030.05ZM1003.28 1921.34L1029.9 1934.19L1054.31 1917.58L1052.14 1888.12L1025.52 1875.27L1001.11 1891.88L1003.28 1921.34Z" fill="#9DD3EB"/>
<path d="M1084.87 1885.49L1070.83 1877.32V1861.08L1084.96 1853L1099 1861.17V1877.41L1084.87 1885.49ZM1072.85 1876.16L1084.87 1883.13L1096.92 1876.22V1862.33L1084.93 1855.36L1072.88 1862.27V1876.16H1072.85Z" fill="white"/>
<path d="M1053.6 1888.33L1052.53 1886.59L1071.01 1875.27L1072.08 1877.01L1053.6 1888.33Z" fill="white"/>
<path d="M211.745 3352.93L208.78 3384.66L179.82 3397.96L153.814 3379.52L156.779 3347.79L185.739 3334.48L211.734 3352.9L211.745 3352.93ZM206.874 3383.31L209.62 3353.89L185.531 3336.81L158.685 3349.14L155.939 3378.56L180.029 3395.63L206.874 3383.31Z" fill="#9DD3EB"/>
<path d="M144.79 3319.38L142.039 3335.39L126.818 3341.06L114.316 3330.64L117.066 3314.63L132.287 3308.96L144.79 3319.38ZM140.245 3333.91L142.582 3320.21L131.895 3311.33L118.882 3316.18L116.534 3329.85L127.221 3338.73L140.234 3333.88L140.245 3333.91Z" fill="white"/>
<path d="M158.373 3347.68L157.113 3349.3L140.055 3335.94L141.315 3334.32L158.373 3347.68Z" fill="white"/>
<path d="M909.332 4475.61L906.367 4507.34L877.407 4520.64L851.402 4502.19L854.367 4470.47L883.327 4457.16L909.322 4475.58L909.332 4475.61ZM904.462 4505.99L907.207 4476.57L883.118 4459.49L856.272 4471.81L853.527 4501.24L877.616 4518.31L904.462 4505.99Z" fill="#9DD3EB"/>
<path d="M842.377 4442.06L839.627 4458.07L824.406 4463.74L811.903 4453.32L814.653 4437.31L829.874 4431.64L842.377 4442.06ZM837.832 4456.58L840.17 4442.88L829.483 4434L816.469 4438.85L814.121 4452.53L824.808 4461.41L837.822 4456.56L837.832 4456.58Z" fill="white"/>
<path d="M855.96 4470.36L854.7 4471.97L837.642 4458.61L838.902 4457L855.96 4470.36Z" fill="white"/>
<path d="M227.942 77.4949L200 61.3711V29.1237L227.942 13L255.884 29.1237V61.3711L227.942 77.4949ZM203.092 59.5796L227.942 73.9118L252.763 59.5796V30.9152L227.942 16.583L203.092 30.9152V59.5796Z" fill="white"/>
<path d="M280.792 77.4949L252.85 61.3711V29.1237L280.792 13L308.734 29.1237V61.3711L280.792 77.4949ZM255.971 59.5796L280.792 73.9118L305.613 59.5796V30.9152L280.792 16.583L255.971 30.9152V59.5796Z" fill="#4091CC"/>
<path d="M307.059 123.179L279.146 107.055V74.8075L307.059 58.6838L335.001 74.8075V107.055L307.059 123.179ZM282.237 105.263L307.059 119.596L331.88 105.263V76.5991L307.059 62.2669L282.237 76.5991V105.263Z" fill="white"/>
<path d="M1268.2 674.53C1257.19 671.472 1250.72 660.078 1253.75 649.043L1292.52 508.684L1332.43 519.718L1293.66 660.048C1290.6 671.082 1279.2 677.529 1268.17 674.5L1268.2 674.53Z" fill="white"/>
<mask id="mask1_222_33262" style="mask-type:luminance" maskUnits="userSpaceOnUse" x="1253" y="508" width="80" height="168">
<path d="M1268.2 674.53C1257.19 671.472 1250.72 660.078 1253.75 649.043L1292.52 508.684L1332.43 519.718L1293.66 660.048C1290.6 671.082 1279.2 677.529 1268.17 674.5L1268.2 674.53Z" fill="white"/>
</mask>
<g mask="url(#mask1_222_33262)">
<path d="M1268.14 551.862C1272.16 549.793 1276.32 547.904 1280.79 547.094C1285.26 546.315 1290.06 546.675 1293.93 549.013C1297.4 551.082 1299.86 554.471 1303.19 556.81C1311.26 562.567 1322.2 560.947 1331.95 559.088L1294.77 693.661L1239.41 678.339L1268.14 551.862Z" fill="#4091CC"/>
</g>
<path d="M1332.78 521.577L1291.29 510.093C1289.1 509.493 1287.81 507.214 1288.41 505.026C1289.01 502.837 1291.29 501.547 1293.47 502.147L1334.97 513.601C1337.16 514.201 1338.45 516.48 1337.85 518.669C1337.25 520.858 1334.97 522.147 1332.78 521.517V521.577Z" fill="#4091CC"/>
<path d="M1305.2 583.646C1304.51 586.075 1301.99 587.514 1299.53 586.855C1297.07 586.195 1295.63 583.646 1296.29 581.187C1296.98 578.729 1299.53 577.289 1301.96 577.979C1304.42 578.639 1305.86 581.187 1305.17 583.646H1305.2Z" fill="white"/>
<path d="M1287.9 590.843C1287.51 592.282 1286.01 593.091 1284.6 592.702C1283.19 592.312 1282.35 590.843 1282.77 589.433C1283.16 588.024 1284.6 587.184 1286.04 587.574C1287.48 587.964 1288.32 589.433 1287.93 590.843H1287.9Z" fill="white"/>
<path d="M1290.39 620.468C1289.73 620.468 1289.07 620.378 1288.44 620.198C1286.55 619.688 1284.99 618.459 1284.03 616.779C1283.07 615.07 1282.8 613.091 1283.34 611.202C1284.42 607.304 1288.44 605.025 1292.34 606.105C1296.23 607.184 1298.51 611.202 1297.43 615.1C1296.92 616.989 1295.69 618.578 1293.98 619.508C1292.88 620.138 1291.65 620.468 1290.39 620.468ZM1290.39 607.634C1287.99 607.634 1285.74 609.253 1285.08 611.712C1284.69 613.121 1284.87 614.62 1285.59 615.88C1286.34 617.169 1287.51 618.069 1288.92 618.489C1290.36 618.878 1291.83 618.698 1293.12 617.979C1294.4 617.259 1295.33 616.06 1295.72 614.65C1296.53 611.712 1294.79 608.683 1291.86 607.874C1291.38 607.724 1290.87 607.664 1290.39 607.664V607.634Z" fill="white"/>
<path d="M1181.49 20.9218C1179.14 15.0898 1176.79 9.27285 1174.44 3.41071C1174.56 3.35043 1174.67 3.30522 1174.79 3.24494C1175.22 3.0641 1175.68 2.88326 1176.11 2.67229C1176.79 2.35582 1177.09 1.85852 1177.02 1.19545C1176.96 0.44196 1176.39 -0.055343 1175.62 0.00493617C1175.38 0.020006 1175.12 0.110425 1174.88 0.185774C1174.31 0.41182 1173.73 0.637867 1173.15 0.878984C1167.8 3.09424 1162.46 5.32457 1157.11 7.53983C1156.4 7.84122 1155.69 8.14262 1154.99 8.45908C1154.96 8.47415 1154.93 8.48922 1154.9 8.50429C1154.17 8.83583 1153.86 9.45369 1154.07 10.1168C1154.29 10.825 1155.05 11.2771 1155.78 11.1264C1156.01 11.0812 1156.24 10.9757 1156.46 10.9004C1156.85 10.7497 1157.23 10.599 1157.65 10.4182C1157.73 10.5839 1157.8 10.7196 1157.86 10.8702C1159.63 15.2556 1161.39 19.6559 1163.14 24.0563C1163.56 25.0961 1163.97 26.151 1164.39 27.1908C1164.43 27.3114 1164.46 27.4319 1164.53 27.5676C1164.37 27.7032 1164.24 27.8087 1164.1 27.9292C1158.01 32.9324 1154.17 39.2617 1152.64 46.9473C1151.46 52.8245 1151.93 58.5962 1153.95 64.2173C1156.39 70.9987 1160.68 76.3334 1166.7 80.2967C1172.32 84.0039 1178.51 85.8726 1185.23 85.6767C1194.39 85.4054 1202.11 81.8339 1208.36 75.1278C1212.27 70.9384 1214.86 66.0257 1216.18 60.4498C1217.28 55.8385 1217.24 51.2121 1216.24 46.5706C1214.27 37.3629 1208.33 29.3759 1200.09 24.855C1194.47 21.7808 1188.44 20.5149 1182.05 20.9067C1181.92 20.9067 1181.78 20.9369 1181.64 20.9369C1181.61 20.9369 1181.57 20.9369 1181.49 20.9067V20.9218Z" fill="white"/>
<path d="M1155.83 42.5167C1155.77 42.6825 1155.72 42.8483 1155.68 42.999C1153.93 48.2583 1153.63 53.593 1154.78 59.0181C1156.93 69.0848 1164.09 77.5389 1173.88 81.2461C1179.91 83.5216 1186.06 83.823 1192.31 82.2407C1201.22 79.9651 1208.94 73.455 1212.63 64.5487C1214.8 59.3497 1215.45 53.9396 1214.63 48.3638C1214.63 48.2885 1214.6 48.2131 1214.6 48.1378C1214.59 47.8816 1214.45 47.7158 1214.21 47.6404C1213.85 47.5199 1213.52 47.3843 1213.17 47.2788C1210.47 46.4047 1207.73 46.3595 1204.97 46.9623C1203.65 47.2486 1202.37 47.6404 1201.11 48.1227C1199.05 48.9214 1197.08 49.8858 1195.09 50.8503C1192.89 51.9504 1190.7 53.0656 1188.41 53.9547C1185.64 55.0246 1182.81 55.8836 1179.85 56.2905C1177.38 56.6371 1174.91 56.6522 1172.44 56.2302C1169.18 55.6726 1166.23 54.3917 1163.53 52.4628C1161.33 50.8805 1159.45 49.0118 1157.97 46.7513C1157.17 45.5156 1156.54 44.2045 1156.09 42.8181C1156.06 42.7277 1156.01 42.6373 1155.97 42.5469C1155.92 42.5469 1155.89 42.5318 1155.83 42.5318V42.5167Z" fill="#FAD940"/>
<path d="M1162.94 44.4608C1163.74 46.4349 1166 47.3994 1167.96 46.6158C1169.97 45.8171 1170.93 43.5717 1170.12 41.5674C1169.32 39.5631 1167.04 38.6137 1165.04 39.4426C1163.03 40.2563 1162.13 42.4565 1162.93 44.4608H1162.94Z" fill="#FAD940"/>
<path d="M1174.47 47.9569C1173.05 48.5446 1172.42 50.1119 1173.01 51.5435C1173.6 52.9752 1175.19 53.6533 1176.6 53.0656C1178.01 52.4779 1178.68 50.8503 1178.09 49.4187C1177.5 48.0021 1175.92 47.3692 1174.47 47.9569Z" fill="#FAD940"/>
<path d="M1163.18 66.5681C1164.06 68.693 1165.31 70.5767 1166.86 72.2645C1167.25 72.7015 1167.74 73.0933 1168.19 73.455C1168.59 73.7866 1169.09 73.9975 1169.6 74.1332C1170.1 74.2537 1170.6 74.2688 1171.1 74.1332C1172.15 73.8468 1172.83 73.0783 1172.98 72.0083C1173.07 71.2247 1172.92 70.4863 1172.51 69.8232C1172.2 69.3259 1171.85 68.8437 1171.46 68.3916C1170.99 67.8491 1170.48 67.3668 1169.97 66.8544C1168.53 65.4228 1167.21 63.9008 1166.12 62.1828C1165.75 61.5951 1165.4 61.0074 1165.02 60.4347C1164.81 60.1333 1164.6 59.8169 1164.34 59.5607C1163.59 58.8223 1162.57 59.0784 1162.19 60.0429C1162.04 60.4649 1162.01 60.9019 1162.01 61.3389C1162.02 62.6048 1162.28 63.8405 1162.66 65.0611C1162.81 65.5584 1163 66.0558 1163.18 66.5531V66.5681Z" fill="white"/>
<path d="M1173.01 66.0709C1173.21 66.4175 1173.42 66.8696 1173.72 67.2765C1174.29 68.0149 1175.04 68.3917 1175.99 68.2711C1176.82 68.1656 1177.43 67.593 1177.59 66.7792C1177.71 66.2216 1177.62 65.6791 1177.35 65.1969C1177.2 64.9407 1177.03 64.6694 1176.81 64.4886C1176.08 63.9009 1175.33 63.3433 1174.58 62.7857C1174.43 62.6652 1174.22 62.5898 1174.02 62.5295C1173.07 62.2432 1172.36 62.8008 1172.41 63.7803C1172.41 63.9612 1172.44 64.142 1172.48 64.3228C1172.65 64.8804 1172.81 65.4229 1173.01 66.0709Z" fill="white"/>
<path d="M1176.57 73.3797C1175.62 73.7866 1174.97 74.8113 1175.04 75.7908C1175.1 76.5142 1175.44 77.0567 1176.1 77.3581C1176.75 77.6294 1177.36 77.4937 1177.91 77.0869C1178.74 76.4539 1179.07 75.0072 1178.6 74.088C1178.22 73.3043 1177.41 73.0331 1176.57 73.3948V73.3797Z" fill="white"/>
<path d="M87.3795 315.479C86.905 315.479 86.4602 315.213 86.2526 314.768L65.7321 270.643C65.4355 270.02 65.7321 269.278 66.3251 268.982C66.9479 268.685 67.6892 268.982 67.9858 269.575L88.5064 313.7C88.8029 314.323 88.5064 315.064 87.8836 315.361C87.7057 315.45 87.5278 315.479 87.3498 315.479H87.3795Z" fill="white"/>
<path d="M97.5495 309.816C97.075 309.816 96.6302 309.549 96.4226 309.074L75.9317 264.949C75.6352 264.326 75.902 263.585 76.5248 263.288C77.1475 262.992 77.8889 263.288 78.1854 263.911L98.706 308.036C99.0025 308.659 98.706 309.4 98.1129 309.697C97.935 309.756 97.7571 309.816 97.5791 309.816H97.5495Z" fill="white"/>
<path d="M105.467 299.259C104.993 299.259 104.548 298.992 104.34 298.547L89.0685 265.661C88.7719 265.038 89.0685 264.297 89.6616 264C90.2843 263.704 91.0256 264 91.3222 264.623L106.594 297.479C106.891 298.102 106.594 298.844 106.001 299.14C105.823 299.229 105.645 299.259 105.467 299.259Z" fill="white"/>
<path d="M232.655 247.927C232.18 247.927 231.736 247.661 231.528 247.216L211.007 203.091C210.711 202.468 211.007 201.726 211.63 201.43C212.253 201.133 212.994 201.43 213.291 202.023L233.811 246.148C234.108 246.771 233.811 247.512 233.189 247.809C233.011 247.898 232.833 247.927 232.655 247.927Z" fill="white"/>
<path d="M221.771 252.049C221.297 252.049 220.852 251.783 220.644 251.338L200.124 207.213C199.827 206.59 200.124 205.848 200.717 205.552C201.339 205.255 202.081 205.552 202.377 206.145L222.898 250.27C223.194 250.893 222.898 251.634 222.305 251.931C222.127 252.02 221.949 252.049 221.771 252.049Z" fill="white"/>
<path d="M170.855 275.713C170.38 275.713 169.935 275.446 169.728 274.972L149.207 230.876C148.911 230.254 149.207 229.512 149.83 229.216C150.453 228.919 151.194 229.216 151.49 229.809L172.011 273.934C172.308 274.557 172.011 275.298 171.388 275.595C171.21 275.684 171.032 275.713 170.855 275.713Z" fill="white"/>
<path d="M160.091 281.674C159.616 281.674 159.172 281.407 158.964 280.962L138.443 236.837C138.147 236.214 138.443 235.473 139.066 235.176C139.689 234.88 140.43 235.176 140.727 235.769L161.247 279.894C161.544 280.517 161.247 281.259 160.625 281.555C160.447 281.644 160.269 281.644 160.091 281.644V281.674Z" fill="white"/>
<path d="M148.614 286.063C148.14 286.063 147.695 285.796 147.487 285.351L126.967 241.226C126.67 240.603 126.967 239.862 127.59 239.565C128.212 239.269 128.954 239.565 129.25 240.158L149.741 284.254C150.038 284.906 149.741 285.618 149.148 285.914C148.97 286.003 148.792 286.033 148.614 286.033V286.063Z" fill="white"/>
<path d="M135.951 287.931C135.477 287.931 135.032 287.664 134.824 287.219L117.062 248.995C116.765 248.372 117.062 247.631 117.655 247.334C118.277 247.038 119.019 247.334 119.315 247.928L137.078 286.122C137.375 286.745 137.078 287.486 136.485 287.783C136.307 287.872 136.129 287.901 135.951 287.901V287.931Z" fill="white"/>
<path d="M180.463 267.232C179.989 267.232 179.544 266.995 179.336 266.521L161.573 228.296C161.277 227.674 161.573 226.932 162.166 226.636C162.789 226.339 163.531 226.636 163.827 227.229L181.59 265.453C181.886 266.076 181.59 266.847 180.997 267.114C180.819 267.203 180.641 267.203 180.463 267.203V267.232Z" fill="white"/>
<path d="M208.605 251.308C208.13 251.308 207.686 251.041 207.478 250.567L192.206 217.71C191.91 217.087 192.206 216.346 192.799 216.049C193.422 215.753 194.163 216.049 194.46 216.672L209.732 249.529C210.028 250.152 209.732 250.893 209.139 251.19C208.961 251.278 208.783 251.308 208.605 251.308Z" fill="white"/>
<path d="M59 262.903L63.5667 272.748C80.2323 265.008 93.2801 271.74 108.374 279.539C123.764 287.486 141.231 296.501 162.73 286.507C184.199 276.514 188.558 257.357 192.443 240.455C196.209 223.878 199.471 209.585 216.137 201.845L211.57 192C190.071 201.993 185.712 221.15 181.857 238.053C178.091 254.629 174.829 268.923 158.163 276.662C141.498 284.402 128.479 277.671 113.356 269.871C97.9654 261.924 80.4992 252.909 59 262.903Z" fill="#FAD940"/>
<path d="M192.414 240.455C191.91 242.679 191.406 244.962 190.813 247.216C204.039 253.71 218.806 259.166 236.302 252.198C237.755 251.605 238.467 249.944 237.785 248.491L235.502 243.568C234.909 242.293 233.396 241.641 232.121 242.145C217.917 247.75 206.233 242.857 193.334 236.333C193.007 237.697 192.711 239.061 192.385 240.425L192.414 240.455Z" fill="#4091CC"/>
<path d="M193.333 236.54C192.532 240.01 191.731 243.598 190.842 247.216C204.72 254.066 220.348 259.73 239 251.041L234.433 241.196C219.25 248.283 207.063 243.272 193.57 236.422C193.481 236.481 193.422 236.481 193.333 236.54Z" fill="#4091CC"/>
<path d="M116.143 275.921C119.909 259.344 123.171 245.051 139.837 237.311C155.109 230.194 167.326 235.265 180.878 242.145C181.204 240.781 181.501 239.417 181.827 238.053C182.331 235.829 182.835 233.575 183.428 231.292C169.55 224.441 153.923 218.807 135.27 227.466C113.801 237.46 109.412 256.616 105.557 273.519C101.761 290.066 98.4992 304.389 81.8633 312.128L86.43 321.974C107.929 311.98 112.288 292.853 116.143 275.921Z" fill="#4091CC"/>
<path d="M62.2493 517.357L26.5757 513.591L12 480.857L33.0674 451.858L68.741 455.594L83.3167 488.359L62.2493 517.357ZM28.2292 511.355L61.1164 514.815L80.5608 488.053L67.1181 457.829L34.231 454.369L14.7559 481.132L28.1986 511.355H28.2292Z" fill="white"/>
<path d="M96.974 595.717L78.7544 593.818L71.3135 577.099L82.0615 562.278L100.281 564.177L107.722 580.926L96.974 595.747V595.717ZM80.3773 591.552L95.8104 593.175L104.936 580.62L98.6276 566.443L83.1945 564.82L74.0694 577.374L80.3773 591.552Z" fill="#9DD3EB"/>
<path d="M102.516 449.286L85.5825 442.335L83.1328 424.177L97.6166 413L114.55 419.951L117 438.109L102.516 449.317V449.286ZM87.7872 440.62L102.149 446.5L114.428 437.007L112.345 421.635L97.9841 415.756L85.705 425.248L87.7872 440.651V440.62Z" fill="white"/>
<path d="M81.8471 564.146L60.6572 516.53L62.862 515.55L84.0824 563.166L81.8471 564.146Z" fill="#9DD3EB"/>
<path d="M68.6796 457.646L67.1792 455.747L86.1337 440.773L87.6341 442.672L68.6796 457.646Z" fill="white"/>
<path d="M1334.05 2678.51L1305.36 2664.65L1303 2632.87L1329.37 2614.94L1358.06 2628.8L1360.42 2660.59L1334.08 2678.51H1334.05ZM1307.28 2663.34L1333.9 2676.19L1358.31 2659.58L1356.14 2630.12L1329.52 2617.27L1305.11 2633.88L1307.28 2663.34Z" fill="#9DD3EB"/>
<path d="M1388.87 2627.49L1374.83 2619.32V2603.08L1388.96 2595L1403 2603.17V2619.41L1388.87 2627.49ZM1376.85 2618.16L1388.87 2625.13L1400.92 2618.22V2604.33L1388.93 2597.36L1376.88 2604.27V2618.16H1376.85Z" fill="white"/>
<path d="M1357.6 2630.33L1356.53 2628.59L1375.01 2617.27L1376.08 2619.01L1357.6 2630.33Z" fill="white"/>
<path d="M1299.05 4527.51L1270.36 4513.65L1268 4481.87L1294.37 4463.94L1323.06 4477.8L1325.42 4509.59L1299.08 4527.51H1299.05ZM1272.28 4512.34L1298.9 4525.19L1323.31 4508.58L1321.14 4479.12L1294.52 4466.27L1270.11 4482.88L1272.28 4512.34Z" fill="#9DD3EB"/>
<path d="M1353.87 4476.49L1339.83 4468.32V4452.08L1353.96 4444L1368 4452.17V4468.41L1353.87 4476.49ZM1341.85 4467.16L1353.87 4474.13L1365.92 4467.22V4453.33L1353.93 4446.36L1341.88 4453.27V4467.16H1341.85Z" fill="white"/>
<path d="M1322.6 4479.33L1321.53 4477.59L1340.01 4466.27L1341.08 4468.01L1322.6 4479.33Z" fill="white"/>
<path d="M120.049 3157.51L91.3555 3143.65L89 3111.87L115.369 3093.94L144.063 3107.8L146.418 3139.59L120.08 3157.51H120.049ZM93.2827 3142.34L119.896 3155.19L144.307 3138.58L142.136 3109.12L115.522 3096.27L91.1107 3112.88L93.2827 3142.34Z" fill="#9DD3EB"/>
<path d="M174.867 3106.49L160.826 3098.32V3082.08L174.959 3074L189 3082.17V3098.41L174.867 3106.49ZM162.845 3097.16L174.867 3104.13L186.92 3097.22V3083.33L174.928 3076.36L162.876 3083.27V3097.16H162.845Z" fill="white"/>
<path d="M143.604 3109.33L142.533 3107.59L161.01 3096.27L162.08 3098.01L143.604 3109.33Z" fill="white"/>
<path d="M1016.94 2624.49L989 2608.37V2576.12L1016.94 2560L1044.88 2576.12V2608.37L1016.94 2624.49ZM992.092 2606.58L1016.94 2620.91L1041.76 2606.58V2577.92L1016.94 2563.58L992.092 2577.92V2606.58Z" fill="white"/>
<path d="M1069.79 2624.49L1041.85 2608.37V2576.12L1069.79 2560L1097.73 2576.12V2608.37L1069.79 2624.49ZM1044.97 2606.58L1069.79 2620.91L1094.61 2606.58V2577.92L1069.79 2563.58L1044.97 2577.92V2606.58Z" fill="#4091CC"/>
<path d="M1096.06 2670.18L1068.15 2654.05V2621.81L1096.06 2605.68L1124 2621.81V2654.05L1096.06 2670.18ZM1071.24 2652.26L1096.06 2666.6L1120.88 2652.26V2623.6L1096.06 2609.27L1071.24 2623.6V2652.26Z" fill="white"/>
<path d="M175.579 2374.87L152.449 2402.28L117.174 2395.99L104.987 2362.28L128.091 2334.84L163.391 2341.16L175.579 2374.87ZM151.526 2399.66L172.839 2374.38L161.592 2343.27L129.031 2337.44L107.718 2362.73L118.948 2393.86L151.509 2399.69L151.526 2399.66Z" fill="white"/>
<path d="M259.927 2390.08L248.135 2404.09L230.12 2400.88L223.88 2383.66L235.673 2369.65L253.713 2372.88L259.953 2390.09L259.927 2390.08ZM247.17 2401.48L257.171 2389.61L251.896 2375.02L236.621 2372.29L226.62 2384.15L231.894 2398.75L247.17 2401.48Z" fill="#4091CC"/>
<path d="M141.816 2303.35L126.562 2313.46L110.156 2305.31L109.028 2287.05L124.282 2276.93L140.688 2285.09L141.841 2303.36L141.816 2303.35ZM126.379 2310.68L139.303 2302.09L138.333 2286.6L124.439 2279.7L111.516 2288.29L112.486 2303.78L126.405 2310.69L126.379 2310.68Z" fill="white"/>
<path d="M225.306 2384.89L174.001 2375.72L174.427 2373.35L225.749 2382.49L225.306 2384.89Z" fill="#4091CC"/>
<path d="M129.755 2336.05L127.342 2336.22L125.579 2312.13L127.992 2311.96L129.755 2336.05Z" fill="white"/>
<path d="M1089.58 3174.87L1066.45 3202.28L1031.17 3195.99L1018.99 3162.28L1042.09 3134.84L1077.39 3141.16L1089.58 3174.87ZM1065.53 3199.66L1086.84 3174.38L1075.59 3143.27L1043.03 3137.44L1021.72 3162.73L1032.95 3193.86L1065.51 3199.69L1065.53 3199.66Z" fill="white"/>
<path d="M1173.93 3190.08L1162.14 3204.09L1144.12 3200.88L1137.88 3183.66L1149.67 3169.65L1167.71 3172.88L1173.95 3190.09L1173.93 3190.08ZM1161.17 3201.48L1171.17 3189.61L1165.9 3175.02L1150.62 3172.29L1140.62 3184.15L1145.89 3198.75L1161.17 3201.48Z" fill="#4091CC"/>
<path d="M1055.82 3103.35L1040.56 3113.46L1024.16 3105.31L1023.03 3087.05L1038.28 3076.93L1054.69 3085.09L1055.84 3103.36L1055.82 3103.35ZM1040.38 3110.68L1053.3 3102.09L1052.33 3086.6L1038.44 3079.7L1025.52 3088.29L1026.49 3103.78L1040.4 3110.69L1040.38 3110.68Z" fill="white"/>
<path d="M1139.31 3184.89L1088 3175.72L1088.43 3173.35L1139.75 3182.49L1139.31 3184.89Z" fill="#4091CC"/>
<path d="M1043.75 3136.05L1041.34 3136.22L1039.58 3112.13L1041.99 3111.96L1043.75 3136.05Z" fill="white"/>
<path d="M219.579 3903.87L196.449 3931.28L161.174 3924.99L148.987 3891.28L172.091 3863.84L207.391 3870.16L219.579 3903.87ZM195.526 3928.66L216.839 3903.38L205.592 3872.27L173.031 3866.44L151.718 3891.73L162.948 3922.86L195.509 3928.69L195.526 3928.66Z" fill="white"/>
<path d="M303.927 3919.08L292.135 3933.09L274.12 3929.88L267.88 3912.66L279.673 3898.65L297.713 3901.88L303.953 3919.09L303.927 3919.08ZM291.17 3930.48L301.171 3918.61L295.896 3904.02L280.621 3901.29L270.62 3913.15L275.894 3927.75L291.17 3930.48Z" fill="#94D2EB"/>
<path d="M185.816 3832.35L170.562 3842.46L154.156 3834.31L153.028 3816.05L168.282 3805.93L184.688 3814.09L185.841 3832.36L185.816 3832.35ZM170.379 3839.68L183.303 3831.09L182.333 3815.6L168.439 3808.7L155.516 3817.29L156.486 3832.78L170.405 3839.69L170.379 3839.68Z" fill="white"/>
<path d="M269.306 3913.89L218.001 3904.72L218.427 3902.35L269.749 3911.49L269.306 3913.89Z" fill="#94D2EB"/>
<path d="M173.755 3865.05L171.342 3865.22L169.579 3841.13L171.992 3840.96L173.755 3865.05Z" fill="white"/>
<path d="M1262.97 2423.73L1265.78 2399.35L1268.38 2376.77L1282.02 2353.88L1273.08 2348.56L1264.17 2343.24L1250.53 2366.13L1231.88 2379.16L1211.77 2393.2C1207.91 2395.89 1208.12 2401.67 1212.18 2404.06L1232.71 2416.31L1253.25 2428.55C1257.31 2430.97 1262.47 2428.4 1263 2423.73H1262.97Z" fill="white"/>
<mask id="mask2_222_33262" style="mask-type:luminance" maskUnits="userSpaceOnUse" x="1209" y="2343" width="74" height="87">
<path d="M1262.97 2423.73L1265.78 2399.35L1268.38 2376.77L1282.02 2353.88L1273.08 2348.56L1264.17 2343.24L1250.53 2366.13L1231.88 2379.16L1211.77 2393.2C1207.91 2395.89 1208.12 2401.67 1212.18 2404.06L1232.71 2416.31L1253.25 2428.55C1257.31 2430.97 1262.47 2428.4 1263 2423.73H1262.97Z" fill="white"/>
</mask>
<g mask="url(#mask2_222_33262)">
<path d="M1204.13 2376.28C1210.88 2376.28 1217.71 2376.25 1224.3 2377.76C1230.89 2379.28 1237.29 2382.5 1241.41 2387.88C1244.38 2391.75 1246.05 2396.6 1249.51 2400.04C1257.21 2407.71 1270.14 2405.63 1280.07 2410.06L1259.66 2443.62L1186.81 2403.04L1204.13 2376.28Z" fill="#9DD3EB"/>
</g>
<path d="M1258.85 2372.51C1258.11 2373.77 1256.47 2374.21 1255.2 2373.43C1253.93 2372.69 1253.5 2371.05 1254.27 2369.75C1255.05 2368.48 1256.66 2368.08 1257.96 2368.82C1259.22 2369.6 1259.63 2371.24 1258.88 2372.51H1258.85Z" fill="#9DD3EB"/>
<path d="M1260.24 2383.21C1259.81 2383.89 1258.91 2384.14 1258.2 2383.7C1257.49 2383.3 1257.27 2382.37 1257.68 2381.66C1258.11 2380.95 1259.01 2380.73 1259.72 2381.14C1260.43 2381.54 1260.65 2382.47 1260.24 2383.18V2383.21Z" fill="#9DD3EB"/>
<path d="M1252.54 2386.67C1251.92 2387.69 1250.62 2388 1249.63 2387.41C1248.61 2386.83 1248.3 2385.5 1248.89 2384.51C1249.51 2383.49 1250.81 2383.18 1251.8 2383.76C1252.82 2384.35 1253.16 2385.68 1252.54 2386.67Z" fill="#9DD3EB"/>
<path d="M1281.12 2354.87L1263.83 2344.57C1262.93 2344.05 1262.63 2342.84 1263.15 2341.94C1263.71 2341.02 1264.88 2340.74 1265.78 2341.26L1283.07 2351.56C1283.97 2352.09 1284.28 2353.3 1283.72 2354.19C1283.16 2355.09 1282.02 2355.4 1281.09 2354.84L1281.12 2354.87Z" fill="#9DD3EB"/>
<path d="M1265.38 2368.76C1264.64 2367.8 1264.51 2366.41 1265.19 2365.3C1266.06 2363.84 1267.98 2363.35 1269.43 2364.25C1270.92 2365.11 1271.38 2367.03 1270.51 2368.48C1269.65 2369.94 1267.73 2370.43 1266.28 2369.57C1265.94 2369.35 1265.63 2369.07 1265.41 2368.76H1265.38ZM1269.65 2365.55C1269.49 2365.33 1269.28 2365.11 1269 2364.96C1267.95 2364.31 1266.55 2364.68 1265.9 2365.73C1265.26 2366.81 1265.63 2368.17 1266.68 2368.82C1267.76 2369.47 1269.15 2369.1 1269.77 2368.02C1270.24 2367.22 1270.17 2366.23 1269.62 2365.51L1269.65 2365.55Z" fill="#9DD3EB"/>
<path d="M896.049 1692.51L867.355 1678.65L865 1646.87L891.369 1628.94L920.063 1642.8L922.418 1674.59L896.08 1692.51H896.049ZM869.283 1677.34L895.896 1690.19L920.307 1673.58L918.136 1644.12L891.522 1631.27L867.111 1647.88L869.283 1677.34Z" fill="#9DD3EB"/>
<path d="M950.867 1641.49L936.826 1633.32V1617.08L950.959 1609L965 1617.17V1633.41L950.867 1641.49ZM938.845 1632.16L950.867 1639.13L962.92 1632.22V1618.33L950.928 1611.36L938.876 1618.27V1632.16H938.845Z" fill="white"/>
<path d="M919.604 1644.33L918.533 1642.59L937.01 1631.27L938.08 1633.01L919.604 1644.33Z" fill="white"/>
<path d="M1048.05 3892.51L1019.36 3878.65L1017 3846.87L1043.37 3828.94L1072.06 3842.8L1074.42 3874.59L1048.08 3892.51H1048.05ZM1021.28 3877.34L1047.9 3890.19L1072.31 3873.58L1070.14 3844.12L1043.52 3831.27L1019.11 3847.88L1021.28 3877.34Z" fill="#4091CC"/>
<path d="M1102.87 3841.49L1088.83 3833.32V3817.08L1102.96 3809L1117 3817.17V3833.41L1102.87 3841.49ZM1090.85 3832.16L1102.87 3839.13L1114.92 3832.22V3818.33L1102.93 3811.36L1090.88 3818.27V3832.16H1090.85Z" fill="white"/>
<path d="M1071.6 3844.33L1070.53 3842.59L1089.01 3831.27L1090.08 3833.01L1071.6 3844.33Z" fill="white"/>
<path d="M1255.38 1142.48C1254.91 1142.48 1254.46 1142.21 1254.25 1141.77L1233.73 1097.64C1233.44 1097.02 1233.73 1096.28 1234.33 1095.98C1234.95 1095.69 1235.69 1095.98 1235.99 1096.57L1256.51 1140.7C1256.8 1141.32 1256.51 1142.06 1255.88 1142.36C1255.71 1142.45 1255.53 1142.48 1255.35 1142.48H1255.38Z" fill="white"/>
<path d="M1265.55 1136.82C1265.08 1136.82 1264.63 1136.55 1264.42 1136.07L1243.93 1091.95C1243.64 1091.33 1243.9 1090.58 1244.52 1090.29C1245.15 1089.99 1245.89 1090.29 1246.19 1090.91L1266.71 1135.04C1267 1135.66 1266.71 1136.4 1266.11 1136.7C1265.93 1136.76 1265.76 1136.82 1265.58 1136.82H1265.55Z" fill="white"/>
<path d="M1273.47 1126.26C1272.99 1126.26 1272.55 1125.99 1272.34 1125.55L1257.07 1092.66C1256.77 1092.04 1257.07 1091.3 1257.66 1091C1258.28 1090.7 1259.03 1091 1259.32 1091.62L1274.59 1124.48C1274.89 1125.1 1274.59 1125.84 1274 1126.14C1273.82 1126.23 1273.65 1126.26 1273.47 1126.26Z" fill="white"/>
<path d="M1400.65 1074.93C1400.18 1074.93 1399.74 1074.66 1399.53 1074.22L1379.01 1030.09C1378.71 1029.47 1379.01 1028.73 1379.63 1028.43C1380.25 1028.13 1380.99 1028.43 1381.29 1029.02L1401.81 1073.15C1402.11 1073.77 1401.81 1074.51 1401.19 1074.81C1401.01 1074.9 1400.83 1074.93 1400.65 1074.93Z" fill="white"/>
<path d="M1389.77 1079.05C1389.3 1079.05 1388.85 1078.78 1388.64 1078.34L1368.12 1034.21C1367.83 1033.59 1368.12 1032.85 1368.72 1032.55C1369.34 1032.26 1370.08 1032.55 1370.38 1033.14L1390.9 1077.27C1391.19 1077.89 1390.9 1078.63 1390.3 1078.93C1390.13 1079.02 1389.95 1079.05 1389.77 1079.05Z" fill="white"/>
<path d="M1338.85 1102.71C1338.38 1102.71 1337.94 1102.45 1337.73 1101.97L1317.21 1057.88C1316.91 1057.25 1317.21 1056.51 1317.83 1056.22C1318.45 1055.92 1319.19 1056.22 1319.49 1056.81L1340.01 1100.93C1340.31 1101.56 1340.01 1102.3 1339.39 1102.59C1339.21 1102.68 1339.03 1102.71 1338.85 1102.71Z" fill="white"/>
<path d="M1328.09 1108.67C1327.62 1108.67 1327.17 1108.41 1326.96 1107.96L1306.44 1063.84C1306.15 1063.21 1306.44 1062.47 1307.07 1062.18C1307.69 1061.88 1308.43 1062.18 1308.73 1062.77L1329.25 1106.89C1329.54 1107.52 1329.25 1108.26 1328.62 1108.56C1328.45 1108.64 1328.27 1108.64 1328.09 1108.64V1108.67Z" fill="white"/>
<path d="M1316.61 1113.06C1316.14 1113.06 1315.7 1112.8 1315.49 1112.35L1294.97 1068.23C1294.67 1067.6 1294.97 1066.86 1295.59 1066.57C1296.21 1066.27 1296.95 1066.57 1297.25 1067.16L1317.74 1111.25C1318.04 1111.91 1317.74 1112.62 1317.15 1112.91C1316.97 1113 1316.79 1113.03 1316.61 1113.03V1113.06Z" fill="white"/>
<path d="M1303.95 1114.93C1303.48 1114.93 1303.03 1114.66 1302.82 1114.22L1285.06 1076C1284.77 1075.37 1285.06 1074.63 1285.65 1074.33C1286.28 1074.04 1287.02 1074.33 1287.32 1074.93L1305.08 1113.12C1305.37 1113.74 1305.08 1114.49 1304.49 1114.78C1304.31 1114.87 1304.13 1114.9 1303.95 1114.9V1114.93Z" fill="white"/>
<path d="M1348.46 1094.23C1347.99 1094.23 1347.54 1094 1347.34 1093.52L1329.57 1055.3C1329.28 1054.67 1329.57 1053.93 1330.17 1053.64C1330.79 1053.34 1331.53 1053.64 1331.83 1054.23L1349.59 1092.45C1349.89 1093.08 1349.59 1093.85 1349 1094.11C1348.82 1094.2 1348.64 1094.2 1348.46 1094.2V1094.23Z" fill="white"/>
<path d="M1376.6 1078.31C1376.13 1078.31 1375.69 1078.04 1375.48 1077.57L1360.21 1044.71C1359.91 1044.09 1360.21 1043.35 1360.8 1043.05C1361.42 1042.75 1362.16 1043.05 1362.46 1043.67L1377.73 1076.53C1378.03 1077.15 1377.73 1077.89 1377.14 1078.19C1376.96 1078.28 1376.78 1078.31 1376.6 1078.31Z" fill="white"/>
<path d="M1227 1089.9L1231.57 1099.75C1248.23 1092.01 1261.28 1098.74 1276.37 1106.54C1291.76 1114.49 1309.23 1123.5 1330.73 1113.51C1352.2 1103.51 1356.56 1084.36 1360.44 1067.45C1364.21 1050.88 1367.47 1036.58 1384.14 1028.85L1379.57 1019C1358.07 1028.99 1353.71 1048.15 1349.86 1065.05C1346.09 1081.63 1342.83 1095.92 1326.16 1103.66C1309.5 1111.4 1296.48 1104.67 1281.36 1096.87C1265.97 1088.92 1248.5 1079.91 1227 1089.9Z" fill="#FAD940"/>
<path d="M1360.41 1067.45C1359.91 1069.68 1359.41 1071.96 1358.81 1074.22C1372.04 1080.71 1386.81 1086.17 1404.3 1079.2C1405.76 1078.6 1406.47 1076.94 1405.78 1075.49L1403.5 1070.57C1402.91 1069.29 1401.4 1068.64 1400.12 1069.15C1385.92 1074.75 1374.23 1069.86 1361.33 1063.33C1361.01 1064.7 1360.71 1066.06 1360.38 1067.43L1360.41 1067.45Z" fill="#4091CC"/>
<path d="M1361.33 1063.54C1360.53 1067.01 1359.73 1070.6 1358.84 1074.22C1372.72 1081.07 1388.35 1086.73 1407 1078.04L1402.43 1068.2C1387.25 1075.28 1375.06 1070.27 1361.57 1063.42C1361.48 1063.48 1361.42 1063.48 1361.33 1063.54Z" fill="#4091CC"/>
<path d="M1284.14 1102.92C1287.91 1086.34 1291.17 1072.05 1307.84 1064.31C1323.11 1057.19 1335.33 1062.27 1348.88 1069.14C1349.2 1067.78 1349.5 1066.42 1349.83 1065.05C1350.33 1062.83 1350.84 1060.57 1351.43 1058.29C1337.55 1051.44 1321.92 1045.81 1303.27 1054.47C1281.8 1064.46 1277.41 1083.62 1273.56 1100.52C1269.76 1117.07 1266.5 1131.39 1249.86 1139.13L1254.43 1148.97C1275.93 1138.98 1280.29 1119.85 1284.14 1102.92Z" fill="#4091CC"/>
<path d="M281.38 2588.48C280.905 2588.48 280.46 2588.21 280.253 2587.77L259.732 2543.64C259.436 2543.02 259.732 2542.28 260.325 2541.98C260.948 2541.69 261.689 2541.98 261.986 2542.57L282.506 2586.7C282.803 2587.32 282.506 2588.06 281.884 2588.36C281.706 2588.45 281.528 2588.48 281.35 2588.48H281.38Z" fill="white"/>
<path d="M291.549 2582.82C291.075 2582.82 290.63 2582.55 290.423 2582.07L269.932 2537.95C269.635 2537.33 269.902 2536.58 270.525 2536.29C271.148 2535.99 271.889 2536.29 272.185 2536.91L292.706 2581.04C293.003 2581.66 292.706 2582.4 292.113 2582.7C291.935 2582.76 291.757 2582.82 291.579 2582.82H291.549Z" fill="white"/>
<path d="M299.467 2572.26C298.993 2572.26 298.548 2571.99 298.34 2571.55L283.068 2538.66C282.772 2538.04 283.068 2537.3 283.662 2537C284.284 2536.7 285.026 2537 285.322 2537.62L300.594 2570.48C300.891 2571.1 300.594 2571.84 300.001 2572.14C299.823 2572.23 299.645 2572.26 299.467 2572.26Z" fill="white"/>
<path d="M426.655 2520.93C426.18 2520.93 425.736 2520.66 425.528 2520.22L405.007 2476.09C404.711 2475.47 405.007 2474.73 405.63 2474.43C406.253 2474.13 406.994 2474.43 407.291 2475.02L427.811 2519.15C428.108 2519.77 427.811 2520.51 427.189 2520.81C427.011 2520.9 426.833 2520.93 426.655 2520.93Z" fill="white"/>
<path d="M415.771 2525.05C415.297 2525.05 414.852 2524.78 414.644 2524.34L394.124 2480.21C393.827 2479.59 394.124 2478.85 394.717 2478.55C395.339 2478.26 396.081 2478.55 396.377 2479.14L416.898 2523.27C417.194 2523.89 416.898 2524.63 416.305 2524.93C416.127 2525.02 415.949 2525.05 415.771 2525.05Z" fill="white"/>
<path d="M364.855 2548.71C364.38 2548.71 363.935 2548.45 363.728 2547.97L343.207 2503.88C342.911 2503.25 343.207 2502.51 343.83 2502.22C344.453 2501.92 345.194 2502.22 345.49 2502.81L366.011 2546.93C366.308 2547.56 366.011 2548.3 365.388 2548.59C365.21 2548.68 365.032 2548.71 364.855 2548.71Z" fill="white"/>
<path d="M354.091 2554.67C353.616 2554.67 353.172 2554.41 352.964 2553.96L332.443 2509.84C332.147 2509.21 332.443 2508.47 333.066 2508.18C333.689 2507.88 334.43 2508.18 334.727 2508.77L355.247 2552.89C355.544 2553.52 355.247 2554.26 354.625 2554.56C354.447 2554.64 354.269 2554.64 354.091 2554.64V2554.67Z" fill="white"/>
<path d="M342.614 2559.06C342.14 2559.06 341.695 2558.8 341.487 2558.35L320.967 2514.23C320.67 2513.6 320.967 2512.86 321.59 2512.57C322.212 2512.27 322.954 2512.57 323.25 2513.16L343.741 2557.25C344.038 2557.91 343.741 2558.62 343.148 2558.91C342.97 2559 342.792 2559.03 342.614 2559.03V2559.06Z" fill="white"/>
<path d="M329.951 2560.93C329.477 2560.93 329.032 2560.66 328.824 2560.22L311.062 2522C310.765 2521.37 311.062 2520.63 311.655 2520.33C312.277 2520.04 313.019 2520.33 313.315 2520.93L331.078 2559.12C331.375 2559.74 331.078 2560.49 330.485 2560.78C330.307 2560.87 330.129 2560.9 329.951 2560.9V2560.93Z" fill="white"/>
<path d="M374.463 2540.23C373.989 2540.23 373.544 2540 373.336 2539.52L355.573 2501.3C355.277 2500.67 355.573 2499.93 356.166 2499.64C356.789 2499.34 357.531 2499.64 357.827 2500.23L375.59 2538.45C375.886 2539.08 375.59 2539.85 374.997 2540.11C374.819 2540.2 374.641 2540.2 374.463 2540.2V2540.23Z" fill="white"/>
<path d="M402.605 2524.31C402.13 2524.31 401.686 2524.04 401.478 2523.57L386.206 2490.71C385.91 2490.09 386.206 2489.35 386.799 2489.05C387.422 2488.75 388.163 2489.05 388.46 2489.67L403.732 2522.53C404.028 2523.15 403.732 2523.89 403.139 2524.19C402.961 2524.28 402.783 2524.31 402.605 2524.31Z" fill="white"/>
<path d="M253 2535.9L257.567 2545.75C274.232 2538.01 287.28 2544.74 302.374 2552.54C317.764 2560.49 335.231 2569.5 356.73 2559.51C378.199 2549.51 382.558 2530.36 386.443 2513.45C390.209 2496.88 393.471 2482.58 410.137 2474.85L405.57 2465C384.071 2474.99 379.712 2494.15 375.857 2511.05C372.091 2527.63 368.829 2541.92 352.163 2549.66C335.498 2557.4 322.479 2550.67 307.356 2542.87C291.965 2534.92 274.499 2525.91 253 2535.9Z" fill="#FAD940"/>
<path d="M386.414 2513.45C385.91 2515.68 385.406 2517.96 384.813 2520.22C398.039 2526.71 412.806 2532.17 430.302 2525.2C431.755 2524.6 432.467 2522.94 431.785 2521.49L429.502 2516.57C428.909 2515.29 427.396 2514.64 426.121 2515.14C411.917 2520.75 400.233 2515.86 387.334 2509.33C387.007 2510.7 386.711 2512.06 386.385 2513.43L386.414 2513.45Z" fill="#4091CC"/>
<path d="M387.333 2509.54C386.532 2513.01 385.731 2516.6 384.842 2520.22C398.72 2527.07 414.348 2532.73 433 2524.04L428.433 2514.2C413.25 2521.28 401.063 2516.27 387.57 2509.42C387.481 2509.48 387.422 2509.48 387.333 2509.54Z" fill="#4091CC"/>
<path d="M310.143 2548.92C313.909 2532.34 317.171 2518.05 333.837 2510.31C349.109 2503.19 361.326 2508.27 374.878 2515.14C375.204 2513.78 375.501 2512.42 375.827 2511.05C376.331 2508.83 376.835 2506.57 377.428 2504.29C363.55 2497.44 347.923 2491.81 329.27 2500.47C307.801 2510.46 303.412 2529.62 299.557 2546.52C295.761 2563.07 292.499 2577.39 275.863 2585.13L280.43 2594.97C301.929 2584.98 306.288 2565.85 310.143 2548.92Z" fill="#4091CC"/>
<path d="M1310.38 3985.48C1309.91 3985.48 1309.46 3985.21 1309.25 3984.77L1288.73 3940.64C1288.44 3940.02 1288.73 3939.28 1289.33 3938.98C1289.95 3938.69 1290.69 3938.98 1290.99 3939.57L1311.51 3983.7C1311.8 3984.32 1311.51 3985.06 1310.88 3985.36C1310.71 3985.45 1310.53 3985.48 1310.35 3985.48H1310.38Z" fill="white"/>
<path d="M1320.55 3979.82C1320.08 3979.82 1319.63 3979.55 1319.42 3979.07L1298.93 3934.95C1298.64 3934.33 1298.9 3933.58 1299.52 3933.29C1300.15 3932.99 1300.89 3933.29 1301.19 3933.91L1321.71 3978.04C1322 3978.66 1321.71 3979.4 1321.11 3979.7C1320.93 3979.76 1320.76 3979.82 1320.58 3979.82H1320.55Z" fill="white"/>
<path d="M1328.47 3969.26C1327.99 3969.26 1327.55 3968.99 1327.34 3968.55L1312.07 3935.66C1311.77 3935.04 1312.07 3934.3 1312.66 3934C1313.28 3933.7 1314.03 3934 1314.32 3934.62L1329.59 3967.48C1329.89 3968.1 1329.59 3968.84 1329 3969.14C1328.82 3969.23 1328.65 3969.26 1328.47 3969.26Z" fill="white"/>
<path d="M1455.65 3917.93C1455.18 3917.93 1454.74 3917.66 1454.53 3917.22L1434.01 3873.09C1433.71 3872.47 1434.01 3871.73 1434.63 3871.43C1435.25 3871.13 1435.99 3871.43 1436.29 3872.02L1456.81 3916.15C1457.11 3916.77 1456.81 3917.51 1456.19 3917.81C1456.01 3917.9 1455.83 3917.93 1455.65 3917.93Z" fill="white"/>
<path d="M1444.77 3922.05C1444.3 3922.05 1443.85 3921.78 1443.64 3921.34L1423.12 3877.21C1422.83 3876.59 1423.12 3875.85 1423.72 3875.55C1424.34 3875.26 1425.08 3875.55 1425.38 3876.14L1445.9 3920.27C1446.19 3920.89 1445.9 3921.63 1445.3 3921.93C1445.13 3922.02 1444.95 3922.05 1444.77 3922.05Z" fill="white"/>
<path d="M1393.85 3945.71C1393.38 3945.71 1392.94 3945.45 1392.73 3944.97L1372.21 3900.88C1371.91 3900.25 1372.21 3899.51 1372.83 3899.22C1373.45 3898.92 1374.19 3899.22 1374.49 3899.81L1395.01 3943.93C1395.31 3944.56 1395.01 3945.3 1394.39 3945.59C1394.21 3945.68 1394.03 3945.71 1393.85 3945.71Z" fill="white"/>
<path d="M1383.09 3951.67C1382.62 3951.67 1382.17 3951.41 1381.96 3950.96L1361.44 3906.84C1361.15 3906.21 1361.44 3905.47 1362.07 3905.18C1362.69 3904.88 1363.43 3905.18 1363.73 3905.77L1384.25 3949.89C1384.54 3950.52 1384.25 3951.26 1383.62 3951.56C1383.45 3951.64 1383.27 3951.64 1383.09 3951.64V3951.67Z" fill="white"/>
<path d="M1371.61 3956.06C1371.14 3956.06 1370.7 3955.8 1370.49 3955.35L1349.97 3911.23C1349.67 3910.6 1349.97 3909.86 1350.59 3909.57C1351.21 3909.27 1351.95 3909.57 1352.25 3910.16L1372.74 3954.25C1373.04 3954.91 1372.74 3955.62 1372.15 3955.91C1371.97 3956 1371.79 3956.03 1371.61 3956.03V3956.06Z" fill="white"/>
<path d="M1358.95 3957.93C1358.48 3957.93 1358.03 3957.66 1357.82 3957.22L1340.06 3919C1339.77 3918.37 1340.06 3917.63 1340.65 3917.33C1341.28 3917.04 1342.02 3917.33 1342.32 3917.93L1360.08 3956.12C1360.37 3956.74 1360.08 3957.49 1359.49 3957.78C1359.31 3957.87 1359.13 3957.9 1358.95 3957.9V3957.93Z" fill="white"/>
<path d="M1403.46 3937.23C1402.99 3937.23 1402.54 3937 1402.34 3936.52L1384.57 3898.3C1384.28 3897.67 1384.57 3896.93 1385.17 3896.64C1385.79 3896.34 1386.53 3896.64 1386.83 3897.23L1404.59 3935.45C1404.89 3936.08 1404.59 3936.85 1404 3937.11C1403.82 3937.2 1403.64 3937.2 1403.46 3937.2V3937.23Z" fill="white"/>
<path d="M1431.6 3921.31C1431.13 3921.31 1430.69 3921.04 1430.48 3920.57L1415.21 3887.71C1414.91 3887.09 1415.21 3886.35 1415.8 3886.05C1416.42 3885.75 1417.16 3886.05 1417.46 3886.67L1432.73 3919.53C1433.03 3920.15 1432.73 3920.89 1432.14 3921.19C1431.96 3921.28 1431.78 3921.31 1431.6 3921.31Z" fill="white"/>
<path d="M1282 3932.9L1286.57 3942.75C1303.23 3935.01 1316.28 3941.74 1331.37 3949.54C1346.76 3957.49 1364.23 3966.5 1385.73 3956.51C1407.2 3946.51 1411.56 3927.36 1415.44 3910.45C1419.21 3893.88 1422.47 3879.58 1439.14 3871.85L1434.57 3862C1413.07 3871.99 1408.71 3891.15 1404.86 3908.05C1401.09 3924.63 1397.83 3938.92 1381.16 3946.66C1364.5 3954.4 1351.48 3947.67 1336.36 3939.87C1320.97 3931.92 1303.5 3922.91 1282 3932.9Z" fill="#FAD940"/>
<path d="M1415.41 3910.45C1414.91 3912.68 1414.41 3914.96 1413.81 3917.22C1427.04 3923.71 1441.81 3929.17 1459.3 3922.2C1460.76 3921.6 1461.47 3919.94 1460.78 3918.49L1458.5 3913.57C1457.91 3912.29 1456.4 3911.64 1455.12 3912.14C1440.92 3917.75 1429.23 3912.86 1416.33 3906.33C1416.01 3907.7 1415.71 3909.06 1415.38 3910.43L1415.41 3910.45Z" fill="#4091CC"/>
<path d="M1416.33 3906.54C1415.53 3910.01 1414.73 3913.6 1413.84 3917.22C1427.72 3924.07 1443.35 3929.73 1462 3921.04L1457.43 3911.2C1442.25 3918.28 1430.06 3913.27 1416.57 3906.42C1416.48 3906.48 1416.42 3906.48 1416.33 3906.54Z" fill="#4091CC"/>
<path d="M1339.14 3945.92C1342.91 3929.34 1346.17 3915.05 1362.84 3907.31C1378.11 3900.19 1390.33 3905.27 1403.88 3912.14C1404.2 3910.78 1404.5 3909.42 1404.83 3908.05C1405.33 3905.83 1405.84 3903.57 1406.43 3901.29C1392.55 3894.44 1376.92 3888.81 1358.27 3897.47C1336.8 3907.46 1332.41 3926.62 1328.56 3943.52C1324.76 3960.07 1321.5 3974.39 1304.86 3982.13L1309.43 3991.97C1330.93 3981.98 1335.29 3962.85 1339.14 3945.92Z" fill="#4091CC"/>
<path d="M274.942 1837.49L247 1821.37V1789.12L274.942 1773L302.884 1789.12V1821.37L274.942 1837.49ZM250.092 1819.58L274.942 1833.91L299.763 1819.58V1790.92L274.942 1776.58L250.092 1790.92V1819.58Z" fill="white"/>
<path d="M327.792 1837.49L299.85 1821.37V1789.12L327.792 1773L355.734 1789.12V1821.37L327.792 1837.49ZM302.971 1819.58L327.792 1833.91L352.613 1819.58V1790.92L327.792 1776.58L302.971 1790.92V1819.58Z" fill="#4091CC"/>
<path d="M354.059 1883.18L326.146 1867.05V1834.81L354.059 1818.68L382.001 1834.81V1867.05L354.059 1883.18ZM329.237 1865.26L354.059 1879.6L378.88 1865.26V1836.6L354.059 1822.27L329.237 1836.6V1865.26Z" fill="white"/>
<path d="M166.249 1070.36L130.576 1066.59L116 1033.86L137.067 1004.86L172.741 1008.59L187.317 1041.36L166.249 1070.36ZM132.229 1064.36L165.116 1067.82L184.561 1041.05L171.118 1010.83L138.231 1007.37L118.756 1034.13L132.199 1064.36H132.229Z" fill="white"/>
<path d="M200.974 1148.72L182.754 1146.82L175.313 1130.1L186.062 1115.28L204.281 1117.18L211.722 1133.93L200.974 1148.75V1148.72ZM184.377 1144.55L199.81 1146.17L208.936 1133.62L202.628 1119.44L187.194 1117.82L178.069 1130.37L184.377 1144.55Z" fill="#9DD3EB"/>
<path d="M206.516 1002.29L189.583 995.335L187.133 977.177L201.617 966L218.55 972.951L221 991.109L206.516 1002.32V1002.29ZM191.787 993.62L206.149 999.5L218.428 990.007L216.345 974.635L201.984 968.756L189.705 978.248L191.787 993.651V993.62Z" fill="white"/>
<path d="M185.847 1117.15L164.657 1069.53L166.862 1068.55L188.082 1116.17L185.847 1117.15Z" fill="#9DD3EB"/>
<path d="M172.68 1010.65L171.179 1008.75L190.134 993.773L191.634 995.672L172.68 1010.65Z" fill="white"/>
<path d="M15.1979 1793.53C4.19345 1790.47 -2.2833 1779.08 0.745182 1768.04L39.5157 1627.68L79.4257 1638.72L40.6552 1779.05C37.5967 1790.08 26.2024 1796.53 15.1679 1793.5L15.1979 1793.53Z" fill="white"/>
<mask id="mask3_222_33262" style="mask-type:luminance" maskUnits="userSpaceOnUse" x="0" y="1627" width="80" height="168">
<path d="M15.1979 1793.53C4.19345 1790.47 -2.2833 1779.08 0.745182 1768.04L39.5157 1627.68L79.4257 1638.72L40.6552 1779.05C37.5967 1790.08 26.2024 1796.53 15.1679 1793.5L15.1979 1793.53Z" fill="white"/>
</mask>
<g mask="url(#mask3_222_33262)">
<path d="M15.1387 1670.86C19.1567 1668.79 23.3246 1666.9 27.7923 1666.09C32.2601 1665.31 37.0577 1665.67 40.9257 1668.01C44.404 1670.08 46.8628 1673.47 50.1911 1675.81C58.257 1681.57 69.2016 1679.95 78.9467 1678.09L41.7653 1812.66L-13.5869 1797.34L15.1387 1670.86Z" fill="#4091CC"/>
</g>
<path d="M79.785 1640.58L38.2858 1629.09C36.0969 1628.49 34.8076 1626.21 35.4073 1624.03C36.007 1621.84 38.2858 1620.55 40.4747 1621.15L81.9739 1632.6C84.1628 1633.2 85.4522 1635.48 84.8525 1637.67C84.2528 1639.86 81.9739 1641.15 79.785 1640.52V1640.58Z" fill="#4091CC"/>
<path d="M52.1998 1702.65C51.5101 1705.07 48.9914 1706.51 46.5326 1705.85C44.0738 1705.19 42.6346 1702.65 43.2942 1700.19C43.9839 1697.73 46.5326 1696.29 48.9614 1696.98C51.4202 1697.64 52.8594 1700.19 52.1698 1702.65H52.1998Z" fill="white"/>
<path d="M34.8989 1709.84C34.5091 1711.28 33.0098 1712.09 31.6005 1711.7C30.1913 1711.31 29.3517 1709.84 29.7715 1708.43C30.1613 1707.02 31.6005 1706.18 33.0398 1706.57C34.4791 1706.96 35.3187 1708.43 34.9289 1709.84H34.8989Z" fill="white"/>
<path d="M37.3864 1739.47C36.7267 1739.47 36.067 1739.38 35.4374 1739.2C33.5483 1738.69 31.9891 1737.46 31.0296 1735.78C30.07 1734.07 29.8002 1732.09 30.3399 1730.2C31.4194 1726.3 35.4374 1724.03 39.3354 1725.1C43.2334 1726.18 45.5123 1730.2 44.4328 1734.1C43.9231 1735.99 42.6937 1737.58 40.9846 1738.51C39.8751 1739.14 38.6457 1739.47 37.3864 1739.47ZM37.3864 1726.63C34.9876 1726.63 32.7387 1728.25 32.079 1730.71C31.6892 1732.12 31.8691 1733.62 32.5888 1734.88C33.3384 1736.17 34.5078 1737.07 35.9171 1737.49C37.3564 1737.88 38.8257 1737.7 40.115 1736.98C41.4044 1736.26 42.3339 1735.06 42.7237 1733.65C43.5333 1730.71 41.7942 1727.68 38.8556 1726.87C38.3759 1726.72 37.8661 1726.66 37.3864 1726.66V1726.63Z" fill="white"/>
<path d="M1329.2 3429.53C1318.19 3426.47 1311.72 3415.08 1314.75 3404.04L1353.52 3263.68L1393.43 3274.72L1354.66 3415.05C1351.6 3426.08 1340.2 3432.53 1329.17 3429.5L1329.2 3429.53Z" fill="white"/>
<mask id="mask4_222_33262" style="mask-type:luminance" maskUnits="userSpaceOnUse" x="1314" y="3263" width="80" height="168">
<path d="M1329.2 3429.53C1318.19 3426.47 1311.72 3415.08 1314.75 3404.04L1353.52 3263.68L1393.43 3274.72L1354.66 3415.05C1351.6 3426.08 1340.2 3432.53 1329.17 3429.5L1329.2 3429.53Z" fill="white"/>
</mask>
<g mask="url(#mask4_222_33262)">
<path d="M1329.14 3306.86C1333.16 3304.79 1337.32 3302.9 1341.79 3302.09C1346.26 3301.31 1351.06 3301.67 1354.93 3304.01C1358.4 3306.08 1360.86 3309.47 1364.19 3311.81C1372.26 3317.57 1383.2 3315.95 1392.95 3314.09L1355.77 3448.66L1300.41 3433.34L1329.14 3306.86Z" fill="#4091CC"/>
</g>
<path d="M1393.78 3276.58L1352.29 3265.09C1350.1 3264.49 1348.81 3262.21 1349.41 3260.03C1350.01 3257.84 1352.29 3256.55 1354.47 3257.15L1395.97 3268.6C1398.16 3269.2 1399.45 3271.48 1398.85 3273.67C1398.25 3275.86 1395.97 3277.15 1393.78 3276.52V3276.58Z" fill="#4091CC"/>
<path d="M1366.2 3338.65C1365.51 3341.07 1362.99 3342.51 1360.53 3341.85C1358.07 3341.19 1356.63 3338.65 1357.29 3336.19C1357.98 3333.73 1360.53 3332.29 1362.96 3332.98C1365.42 3333.64 1366.86 3336.19 1366.17 3338.65H1366.2Z" fill="white"/>
<path d="M1348.9 3345.84C1348.51 3347.28 1347.01 3348.09 1345.6 3347.7C1344.19 3347.31 1343.35 3345.84 1343.77 3344.43C1344.16 3343.02 1345.6 3342.18 1347.04 3342.57C1348.48 3342.96 1349.32 3344.43 1348.93 3345.84H1348.9Z" fill="white"/>
<path d="M1351.39 3375.47C1350.73 3375.47 1350.07 3375.38 1349.44 3375.2C1347.55 3374.69 1345.99 3373.46 1345.03 3371.78C1344.07 3370.07 1343.8 3368.09 1344.34 3366.2C1345.42 3362.3 1349.44 3360.03 1353.34 3361.1C1357.23 3362.18 1359.51 3366.2 1358.43 3370.1C1357.92 3371.99 1356.69 3373.58 1354.98 3374.51C1353.88 3375.14 1352.65 3375.47 1351.39 3375.47ZM1351.39 3362.63C1348.99 3362.63 1346.74 3364.25 1346.08 3366.71C1345.69 3368.12 1345.87 3369.62 1346.59 3370.88C1347.34 3372.17 1348.51 3373.07 1349.92 3373.49C1351.36 3373.88 1352.83 3373.7 1354.12 3372.98C1355.4 3372.26 1356.33 3371.06 1356.72 3369.65C1357.53 3366.71 1355.79 3363.68 1352.86 3362.87C1352.38 3362.72 1351.87 3362.66 1351.39 3362.66V3362.63Z" fill="white"/>
<path d="M162.198 4534.53C151.193 4531.47 144.717 4520.08 147.745 4509.04L186.516 4368.68L226.426 4379.72L187.655 4520.05C184.597 4531.08 173.202 4537.53 162.168 4534.5L162.198 4534.53Z" fill="white"/>
<mask id="mask5_222_33262" style="mask-type:luminance" maskUnits="userSpaceOnUse" x="147" y="4368" width="80" height="168">
<path d="M162.198 4534.53C151.193 4531.47 144.717 4520.08 147.745 4509.04L186.516 4368.68L226.426 4379.72L187.655 4520.05C184.597 4531.08 173.202 4537.53 162.168 4534.5L162.198 4534.53Z" fill="white"/>
</mask>
<g mask="url(#mask5_222_33262)">
<path d="M162.139 4411.86C166.157 4409.79 170.325 4407.9 174.792 4407.09C179.26 4406.31 184.058 4406.67 187.926 4409.01C191.404 4411.08 193.863 4414.47 197.191 4416.81C205.257 4422.57 216.202 4420.95 225.947 4419.09L188.765 4553.66L133.413 4538.34L162.139 4411.86Z" fill="#4091CC"/>
</g>
<path d="M226.785 4381.58L185.286 4370.09C183.097 4369.49 181.808 4367.21 182.407 4365.03C183.007 4362.84 185.286 4361.55 187.475 4362.15L228.974 4373.6C231.163 4374.2 232.452 4376.48 231.852 4378.67C231.253 4380.86 228.974 4382.15 226.785 4381.52V4381.58Z" fill="#4091CC"/>
<path d="M199.2 4443.65C198.51 4446.07 195.991 4447.51 193.533 4446.85C191.074 4446.19 189.635 4443.65 190.294 4441.19C190.984 4438.73 193.533 4437.29 195.961 4437.98C198.42 4438.64 199.859 4441.19 199.17 4443.65H199.2Z" fill="white"/>
<path d="M181.899 4450.84C181.509 4452.28 180.01 4453.09 178.601 4452.7C177.191 4452.31 176.352 4450.84 176.771 4449.43C177.161 4448.02 178.601 4447.18 180.04 4447.57C181.479 4447.96 182.319 4449.43 181.929 4450.84H181.899Z" fill="white"/>
<path d="M184.386 4480.47C183.727 4480.47 183.067 4480.38 182.437 4480.2C180.548 4479.69 178.989 4478.46 178.03 4476.78C177.07 4475.07 176.8 4473.09 177.34 4471.2C178.419 4467.3 182.437 4465.03 186.335 4466.1C190.233 4467.18 192.512 4471.2 191.433 4475.1C190.923 4476.99 189.694 4478.58 187.985 4479.51C186.875 4480.14 185.646 4480.47 184.386 4480.47ZM184.386 4467.63C181.988 4467.63 179.739 4469.25 179.079 4471.71C178.689 4473.12 178.869 4474.62 179.589 4475.88C180.338 4477.17 181.508 4478.07 182.917 4478.49C184.356 4478.88 185.826 4478.7 187.115 4477.98C188.404 4477.26 189.334 4476.06 189.724 4474.65C190.533 4471.71 188.794 4468.68 185.856 4467.87C185.376 4467.72 184.866 4467.66 184.386 4467.66V4467.63Z" fill="white"/>
<path d="M1372.49 1814.92C1370.14 1809.09 1367.79 1803.27 1365.44 1797.41C1365.56 1797.35 1365.67 1797.31 1365.79 1797.24C1366.22 1797.06 1366.68 1796.88 1367.11 1796.67C1367.79 1796.36 1368.09 1795.86 1368.02 1795.2C1367.96 1794.44 1367.39 1793.94 1366.62 1794C1366.38 1794.02 1366.12 1794.11 1365.88 1794.19C1365.31 1794.41 1364.73 1794.64 1364.15 1794.88C1358.8 1797.09 1353.46 1799.32 1348.11 1801.54C1347.4 1801.84 1346.69 1802.14 1345.99 1802.46C1345.96 1802.47 1345.93 1802.49 1345.9 1802.5C1345.17 1802.84 1344.86 1803.45 1345.07 1804.12C1345.29 1804.83 1346.05 1805.28 1346.78 1805.13C1347.01 1805.08 1347.24 1804.98 1347.46 1804.9C1347.85 1804.75 1348.23 1804.6 1348.65 1804.42C1348.73 1804.58 1348.8 1804.72 1348.86 1804.87C1350.63 1809.26 1352.39 1813.66 1354.14 1818.06C1354.56 1819.1 1354.97 1820.15 1355.39 1821.19C1355.43 1821.31 1355.46 1821.43 1355.53 1821.57C1355.37 1821.7 1355.24 1821.81 1355.1 1821.93C1349.01 1826.93 1345.17 1833.26 1343.64 1840.95C1342.46 1846.82 1342.93 1852.6 1344.95 1858.22C1347.39 1865 1351.68 1870.33 1357.7 1874.3C1363.32 1878 1369.51 1879.87 1376.23 1879.68C1385.39 1879.41 1393.11 1875.83 1399.36 1869.13C1403.27 1864.94 1405.86 1860.03 1407.18 1854.45C1408.28 1849.84 1408.24 1845.21 1407.24 1840.57C1405.27 1831.36 1399.33 1823.38 1391.09 1818.86C1385.47 1815.78 1379.44 1814.51 1373.05 1814.91C1372.92 1814.91 1372.78 1814.94 1372.64 1814.94C1372.61 1814.94 1372.57 1814.94 1372.49 1814.91V1814.92Z" fill="white"/>
<path d="M1346.83 1836.52C1346.77 1836.68 1346.72 1836.85 1346.68 1837C1344.93 1842.26 1344.63 1847.59 1345.78 1853.02C1347.93 1863.08 1355.09 1871.54 1364.88 1875.25C1370.91 1877.52 1377.06 1877.82 1383.31 1876.24C1392.22 1873.97 1399.94 1867.45 1403.63 1858.55C1405.8 1853.35 1406.45 1847.94 1405.63 1842.36C1405.63 1842.29 1405.6 1842.21 1405.6 1842.14C1405.59 1841.88 1405.45 1841.72 1405.21 1841.64C1404.85 1841.52 1404.52 1841.38 1404.17 1841.28C1401.47 1840.4 1398.73 1840.36 1395.97 1840.96C1394.65 1841.25 1393.37 1841.64 1392.11 1842.12C1390.05 1842.92 1388.08 1843.89 1386.09 1844.85C1383.89 1845.95 1381.7 1847.07 1379.41 1847.95C1376.64 1849.02 1373.81 1849.88 1370.85 1850.29C1368.38 1850.64 1365.91 1850.65 1363.44 1850.23C1360.18 1849.67 1357.23 1848.39 1354.53 1846.46C1352.33 1844.88 1350.45 1843.01 1348.97 1840.75C1348.17 1839.52 1347.54 1838.2 1347.09 1836.82C1347.06 1836.73 1347.01 1836.64 1346.97 1836.55C1346.92 1836.55 1346.89 1836.53 1346.83 1836.53V1836.52Z" fill="#FAD940"/>
<path d="M1353.94 1838.46C1354.74 1840.43 1357 1841.4 1358.96 1840.62C1360.97 1839.82 1361.93 1837.57 1361.12 1835.57C1360.32 1833.56 1358.04 1832.61 1356.04 1833.44C1354.03 1834.26 1353.13 1836.46 1353.93 1838.46H1353.94Z" fill="#FAD940"/>
<path d="M1365.47 1841.96C1364.05 1842.54 1363.42 1844.11 1364.01 1845.54C1364.6 1846.98 1366.19 1847.65 1367.6 1847.07C1369.01 1846.48 1369.68 1844.85 1369.09 1843.42C1368.5 1842 1366.92 1841.37 1365.47 1841.96Z" fill="#FAD940"/>
<path d="M1354.18 1860.57C1355.06 1862.69 1356.31 1864.58 1357.86 1866.26C1358.25 1866.7 1358.74 1867.09 1359.19 1867.46C1359.59 1867.79 1360.09 1868 1360.6 1868.13C1361.1 1868.25 1361.6 1868.27 1362.1 1868.13C1363.15 1867.85 1363.83 1867.08 1363.98 1866.01C1364.07 1865.22 1363.92 1864.49 1363.51 1863.82C1363.2 1863.33 1362.85 1862.84 1362.46 1862.39C1361.99 1861.85 1361.48 1861.37 1360.97 1860.85C1359.53 1859.42 1358.21 1857.9 1357.12 1856.18C1356.75 1855.6 1356.4 1855.01 1356.02 1854.43C1355.81 1854.13 1355.6 1853.82 1355.34 1853.56C1354.59 1852.82 1353.57 1853.08 1353.19 1854.04C1353.04 1854.46 1353.01 1854.9 1353.01 1855.34C1353.02 1856.6 1353.28 1857.84 1353.66 1859.06C1353.81 1859.56 1354 1860.06 1354.18 1860.55V1860.57Z" fill="white"/>
<path d="M1364.01 1860.07C1364.21 1860.42 1364.42 1860.87 1364.72 1861.28C1365.29 1862.01 1366.04 1862.39 1366.99 1862.27C1367.82 1862.17 1368.43 1861.59 1368.59 1860.78C1368.71 1860.22 1368.62 1859.68 1368.35 1859.2C1368.2 1858.94 1368.03 1858.67 1367.81 1858.49C1367.08 1857.9 1366.33 1857.34 1365.58 1856.79C1365.43 1856.67 1365.22 1856.59 1365.02 1856.53C1364.07 1856.24 1363.36 1856.8 1363.41 1857.78C1363.41 1857.96 1363.44 1858.14 1363.48 1858.32C1363.65 1858.88 1363.81 1859.42 1364.01 1860.07Z" fill="white"/>
<path d="M1367.57 1867.38C1366.62 1867.79 1365.97 1868.81 1366.04 1869.79C1366.1 1870.51 1366.44 1871.06 1367.1 1871.36C1367.75 1871.63 1368.36 1871.49 1368.91 1871.09C1369.74 1870.45 1370.07 1869.01 1369.6 1868.09C1369.22 1867.3 1368.41 1867.03 1367.57 1867.39V1867.38Z" fill="white"/>
</svg>
