<svg width="193" height="43" viewBox="0 0 193 43" fill="none" xmlns="http://www.w3.org/2000/svg">
<g style="mix-blend-mode:luminosity">
<path d="M1.14 42.48V8.46H0L0.84 0.479997H9.3V42.48H1.14Z" fill="black"/>
<path d="M19.8717 29.28V34.68C19.8717 34.88 19.9717 34.98 20.1717 34.98H21.9117C22.1117 34.98 22.2117 34.88 22.2117 34.68L22.2717 26.7L15.4917 23.76C13.9717 23.08 12.9517 22.38 12.4317 21.66C11.9517 20.94 11.7117 19.84 11.7117 18.36V8.58C11.7117 5.5 12.3717 3.3 13.6917 1.98C15.0117 0.66 17.1517 0 20.1117 0H22.6317C25.4317 0.119998 27.4317 0.859998 28.6317 2.22C29.8317 3.54 30.4317 5.66 30.4317 8.58V16.08L22.2717 15.18V8.28C22.2717 8.08 22.1717 7.98 21.9717 7.98H20.1717C19.9717 7.98 19.8717 8.08 19.8717 8.28V17.1L26.6517 20.04C28.1717 20.68 29.1717 21.38 29.6517 22.14C30.1717 22.86 30.4317 23.96 30.4317 25.44V34.38C30.4317 37.3 29.8317 39.44 28.6317 40.8C27.4317 42.12 25.4317 42.84 22.6317 42.96H20.2317C17.1917 42.96 15.0117 42.3 13.6917 40.98C12.3717 39.62 11.7117 37.42 11.7117 34.38V29.28H19.8717Z" fill="black"/>
<path d="M33.9455 42.48V8.46H32.8055L33.6455 0.479997H44.6255C47.7055 0.479997 49.9055 1.16 51.2255 2.52C52.5855 3.84 53.2655 6.02 53.2655 9.06V22.74C53.2655 25.82 52.6055 28.02 51.2855 29.34L55.0055 42.48H46.8455L43.7255 31.32H42.1055V42.48H33.9455ZM44.8055 8.46H42.1055V23.34H44.8055C45.0055 23.34 45.1055 23.24 45.1055 23.04V8.76C45.1055 8.56 45.0055 8.46 44.8055 8.46Z" fill="black"/>
<path d="M57.1289 42.48L62.1089 8.46H60.8489L61.6889 0.479997H75.6689L81.8489 42.48H73.7489L72.8489 36.48H66.1289L65.2289 42.48H57.1289ZM67.2689 28.5H71.7089L69.4889 13.5L67.2689 28.5Z" fill="black"/>
<path d="M93.6319 25.5L94.1119 17.52H104.192V34.14C104.192 37.18 103.512 39.38 102.152 40.74C100.832 42.06 98.6319 42.72 95.5519 42.72H92.3119C89.2319 42.72 87.0119 42.06 85.6519 40.74C84.3319 39.38 83.6719 37.18 83.6719 34.14V8.82C83.6719 5.74 84.3319 3.54 85.6519 2.22C87.0119 0.899998 89.2319 0.239997 92.3119 0.239997H95.5519C98.6319 0.239997 100.832 0.899998 102.152 2.22C103.512 3.54 104.192 5.74 104.192 8.82V14.76L96.0319 13.86V8.52C96.0319 8.32 95.9319 8.22 95.7319 8.22H92.1319C91.9319 8.22 91.8319 8.32 91.8319 8.52V34.44C91.8319 34.64 91.9319 34.74 92.1319 34.74H95.7319C95.9319 34.74 96.0319 34.64 96.0319 34.44V25.5H93.6319Z" fill="black"/>
<path d="M107.722 42.48V8.46H106.582L107.422 0.479997H124.582L124.102 8.46H115.882V17.46H123.262L122.782 25.44H115.882V34.5H124.582L124.102 42.48H107.722Z" fill="black"/>
<path d="M128.113 42.48V8.46H126.973L127.813 0.479997H133.453L139.393 0.419998L142.273 23.1L145.213 0.479997H156.493V42.48H148.333V17.4L145.153 36.48H139.453L136.273 17.4V42.48H128.113Z" fill="black"/>
<path d="M189.661 42.48H176.161V42C176.161 39.8 177.041 38.62 178.801 38.46L180.541 38.34V5.64H180.481L176.221 5.28C176.101 5.04 176.121 4.5 176.281 3.66C176.641 2.14 177.521 1.38 178.921 1.38H192.421V1.86C192.421 4.06 191.541 5.24 189.781 5.4L188.041 5.52V38.22H188.101L192.361 38.58C192.601 41.18 191.701 42.48 189.661 42.48Z" fill="black"/>
</g>
</svg>
