<svg width="25" height="25" viewBox="0 0 25 25" fill="none" xmlns="http://www.w3.org/2000/svg">
<path d="M20.8331 2.08337H9.72201V5.5556H11.1109V3.47226H20.8331C21.2498 3.47226 21.5276 3.75004 21.5276 4.16671V11.8056C21.5276 12.2223 21.2498 12.5 20.8331 12.5H11.8053V17.3612H8.12478L5.55534 19.375V17.3612H3.47201C3.05534 17.3612 2.77756 17.0834 2.77756 16.6667V9.02782C2.77756 8.61115 3.05534 8.33337 3.47201 8.33337H12.4998V6.94448H3.47201C2.29145 6.94448 1.38867 7.84726 1.38867 9.02782V16.6667C1.38867 17.8473 2.29145 18.75 3.47201 18.75H4.16645V22.2917L8.54145 18.75H13.1942V13.8889H20.8331C22.0137 13.8889 22.9165 12.9862 22.9165 11.8056V4.16671C22.9165 2.98615 22.0137 2.08337 20.8331 2.08337Z" fill="#FAD940"/>
<path d="M4.30566 15.9027H5.97233L6.389 14.7916H8.54178L8.95844 15.9027H10.6251L8.264 9.72217H6.59733L4.30566 15.9027ZM7.43066 11.4583L8.12511 13.6111H6.73622L7.43066 11.4583Z" fill="#FAD940"/>
<path d="M15.3 11V5.93H15.1L15.3 5H16.82L17.51 7.44H17.55C17.5833 7.44 17.6 7.42333 17.6 7.39V5.93H17.28L17.48 5H18.5V7.44C18.5 7.67333 18.4333 7.87333 18.3 8.04C18.1667 8.20667 17.99 8.31 17.77 8.35L18.52 11H17.57L16.25 6.22V11H15.3Z" fill="#FAD940"/>
</svg>
